M48
; DRILL file {KiCad 9.0.1} date 2025-07-02T19:30:20-0600
; FORMAT={-:-/ absolute / metric / decimal}
; #@! TF.CreationDate,2025-07-02T19:30:20-06:00
; #@! TF.GenerationSoftware,Kicad,Pcbnew,9.0.1
; #@! TF.FileFunction,Plated,1,2,PTH
FMAT,2
METRIC
; #@! TA.AperFunction,Plated,PTH,ViaDrill
T1C0.300
; #@! TA.AperFunction,Plated,PTH,ComponentDrill
T2C0.800
; #@! TA.AperFunction,Plated,PTH,ComponentDrill
T3C1.000
%
G90
G05
T1
X105.429Y-79.302
X109.433Y-113.303
X112.685Y-127.362
X112.995Y-81.984
X112.995Y-112.954
X114.408Y-106.053
X115.366Y-115.176
X121.33Y-103.963
X126.353Y-106.823
X131.172Y-103.026
X131.381Y-126.015
X133.263Y-125.433
X134.245Y-120.736
X136.246Y-113.488
X141.492Y-120.657
X141.675Y-125.453
X148.66Y-109.593
X151.207Y-109.392
X151.98Y-94.469
X153.67Y-110.964
X154.703Y-96.978
X157.127Y-84.001
X158.881Y-83.583
X159.829Y-117.101
X160.481Y-121.999
X166.075Y-62.612
X166.075Y-106.085
X168.981Y-113.15
X170.473Y-91.251
X172.396Y-126.415
X175.157Y-126.415
X178.873Y-97.558
X180.459Y-126.415
X183.971Y-107.94
X186.338Y-94.808
X187.473Y-126.415
T2
X104.14Y-45.72
X104.14Y-48.26
X104.14Y-50.8
X104.14Y-53.34
X104.14Y-55.88
X104.14Y-58.42
X104.14Y-60.96
X104.14Y-63.5
X104.14Y-73.66
X104.14Y-81.28
X104.14Y-111.755
X104.14Y-119.375
X106.68Y-73.66
X106.68Y-81.28
X106.68Y-111.755
X106.68Y-119.375
X109.22Y-73.66
X109.22Y-81.28
X109.22Y-111.755
X109.22Y-119.375
X109.728Y-55.626
X109.728Y-63.246
X111.76Y-73.66
X111.76Y-81.28
X111.76Y-111.755
X111.76Y-119.375
X114.3Y-55.626
X114.3Y-63.246
X114.3Y-73.66
X114.3Y-81.28
X114.3Y-111.755
X114.3Y-119.375
X116.84Y-73.66
X116.84Y-81.28
X116.84Y-111.755
X116.84Y-119.375
X119.38Y-73.66
X119.38Y-81.28
X119.38Y-111.755
X119.38Y-119.375
X121.92Y-73.66
X121.92Y-81.28
X124.46Y-73.66
X124.46Y-81.28
X124.46Y-104.648
X124.46Y-111.755
X124.46Y-119.375
X126.96Y-104.648
X127.0Y-73.66
X127.0Y-81.28
X127.0Y-111.755
X127.0Y-119.375
X129.54Y-111.755
X129.54Y-119.375
X132.08Y-73.66
X132.08Y-81.28
X132.08Y-111.755
X132.08Y-119.375
X132.16Y-85.598
X134.62Y-73.66
X134.62Y-81.28
X134.62Y-89.408
X134.62Y-104.648
X134.62Y-111.755
X134.62Y-119.375
X137.16Y-73.66
X137.16Y-81.28
X137.16Y-85.598
X137.16Y-89.408
X137.16Y-104.648
X137.16Y-111.755
X137.16Y-119.375
X139.7Y-73.66
X139.7Y-81.28
X139.7Y-89.408
X139.7Y-104.648
X139.7Y-111.755
X139.7Y-119.375
X139.78Y-85.598
X142.24Y-73.66
X142.24Y-81.28
X142.24Y-89.408
X142.24Y-104.648
X144.78Y-73.66
X144.78Y-81.28
X144.78Y-85.598
X144.78Y-89.408
X144.78Y-104.648
X144.78Y-111.755
X144.78Y-119.375
X147.32Y-73.66
X147.32Y-81.28
X147.32Y-89.408
X147.32Y-104.648
X147.32Y-111.755
X147.32Y-119.375
X147.4Y-85.598
X149.86Y-89.408
X149.86Y-104.648
X149.86Y-111.755
X149.86Y-119.375
X152.4Y-73.66
X152.4Y-81.28
X152.4Y-85.598
X152.4Y-89.408
X152.4Y-104.648
X152.4Y-111.755
X152.4Y-119.375
X154.94Y-73.66
X154.94Y-81.28
X154.94Y-89.408
X154.94Y-104.648
X154.94Y-111.755
X154.94Y-119.375
X157.48Y-73.66
X157.48Y-81.28
X157.48Y-89.408
X157.48Y-104.648
X157.48Y-111.755
X157.48Y-119.375
X160.02Y-73.66
X160.02Y-81.28
X160.02Y-89.408
X160.02Y-104.648
X160.02Y-111.755
X160.02Y-119.375
X162.56Y-73.66
X162.56Y-81.28
X162.56Y-89.408
X162.56Y-104.648
X162.56Y-111.755
X162.56Y-119.375
X165.1Y-73.66
X165.1Y-81.28
X165.1Y-89.408
X165.1Y-104.648
X167.64Y-73.66
X167.64Y-81.28
X167.64Y-89.408
X167.64Y-104.648
X167.64Y-111.76
X167.64Y-119.38
X170.18Y-111.76
X170.18Y-119.38
X171.15Y-87.416
X171.15Y-92.416
X172.72Y-98.801
X172.72Y-106.421
X172.72Y-111.76
X172.72Y-119.38
X173.228Y-75.184
X173.228Y-82.804
X175.26Y-86.106
X175.26Y-93.726
X175.26Y-98.801
X175.26Y-106.421
X175.26Y-111.76
X175.26Y-119.38
X177.292Y-55.626
X177.292Y-63.246
X177.8Y-86.106
X177.8Y-93.726
X177.8Y-98.801
X177.8Y-106.421
X177.8Y-111.76
X177.8Y-119.38
X179.27Y-75.184
X179.364Y-82.804
X180.34Y-86.106
X180.34Y-93.726
X180.34Y-98.801
X180.34Y-106.421
X180.34Y-111.76
X180.34Y-119.38
X181.61Y-55.626
X181.61Y-63.246
X182.88Y-86.106
X182.88Y-93.726
X182.88Y-98.801
X182.88Y-106.421
X182.88Y-111.76
X182.88Y-119.38
X184.15Y-75.184
X184.364Y-82.804
X185.42Y-86.106
X185.42Y-93.726
X185.42Y-98.801
X185.42Y-106.421
X185.42Y-111.76
X185.42Y-119.38
X187.96Y-45.72
X187.96Y-48.26
X187.96Y-50.8
X187.96Y-53.34
X187.96Y-55.88
X187.96Y-58.42
X187.96Y-60.96
X187.96Y-63.5
X187.96Y-86.106
X187.96Y-93.726
X187.96Y-98.801
X187.96Y-106.421
X187.96Y-111.76
X187.96Y-119.38
X190.246Y-75.184
X190.246Y-82.804
X190.5Y-86.106
X190.5Y-93.726
X190.5Y-98.801
X190.5Y-106.421
X190.5Y-111.76
X190.5Y-119.38
T3
X109.22Y-107.95
X111.76Y-107.95
X114.3Y-107.95
X160.02Y-85.852
X162.56Y-85.852
X165.1Y-85.852
M30
