%TF.GenerationSoftware,KiCad,Pcbnew,9.0.1*%
%TF.CreationDate,2025-07-02T19:30:22-06:00*%
%TF.ProjectId,transputer,7472616e-7370-4757-9465-722e6b696361,rev?*%
%TF.SameCoordinates,Original*%
%TF.FileFunction,Copper,L2,Bot*%
%TF.FilePolarity,Positive*%
%FSLAX46Y46*%
G04 Gerber Fmt 4.6, Leading zero omitted, Abs format (unit mm)*
G04 Created by KiCad (PCBNEW 9.0.1) date 2025-07-02 19:30:22*
%MOMM*%
%LPD*%
G01*
G04 APERTURE LIST*
G04 Aperture macros list*
%AMRoundRect*
0 Rectangle with rounded corners*
0 $1 Rounding radius*
0 $2 $3 $4 $5 $6 $7 $8 $9 X,Y pos of 4 corners*
0 Add a 4 corners polygon primitive as box body*
4,1,4,$2,$3,$4,$5,$6,$7,$8,$9,$2,$3,0*
0 Add four circle primitives for the rounded corners*
1,1,$1+$1,$2,$3*
1,1,$1+$1,$4,$5*
1,1,$1+$1,$6,$7*
1,1,$1+$1,$8,$9*
0 Add four rect primitives between the rounded corners*
20,1,$1+$1,$2,$3,$4,$5,0*
20,1,$1+$1,$4,$5,$6,$7,0*
20,1,$1+$1,$6,$7,$8,$9,0*
20,1,$1+$1,$8,$9,$2,$3,0*%
G04 Aperture macros list end*
%TA.AperFunction,ComponentPad*%
%ADD10C,1.600000*%
%TD*%
%TA.AperFunction,ComponentPad*%
%ADD11O,1.600000X1.600000*%
%TD*%
%TA.AperFunction,ComponentPad*%
%ADD12RoundRect,0.250000X0.550000X-0.550000X0.550000X0.550000X-0.550000X0.550000X-0.550000X-0.550000X0*%
%TD*%
%TA.AperFunction,ComponentPad*%
%ADD13RoundRect,0.190500X-0.762000X-0.444500X0.762000X-0.444500X0.762000X0.444500X-0.762000X0.444500X0*%
%TD*%
%TA.AperFunction,ComponentPad*%
%ADD14R,1.700000X1.700000*%
%TD*%
%TA.AperFunction,ComponentPad*%
%ADD15C,1.700000*%
%TD*%
%TA.AperFunction,ComponentPad*%
%ADD16R,1.600000X1.600000*%
%TD*%
%TA.AperFunction,ComponentPad*%
%ADD17C,1.500000*%
%TD*%
%TA.AperFunction,ConnectorPad*%
%ADD18R,1.778000X7.620000*%
%TD*%
%TA.AperFunction,ViaPad*%
%ADD19C,0.600000*%
%TD*%
%TA.AperFunction,Conductor*%
%ADD20C,0.200000*%
%TD*%
%TA.AperFunction,Conductor*%
%ADD21C,0.500000*%
%TD*%
G04 APERTURE END LIST*
D10*
%TO.P,R2,1*%
%TO.N,Net-(C1-Pad2)*%
X190246000Y-82804000D03*
D11*
%TO.P,R2,2*%
%TO.N,Net-(R2-Pad2)*%
X190246000Y-75184000D03*
%TD*%
D10*
%TO.P,C1,1*%
%TO.N,Net-(C1-Pad1)*%
X179364000Y-82804000D03*
%TO.P,C1,2*%
%TO.N,Net-(C1-Pad2)*%
X184364000Y-82804000D03*
%TD*%
D12*
%TO.P,U3,1,A0*%
%TO.N,Net-(J1-BA04)*%
X144780000Y-119375000D03*
D10*
%TO.P,U3,2,A1*%
%TO.N,Net-(J1-BA05)*%
X147320000Y-119375000D03*
%TO.P,U3,3,A2*%
%TO.N,Net-(J1-~{IOW})*%
X149860000Y-119375000D03*
%TO.P,U3,4,E1*%
%TO.N,Net-(U3-E1)*%
X152400000Y-119375000D03*
%TO.P,U3,5,E2*%
%TO.N,Net-(U3-E2)*%
X154940000Y-119375000D03*
%TO.P,U3,6,E3*%
%TO.N,Net-(U3-E3)*%
X157480000Y-119375000D03*
%TO.P,U3,7,O7*%
%TO.N,Net-(U3-O7)*%
X160020000Y-119375000D03*
%TO.P,U3,8,GND*%
%TO.N,GND*%
X162560000Y-119375000D03*
%TO.P,U3,9,O6*%
%TO.N,Net-(U3-O6)*%
X162560000Y-111755000D03*
%TO.P,U3,10,O5*%
%TO.N,Net-(U3-O5)*%
X160020000Y-111755000D03*
%TO.P,U3,11,O4*%
%TO.N,unconnected-(U3-O4-Pad11)*%
X157480000Y-111755000D03*
%TO.P,U3,12,O3*%
%TO.N,Net-(U3-O3)*%
X154940000Y-111755000D03*
%TO.P,U3,13,O2*%
%TO.N,Net-(U3-O2)*%
X152400000Y-111755000D03*
%TO.P,U3,14,O1*%
%TO.N,Net-(U3-O1)*%
X149860000Y-111755000D03*
%TO.P,U3,15,O0*%
%TO.N,unconnected-(U3-O0-Pad15)*%
X147320000Y-111755000D03*
%TO.P,U3,16,VCC*%
%TO.N,+5V*%
X144780000Y-111755000D03*
%TD*%
D13*
%TO.P,U8,1,Link2out*%
%TO.N,unconnected-(U8-Link2out-Pad1)*%
X104140000Y-45720000D03*
%TO.P,U8,2,Link2in*%
%TO.N,Net-(U8-Link2in)*%
X104140000Y-48260000D03*
%TO.P,U8,3,VCC*%
%TO.N,+5V*%
X104140000Y-50800000D03*
%TO.P,U8,4,Link1out*%
%TO.N,unconnected-(U8-Link1out-Pad4)*%
X104140000Y-53340000D03*
%TO.P,U8,5,Link1in*%
%TO.N,Net-(U8-Link1in)*%
X104140000Y-55880000D03*
%TO.P,U8,6,LinkSpeedA*%
%TO.N,Net-(JP1-C)*%
X104140000Y-58420000D03*
%TO.P,U8,7,LinkSpeedB*%
X104140000Y-60960000D03*
%TO.P,U8,8,ClockIn*%
%TO.N,/5 mhz.*%
X104140000Y-63500000D03*
%TO.P,U8,9,Analyse*%
%TO.N,Net-(U7B-Q)*%
X187960000Y-63500000D03*
%TO.P,U8,10,Reset*%
%TO.N,Net-(U11-Reset)*%
X187960000Y-60960000D03*
%TO.P,U8,11,notError*%
%TO.N,Net-(U6-I1)*%
X187960000Y-58420000D03*
%TO.P,U8,12,Link0out*%
%TO.N,Net-(U10-I1a)*%
X187960000Y-55880000D03*
%TO.P,U8,13,Link0in*%
%TO.N,Net-(U10-O0a)*%
X187960000Y-53340000D03*
%TO.P,U8,14,GND*%
%TO.N,GND*%
X187960000Y-50800000D03*
%TO.P,U8,15,Link3out*%
%TO.N,unconnected-(U8-Link3out-Pad15)*%
X187960000Y-48260000D03*
%TO.P,U8,16,Link3in*%
%TO.N,Net-(U8-Link3in)*%
X187960000Y-45720000D03*
%TD*%
D14*
%TO.P,JP2,1,A*%
%TO.N,/0150h*%
X109220000Y-107950000D03*
D15*
%TO.P,JP2,2,C*%
%TO.N,Net-(JP2-C)*%
X111760000Y-107950000D03*
%TO.P,JP2,3,B*%
%TO.N,/0170h*%
X114300000Y-107950000D03*
%TD*%
D12*
%TO.P,U6,1,OEa*%
%TO.N,Net-(U3-O6)*%
X172720000Y-106421000D03*
D10*
%TO.P,U6,2,I1*%
%TO.N,Net-(U6-I1)*%
X175260000Y-106421000D03*
%TO.P,U6,3,O1a*%
%TO.N,Net-(J1-DB0)*%
X177800000Y-106421000D03*
%TO.P,U6,4,I2*%
%TO.N,GND*%
X180340000Y-106421000D03*
%TO.P,U6,5,O2a*%
%TO.N,unconnected-(U6-O2a-Pad5)*%
X182880000Y-106421000D03*
%TO.P,U6,6,I3*%
%TO.N,GND*%
X185420000Y-106421000D03*
%TO.P,U6,7,O3a*%
%TO.N,unconnected-(U6-O3a-Pad7)*%
X187960000Y-106421000D03*
%TO.P,U6,8,GND*%
%TO.N,GND*%
X190500000Y-106421000D03*
%TO.P,U6,9,O4a*%
%TO.N,unconnected-(U6-O4a-Pad9)*%
X190500000Y-98801000D03*
%TO.P,U6,10,I4*%
%TO.N,GND*%
X187960000Y-98801000D03*
%TO.P,U6,11,O5b*%
%TO.N,unconnected-(U6-O5b-Pad11)*%
X185420000Y-98801000D03*
%TO.P,U6,12,I5*%
%TO.N,GND*%
X182880000Y-98801000D03*
%TO.P,U6,13,O6b*%
%TO.N,unconnected-(U6-O6b-Pad13)*%
X180340000Y-98801000D03*
%TO.P,U6,14,I6*%
%TO.N,GND*%
X177800000Y-98801000D03*
%TO.P,U6,15,OEb*%
%TO.N,+5V*%
X175260000Y-98801000D03*
%TO.P,U6,16,VCC*%
X172720000Y-98801000D03*
%TD*%
%TO.P,R3,1*%
%TO.N,Net-(U8-Link2in)*%
X114300000Y-63246000D03*
D11*
%TO.P,R3,2*%
%TO.N,GND*%
X114300000Y-55626000D03*
%TD*%
D12*
%TO.P,U10,1,OEa*%
%TO.N,GND*%
X104140000Y-81280000D03*
D10*
%TO.P,U10,2,I0a*%
%TO.N,Net-(U10-I0a)*%
X106680000Y-81280000D03*
%TO.P,U10,3,O3b*%
%TO.N,unconnected-(U10-O3b-Pad3)*%
X109220000Y-81280000D03*
%TO.P,U10,4,I1a*%
%TO.N,Net-(U10-I1a)*%
X111760000Y-81280000D03*
%TO.P,U10,5,O2b*%
%TO.N,unconnected-(U10-O2b-Pad5)*%
X114300000Y-81280000D03*
%TO.P,U10,6,I2a*%
%TO.N,GND*%
X116840000Y-81280000D03*
%TO.P,U10,7,O1b*%
%TO.N,unconnected-(U10-O1b-Pad7)*%
X119380000Y-81280000D03*
%TO.P,U10,8,I3a*%
%TO.N,GND*%
X121920000Y-81280000D03*
%TO.P,U10,9,O0b*%
%TO.N,unconnected-(U10-O0b-Pad9)*%
X124460000Y-81280000D03*
%TO.P,U10,10,GND*%
%TO.N,GND*%
X127000000Y-81280000D03*
%TO.P,U10,11,I0b*%
X127000000Y-73660000D03*
%TO.P,U10,12,O3a*%
%TO.N,unconnected-(U10-O3a-Pad12)*%
X124460000Y-73660000D03*
%TO.P,U10,13,I1b*%
%TO.N,GND*%
X121920000Y-73660000D03*
%TO.P,U10,14,O2a*%
%TO.N,unconnected-(U10-O2a-Pad14)*%
X119380000Y-73660000D03*
%TO.P,U10,15,I2b*%
%TO.N,GND*%
X116840000Y-73660000D03*
%TO.P,U10,16,O1a*%
%TO.N,Net-(U10-O1a)*%
X114300000Y-73660000D03*
%TO.P,U10,17,I3b*%
%TO.N,GND*%
X111760000Y-73660000D03*
%TO.P,U10,18,O0a*%
%TO.N,Net-(U10-O0a)*%
X109220000Y-73660000D03*
%TO.P,U10,19,OEb*%
%TO.N,+5V*%
X106680000Y-73660000D03*
%TO.P,U10,20,VCC*%
X104140000Y-73660000D03*
%TD*%
%TO.P,R1,1*%
%TO.N,Net-(R1-Pad1)*%
X173228000Y-75184000D03*
D11*
%TO.P,R1,2*%
%TO.N,Net-(C1-Pad1)*%
X173228000Y-82804000D03*
%TD*%
D14*
%TO.P,JP1,1,A*%
%TO.N,+5V*%
X160020000Y-85852000D03*
D15*
%TO.P,JP1,2,C*%
%TO.N,Net-(JP1-C)*%
X162560000Y-85852000D03*
%TO.P,JP1,3,B*%
%TO.N,GND*%
X165100000Y-85852000D03*
%TD*%
D12*
%TO.P,U2,1*%
%TO.N,Net-(J1-~{IOW})*%
X104140000Y-119375000D03*
D10*
%TO.P,U2,2*%
%TO.N,Net-(J1-~{IOR})*%
X106680000Y-119375000D03*
%TO.P,U2,3*%
%TO.N,Net-(U3-E2)*%
X109220000Y-119375000D03*
%TO.P,U2,4*%
%TO.N,Net-(J1-BA08)*%
X111760000Y-119375000D03*
%TO.P,U2,5*%
%TO.N,Net-(J1-BA06)*%
X114300000Y-119375000D03*
%TO.P,U2,6*%
%TO.N,Net-(U3-E3)*%
X116840000Y-119375000D03*
%TO.P,U2,7,GND*%
%TO.N,GND*%
X119380000Y-119375000D03*
%TO.P,U2,8*%
%TO.N,/0150h*%
X119380000Y-111755000D03*
%TO.P,U2,9*%
%TO.N,Net-(U3-O1)*%
X116840000Y-111755000D03*
%TO.P,U2,10*%
%TO.N,Net-(U3-O5)*%
X114300000Y-111755000D03*
%TO.P,U2,11*%
%TO.N,/0170h*%
X111760000Y-111755000D03*
%TO.P,U2,12*%
%TO.N,Net-(U3-O3)*%
X109220000Y-111755000D03*
%TO.P,U2,13*%
%TO.N,Net-(U3-O7)*%
X106680000Y-111755000D03*
%TO.P,U2,14,VCC*%
%TO.N,+5V*%
X104140000Y-111755000D03*
%TD*%
%TO.P,C5,1*%
%TO.N,+5V*%
X171150000Y-92416000D03*
%TO.P,C5,2*%
%TO.N,GND*%
X171150000Y-87416000D03*
%TD*%
D16*
%TO.P,C6,1*%
%TO.N,+5V*%
X124460000Y-104648000D03*
D10*
%TO.P,C6,2*%
%TO.N,GND*%
X126960000Y-104648000D03*
%TD*%
%TO.P,C4,1*%
%TO.N,+5V*%
X147400000Y-85598000D03*
%TO.P,C4,2*%
%TO.N,GND*%
X152400000Y-85598000D03*
%TD*%
D12*
%TO.P,U5,1*%
%TO.N,GND*%
X175260000Y-93726000D03*
D10*
%TO.P,U5,2*%
%TO.N,unconnected-(U5-Pad2)*%
X177800000Y-93726000D03*
%TO.P,U5,3*%
%TO.N,Net-(J1-BA00)*%
X180340000Y-93726000D03*
%TO.P,U5,4*%
%TO.N,Net-(U4-Pad12)*%
X182880000Y-93726000D03*
%TO.P,U5,5*%
%TO.N,Net-(U4-Pad1)*%
X185420000Y-93726000D03*
%TO.P,U5,6*%
%TO.N,Net-(U3-E1)*%
X187960000Y-93726000D03*
%TO.P,U5,7,GND*%
%TO.N,GND*%
X190500000Y-93726000D03*
%TO.P,U5,8*%
%TO.N,Net-(R2-Pad2)*%
X190500000Y-86106000D03*
%TO.P,U5,9*%
%TO.N,Net-(C1-Pad2)*%
X187960000Y-86106000D03*
%TO.P,U5,10*%
%TO.N,Net-(C1-Pad1)*%
X185420000Y-86106000D03*
%TO.P,U5,11*%
%TO.N,Net-(R1-Pad1)*%
X182880000Y-86106000D03*
%TO.P,U5,12*%
%TO.N,Net-(U9A-C)*%
X180340000Y-86106000D03*
%TO.P,U5,13*%
%TO.N,Net-(R2-Pad2)*%
X177800000Y-86106000D03*
%TO.P,U5,14,VCC*%
%TO.N,+5V*%
X175260000Y-86106000D03*
%TD*%
%TO.P,C2,1*%
%TO.N,+5V*%
X132160000Y-85598000D03*
%TO.P,C2,2*%
%TO.N,Net-(U11-CapMinus)*%
X137160000Y-85598000D03*
%TD*%
%TO.P,R6,1*%
%TO.N,+5V*%
X177292000Y-63246000D03*
D11*
%TO.P,R6,2*%
%TO.N,Net-(U6-I1)*%
X177292000Y-55626000D03*
%TD*%
D12*
%TO.P,U1,1,A->B*%
%TO.N,Net-(J1-~{IOR})*%
X167640000Y-119380000D03*
D10*
%TO.P,U1,2,A0*%
%TO.N,Net-(J1-DB0)*%
X170180000Y-119380000D03*
%TO.P,U1,3,A1*%
%TO.N,Net-(J1-DB1)*%
X172720000Y-119380000D03*
%TO.P,U1,4,A2*%
%TO.N,Net-(J1-DB2)*%
X175260000Y-119380000D03*
%TO.P,U1,5,A3*%
%TO.N,Net-(J1-DB3)*%
X177800000Y-119380000D03*
%TO.P,U1,6,A4*%
%TO.N,Net-(J1-DB4)*%
X180340000Y-119380000D03*
%TO.P,U1,7,A5*%
%TO.N,Net-(J1-DB5)*%
X182880000Y-119380000D03*
%TO.P,U1,8,A6*%
%TO.N,Net-(J1-DB6)*%
X185420000Y-119380000D03*
%TO.P,U1,9,A7*%
%TO.N,Net-(J1-DB7)*%
X187960000Y-119380000D03*
%TO.P,U1,10,GND*%
%TO.N,GND*%
X190500000Y-119380000D03*
%TO.P,U1,11,B7*%
%TO.N,Net-(U1-B7)*%
X190500000Y-111760000D03*
%TO.P,U1,12,B6*%
%TO.N,Net-(U1-B6)*%
X187960000Y-111760000D03*
%TO.P,U1,13,B5*%
%TO.N,Net-(U1-B5)*%
X185420000Y-111760000D03*
%TO.P,U1,14,B4*%
%TO.N,Net-(U1-B4)*%
X182880000Y-111760000D03*
%TO.P,U1,15,B3*%
%TO.N,Net-(U1-B3)*%
X180340000Y-111760000D03*
%TO.P,U1,16,B2*%
%TO.N,Net-(U1-B2)*%
X177800000Y-111760000D03*
%TO.P,U1,17,B1*%
%TO.N,Net-(U1-B1)*%
X175260000Y-111760000D03*
%TO.P,U1,18,B0*%
%TO.N,Net-(U1-B0)*%
X172720000Y-111760000D03*
%TO.P,U1,19,CE*%
%TO.N,Net-(JP2-C)*%
X170180000Y-111760000D03*
%TO.P,U1,20,VCC*%
%TO.N,+5V*%
X167640000Y-111760000D03*
%TD*%
%TO.P,R4,1*%
%TO.N,Net-(U8-Link1in)*%
X109728000Y-63246000D03*
D11*
%TO.P,R4,2*%
%TO.N,GND*%
X109728000Y-55626000D03*
%TD*%
D12*
%TO.P,U4,1*%
%TO.N,Net-(U4-Pad1)*%
X124460000Y-119375000D03*
D10*
%TO.P,U4,2*%
%TO.N,Net-(J1-AEN)*%
X127000000Y-119375000D03*
%TO.P,U4,3*%
%TO.N,Net-(J1-BA07)*%
X129540000Y-119375000D03*
%TO.P,U4,4*%
%TO.N,unconnected-(U4-Pad4)*%
X132080000Y-119375000D03*
%TO.P,U4,5*%
%TO.N,GND*%
X134620000Y-119375000D03*
%TO.P,U4,6*%
X137160000Y-119375000D03*
%TO.P,U4,7,GND*%
X139700000Y-119375000D03*
%TO.P,U4,8*%
%TO.N,Net-(U3-O2)*%
X139700000Y-111755000D03*
%TO.P,U4,9*%
%TO.N,Net-(J1-BA00)*%
X137160000Y-111755000D03*
%TO.P,U4,10*%
%TO.N,Net-(U7A-C)*%
X134620000Y-111755000D03*
%TO.P,U4,11*%
%TO.N,Net-(U3-O2)*%
X132080000Y-111755000D03*
%TO.P,U4,12*%
%TO.N,Net-(U4-Pad12)*%
X129540000Y-111755000D03*
%TO.P,U4,13*%
%TO.N,Net-(U7B-C)*%
X127000000Y-111755000D03*
%TO.P,U4,14,VCC*%
%TO.N,+5V*%
X124460000Y-111755000D03*
%TD*%
D17*
%TO.P,Y1,1,1*%
%TO.N,Net-(R1-Pad1)*%
X179270000Y-75184000D03*
%TO.P,Y1,2,2*%
%TO.N,Net-(R2-Pad2)*%
X184150000Y-75184000D03*
%TD*%
D10*
%TO.P,R5,1*%
%TO.N,Net-(U8-Link3in)*%
X181610000Y-55626000D03*
D11*
%TO.P,R5,2*%
%TO.N,GND*%
X181610000Y-63246000D03*
%TD*%
D12*
%TO.P,U9,1,~{R}*%
%TO.N,+5V*%
X152400000Y-81280000D03*
D10*
%TO.P,U9,2,D*%
%TO.N,Net-(U9A-D)*%
X154940000Y-81280000D03*
%TO.P,U9,3,C*%
%TO.N,Net-(U9A-C)*%
X157480000Y-81280000D03*
%TO.P,U9,4,~{S}*%
%TO.N,+5V*%
X160020000Y-81280000D03*
%TO.P,U9,5,Q*%
%TO.N,/5 mhz.*%
X162560000Y-81280000D03*
%TO.P,U9,6,~{Q}*%
%TO.N,Net-(U9A-D)*%
X165100000Y-81280000D03*
%TO.P,U9,7,GND*%
%TO.N,GND*%
X167640000Y-81280000D03*
%TO.P,U9,8,~{Q}*%
%TO.N,unconnected-(U9B-~{Q}-Pad8)*%
X167640000Y-73660000D03*
%TO.P,U9,9,Q*%
%TO.N,unconnected-(U9B-Q-Pad9)*%
X165100000Y-73660000D03*
%TO.P,U9,10,~{S}*%
%TO.N,+5V*%
X162560000Y-73660000D03*
%TO.P,U9,11,C*%
X160020000Y-73660000D03*
%TO.P,U9,12,D*%
X157480000Y-73660000D03*
%TO.P,U9,13,~{R}*%
X154940000Y-73660000D03*
%TO.P,U9,14,VCC*%
X152400000Y-73660000D03*
%TD*%
D12*
%TO.P,U11,1,LinkOut*%
%TO.N,Net-(U10-I0a)*%
X134620000Y-104648000D03*
D10*
%TO.P,U11,2,LinkIn*%
%TO.N,Net-(U10-O1a)*%
X137160000Y-104648000D03*
%TO.P,U11,3,RnotW*%
%TO.N,Net-(J1-~{IOW})*%
X139700000Y-104648000D03*
%TO.P,U11,4,OutputInt*%
%TO.N,unconnected-(U11-OutputInt-Pad4)*%
X142240000Y-104648000D03*
%TO.P,U11,5,RS0*%
%TO.N,Net-(J1-BA00)*%
X144780000Y-104648000D03*
%TO.P,U11,6,RS1*%
%TO.N,Net-(J1-BA01)*%
X147320000Y-104648000D03*
%TO.P,U11,7,DoNotWire*%
%TO.N,unconnected-(U11-DoNotWire-Pad7)*%
X149860000Y-104648000D03*
%TO.P,U11,8,D3*%
%TO.N,Net-(U1-B3)*%
X152400000Y-104648000D03*
%TO.P,U11,9,DoNotWire*%
%TO.N,unconnected-(U11-DoNotWire-Pad9)*%
X154940000Y-104648000D03*
%TO.P,U11,10,D5*%
%TO.N,Net-(U1-B5)*%
X157480000Y-104648000D03*
%TO.P,U11,11,HoldToGND*%
%TO.N,GND*%
X160020000Y-104648000D03*
%TO.P,U11,12,D7*%
%TO.N,Net-(U1-B7)*%
X162560000Y-104648000D03*
%TO.P,U11,13,Reset*%
%TO.N,Net-(U11-Reset)*%
X165100000Y-104648000D03*
%TO.P,U11,14,GND*%
%TO.N,GND*%
X167640000Y-104648000D03*
%TO.P,U11,15,ClockIn*%
%TO.N,/5 mhz.*%
X167640000Y-89408000D03*
%TO.P,U11,16,SeparateIQ*%
%TO.N,GND*%
X165100000Y-89408000D03*
%TO.P,U11,17,LinkSpeed*%
%TO.N,Net-(JP1-C)*%
X162560000Y-89408000D03*
%TO.P,U11,18,D6*%
%TO.N,Net-(U1-B6)*%
X160020000Y-89408000D03*
%TO.P,U11,19,DoNotWire*%
%TO.N,unconnected-(U11-DoNotWire-Pad19)*%
X157480000Y-89408000D03*
%TO.P,U11,20,D4*%
%TO.N,Net-(U1-B4)*%
X154940000Y-89408000D03*
%TO.P,U11,21,DoNotWire*%
%TO.N,unconnected-(U11-DoNotWire-Pad21)*%
X152400000Y-89408000D03*
%TO.P,U11,22,D2*%
%TO.N,Net-(U1-B2)*%
X149860000Y-89408000D03*
%TO.P,U11,23,D1*%
%TO.N,Net-(U1-B1)*%
X147320000Y-89408000D03*
%TO.P,U11,24,D0*%
%TO.N,Net-(U1-B0)*%
X144780000Y-89408000D03*
%TO.P,U11,25,notCS*%
%TO.N,Net-(JP2-C)*%
X142240000Y-89408000D03*
%TO.P,U11,26,InputInt*%
%TO.N,unconnected-(U11-InputInt-Pad26)*%
X139700000Y-89408000D03*
%TO.P,U11,27,CapMinus*%
%TO.N,Net-(U11-CapMinus)*%
X137160000Y-89408000D03*
%TO.P,U11,28,VCC*%
%TO.N,+5V*%
X134620000Y-89408000D03*
%TD*%
D12*
%TO.P,U7,1,~{R}*%
%TO.N,+5V*%
X132080000Y-81280000D03*
D10*
%TO.P,U7,2,D*%
%TO.N,Net-(J1-DB0)*%
X134620000Y-81280000D03*
%TO.P,U7,3,C*%
%TO.N,Net-(U7A-C)*%
X137160000Y-81280000D03*
%TO.P,U7,4,~{S}*%
%TO.N,+5V*%
X139700000Y-81280000D03*
%TO.P,U7,5,Q*%
%TO.N,Net-(U11-Reset)*%
X142240000Y-81280000D03*
%TO.P,U7,6,~{Q}*%
%TO.N,unconnected-(U7A-~{Q}-Pad6)*%
X144780000Y-81280000D03*
%TO.P,U7,7,GND*%
%TO.N,GND*%
X147320000Y-81280000D03*
%TO.P,U7,8,~{Q}*%
%TO.N,unconnected-(U7B-~{Q}-Pad8)*%
X147320000Y-73660000D03*
%TO.P,U7,9,Q*%
%TO.N,Net-(U7B-Q)*%
X144780000Y-73660000D03*
%TO.P,U7,10,~{S}*%
%TO.N,+5V*%
X142240000Y-73660000D03*
%TO.P,U7,11,C*%
%TO.N,Net-(U7B-C)*%
X139700000Y-73660000D03*
%TO.P,U7,12,D*%
%TO.N,Net-(J1-DB0)*%
X137160000Y-73660000D03*
%TO.P,U7,13,~{R}*%
%TO.N,+5V*%
X134620000Y-73660000D03*
%TO.P,U7,14,VCC*%
X132080000Y-73660000D03*
%TD*%
%TO.P,C3,1*%
%TO.N,+5V*%
X139780000Y-85598000D03*
%TO.P,C3,2*%
%TO.N,GND*%
X144780000Y-85598000D03*
%TD*%
D18*
%TO.P,J1,1,GND*%
%TO.N,GND*%
X190690000Y-130750000D03*
%TO.P,J1,2,RESET*%
%TO.N,unconnected-(J1-RESET-Pad2)*%
X188150000Y-130750000D03*
%TO.P,J1,3,VCC*%
%TO.N,+5V*%
X185610000Y-130750000D03*
%TO.P,J1,4,IRQ2*%
%TO.N,unconnected-(J1-IRQ2-Pad4)*%
X183070000Y-130750000D03*
%TO.P,J1,5,-5V*%
%TO.N,unconnected-(J1--5V-Pad5)*%
X180530000Y-130750000D03*
%TO.P,J1,6,DRQ2*%
%TO.N,unconnected-(J1-DRQ2-Pad6)*%
X177990000Y-130750000D03*
%TO.P,J1,7,-12V*%
%TO.N,unconnected-(J1--12V-Pad7)*%
X175450000Y-130750000D03*
%TO.P,J1,8,UNUSED*%
%TO.N,unconnected-(J1-UNUSED-Pad8)*%
X172910000Y-130750000D03*
%TO.P,J1,9,+12V*%
%TO.N,unconnected-(J1-+12V-Pad9)*%
X170370000Y-130750000D03*
%TO.P,J1,10,GND*%
%TO.N,GND*%
X167830000Y-130750000D03*
%TO.P,J1,11,~{SMEMW}*%
%TO.N,unconnected-(J1-~{SMEMW}-Pad11)*%
X165290000Y-130750000D03*
%TO.P,J1,12,~{SMEMR}*%
%TO.N,unconnected-(J1-~{SMEMR}-Pad12)*%
X162750000Y-130750000D03*
%TO.P,J1,13,~{IOW}*%
%TO.N,Net-(J1-~{IOW})*%
X160210000Y-130750000D03*
%TO.P,J1,14,~{IOR}*%
%TO.N,Net-(J1-~{IOR})*%
X157670000Y-130750000D03*
%TO.P,J1,15,~{DACK3}*%
%TO.N,unconnected-(J1-~{DACK3}-Pad15)*%
X155130000Y-130750000D03*
%TO.P,J1,16,DRQ3*%
%TO.N,unconnected-(J1-DRQ3-Pad16)*%
X152590000Y-130750000D03*
%TO.P,J1,17,~{DACK1}*%
%TO.N,unconnected-(J1-~{DACK1}-Pad17)*%
X150050000Y-130750000D03*
%TO.P,J1,18,DRQ1*%
%TO.N,unconnected-(J1-DRQ1-Pad18)*%
X147510000Y-130750000D03*
%TO.P,J1,19,~{DACK0}*%
%TO.N,unconnected-(J1-~{DACK0}-Pad19)*%
X144970000Y-130750000D03*
%TO.P,J1,20,CLK*%
%TO.N,unconnected-(J1-CLK-Pad20)*%
X142430000Y-130750000D03*
%TO.P,J1,21,IRQ7*%
%TO.N,unconnected-(J1-IRQ7-Pad21)*%
X139890000Y-130750000D03*
%TO.P,J1,22,IRQ6*%
%TO.N,unconnected-(J1-IRQ6-Pad22)*%
X137350000Y-130750000D03*
%TO.P,J1,23,IRQ5*%
%TO.N,unconnected-(J1-IRQ5-Pad23)*%
X134810000Y-130750000D03*
%TO.P,J1,24,IRQ4*%
%TO.N,unconnected-(J1-IRQ4-Pad24)*%
X132270000Y-130750000D03*
%TO.P,J1,25,IRQ3*%
%TO.N,unconnected-(J1-IRQ3-Pad25)*%
X129730000Y-130750000D03*
%TO.P,J1,26,~{DACK2}*%
%TO.N,unconnected-(J1-~{DACK2}-Pad26)*%
X127190000Y-130750000D03*
%TO.P,J1,27,TC*%
%TO.N,unconnected-(J1-TC-Pad27)*%
X124650000Y-130750000D03*
%TO.P,J1,28,ALE*%
%TO.N,unconnected-(J1-ALE-Pad28)*%
X122110000Y-130750000D03*
%TO.P,J1,29,VCC*%
%TO.N,+5V*%
X119570000Y-130750000D03*
%TO.P,J1,30,OSC*%
%TO.N,unconnected-(J1-OSC-Pad30)*%
X117030000Y-130750000D03*
%TO.P,J1,31,GND*%
%TO.N,GND*%
X114490000Y-130750000D03*
%TD*%
D19*
%TO.N,Net-(U6-I1)*%
X183971500Y-107939900D03*
%TO.N,Net-(U1-B6)*%
X166075300Y-106085400D03*
%TO.N,Net-(J1-~{IOW})*%
X160481100Y-121998600D03*
%TO.N,Net-(U11-Reset)*%
X166075300Y-62611600D03*
X158881200Y-83583000D03*
%TO.N,Net-(J1-BA00)*%
X136246300Y-113488100D03*
X178873400Y-97558100D03*
X112685500Y-127362000D03*
X112994700Y-112954100D03*
%TO.N,Net-(U10-O1a)*%
X121330200Y-103963000D03*
%TO.N,Net-(U1-B0)*%
X153670100Y-110963800D03*
X151979700Y-94468700D03*
%TO.N,Net-(U10-I0a)*%
X114408000Y-106053500D03*
%TO.N,Net-(JP1-C)*%
X112994700Y-81983800D03*
%TO.N,/5 mhz.*%
X105428800Y-79302200D03*
%TO.N,Net-(U1-B1)*%
X148660400Y-109593100D03*
%TO.N,Net-(U1-B2)*%
X151207100Y-109392200D03*
%TO.N,Net-(U1-B4)*%
X186338200Y-94807800D03*
%TO.N,Net-(JP2-C)*%
X170472800Y-91251500D03*
%TO.N,Net-(J1-~{IOR})*%
X109432900Y-113303500D03*
X159829000Y-117100900D03*
%TO.N,Net-(J1-DB1)*%
X172395800Y-126415200D03*
%TO.N,Net-(J1-DB2)*%
X175157200Y-126415200D03*
%TO.N,Net-(J1-DB7)*%
X187473000Y-126415200D03*
%TO.N,Net-(J1-DB4)*%
X180458700Y-126415200D03*
%TO.N,Net-(U3-O6)*%
X168981200Y-113150500D03*
%TO.N,Net-(U3-O5)*%
X115366000Y-115175900D03*
%TO.N,Net-(U3-E1)*%
X154702600Y-96978300D03*
%TO.N,Net-(J1-BA06)*%
X134245200Y-120736400D03*
X133263400Y-125433400D03*
%TO.N,Net-(J1-BA08)*%
X141491800Y-120657100D03*
X141674800Y-125453100D03*
%TO.N,Net-(U4-Pad12)*%
X131172400Y-103025600D03*
%TO.N,Net-(J1-BA07)*%
X131380800Y-126015100D03*
%TO.N,Net-(U4-Pad1)*%
X126353100Y-106823500D03*
%TO.N,Net-(J1-DB0)*%
X157126600Y-84000800D03*
%TD*%
D20*
%TO.N,Net-(R1-Pad1)*%
X182880000Y-86106000D02*
X182880000Y-78794000D01*
X182880000Y-78794000D02*
X179270000Y-75184000D01*
%TO.N,Net-(R2-Pad2)*%
X190500000Y-86106000D02*
X191368500Y-85237500D01*
X191368500Y-77408200D02*
X190246000Y-76285700D01*
X191368500Y-85237500D02*
X191368500Y-77408200D01*
X190246000Y-75184000D02*
X190246000Y-76285700D01*
%TO.N,Net-(C1-Pad2)*%
X190246000Y-82804000D02*
X187960000Y-85090000D01*
X187960000Y-85090000D02*
X187960000Y-86106000D01*
D21*
%TO.N,GND*%
X114490000Y-130750000D02*
X114490000Y-124265000D01*
X190690000Y-126488300D02*
X190500000Y-126298300D01*
X176530000Y-86654000D02*
X176530000Y-69577700D01*
X114490000Y-124265000D02*
X119380000Y-119375000D01*
X187960000Y-50800000D02*
X184485300Y-54274700D01*
X161289900Y-105917900D02*
X161289900Y-118104900D01*
X122082000Y-116673000D02*
X122082000Y-104724500D01*
X189548200Y-107372800D02*
X190114100Y-106806900D01*
X185420000Y-106421000D02*
X187625300Y-104215700D01*
X189548200Y-107372800D02*
X190500000Y-106421000D01*
X147320000Y-83058000D02*
X144780000Y-85598000D01*
X167640000Y-92915800D02*
X167640000Y-104648000D01*
X116840000Y-81280000D02*
X116840000Y-73660000D01*
X184485300Y-54274700D02*
X184485300Y-59119000D01*
X180340000Y-101341000D02*
X180340000Y-106421000D01*
X184485300Y-59119000D02*
X181610000Y-61994300D01*
X187960000Y-96266000D02*
X187960000Y-98801000D01*
X167830000Y-130750000D02*
X167830000Y-124645000D01*
X114300000Y-55626000D02*
X114300000Y-56877700D01*
X114300000Y-56877700D02*
X116840000Y-59417700D01*
X126960000Y-103374500D02*
X126960000Y-81320000D01*
X190500000Y-93726000D02*
X187960000Y-96266000D01*
X177800000Y-98801000D02*
X180340000Y-101341000D01*
X189230000Y-107691000D02*
X189548200Y-107372800D01*
X182880000Y-98801000D02*
X180340000Y-101341000D01*
X173482000Y-89702000D02*
X175260000Y-91480000D01*
X190690000Y-130750000D02*
X190690000Y-126488300D01*
X176530000Y-69577700D02*
X181610000Y-64497700D01*
X147320000Y-81280000D02*
X147320000Y-83058000D01*
X171196000Y-89359800D02*
X167640000Y-92915800D01*
X104140000Y-81280000D02*
X104514100Y-81280000D01*
X171196000Y-87416000D02*
X171196000Y-89359800D01*
X165100000Y-83820000D02*
X165100000Y-85852000D01*
X126960000Y-104648000D02*
X126960000Y-103374500D01*
X104514100Y-81280000D02*
X111760000Y-74034100D01*
X123432000Y-103374500D02*
X126960000Y-103374500D01*
X187960000Y-103016700D02*
X187960000Y-98801000D01*
X161289900Y-118104900D02*
X162560000Y-119375000D01*
X187625200Y-104215700D02*
X187625200Y-103351500D01*
X111760000Y-74034100D02*
X111760000Y-73660000D01*
X181610000Y-63246000D02*
X181610000Y-64497700D01*
X189230000Y-118110000D02*
X189230000Y-107691000D01*
X173482000Y-89702000D02*
X176530000Y-86654000D01*
X190500000Y-119380000D02*
X189230000Y-118110000D01*
X122082000Y-104724500D02*
X123432000Y-103374500D01*
X171196000Y-87416000D02*
X173482000Y-89702000D01*
X190114100Y-106806900D02*
X190114100Y-106704600D01*
X190114100Y-106704600D02*
X187625300Y-104215700D01*
X175260000Y-91480000D02*
X175260000Y-93726000D01*
X187625200Y-103351500D02*
X187960000Y-103016700D01*
X127000000Y-81280000D02*
X127000000Y-73660000D01*
X116840000Y-59417700D02*
X116840000Y-73660000D01*
X190500000Y-126298300D02*
X190500000Y-119380000D01*
X119380000Y-119375000D02*
X122082000Y-116673000D01*
X121920000Y-73660000D02*
X121920000Y-81280000D01*
X165100000Y-85852000D02*
X165100000Y-89408000D01*
X160020000Y-104648000D02*
X161289900Y-105917900D01*
X126960000Y-81320000D02*
X127000000Y-81280000D01*
X181610000Y-62620100D02*
X181610000Y-63246000D01*
X167640000Y-81280000D02*
X165100000Y-83820000D01*
X181610000Y-62620100D02*
X181610000Y-61994300D01*
X167830000Y-124645000D02*
X162560000Y-119375000D01*
X187625300Y-104215700D02*
X187625200Y-104215700D01*
D20*
%TO.N,Net-(U8-Link2in)*%
X104140000Y-48260000D02*
X114300000Y-58420000D01*
X114300000Y-58420000D02*
X114300000Y-63246000D01*
%TO.N,Net-(U8-Link1in)*%
X109728000Y-61468000D02*
X109728000Y-63246000D01*
X104140000Y-55880000D02*
X109728000Y-61468000D01*
%TO.N,Net-(U8-Link3in)*%
X181610000Y-52070000D02*
X181610000Y-55626000D01*
X187960000Y-45720000D02*
X181610000Y-52070000D01*
%TO.N,Net-(U6-I1)*%
X184308200Y-103230900D02*
X181764100Y-105775000D01*
X182839400Y-107939900D02*
X183971500Y-107939900D01*
X181764100Y-105775000D02*
X181764100Y-106864600D01*
X181764100Y-106864600D02*
X182839400Y-107939900D01*
X185933600Y-60446400D02*
X185933600Y-83104800D01*
X184308200Y-84730200D02*
X184308200Y-103230900D01*
X187960000Y-58420000D02*
X185933600Y-60446400D01*
X185933600Y-83104800D02*
X184308200Y-84730200D01*
D21*
%TO.N,+5V*%
X181610000Y-113382900D02*
X181610000Y-111166800D01*
X185610000Y-121370000D02*
X184150100Y-119910100D01*
X132160000Y-85598000D02*
X134620000Y-88058000D01*
X144780000Y-111755000D02*
X146050000Y-110485000D01*
X102683700Y-52256300D02*
X102683700Y-73478000D01*
X181610000Y-111166800D02*
X179070000Y-108626800D01*
X172720000Y-98801000D02*
X170220000Y-101301000D01*
X104140000Y-50800000D02*
X102683700Y-52256300D01*
X170220000Y-101301000D02*
X170220000Y-109177900D01*
X132160000Y-85598000D02*
X132160000Y-81360000D01*
X170220000Y-109177900D02*
X167640000Y-111757900D01*
X160020000Y-85852000D02*
X160020000Y-81280000D01*
X139700000Y-81280000D02*
X139700000Y-85518000D01*
X102865700Y-73660000D02*
X102865700Y-110480700D01*
X139700000Y-85518000D02*
X139780000Y-85598000D01*
X184150100Y-119910100D02*
X184150100Y-115923000D01*
X171196000Y-97277000D02*
X172720000Y-98801000D01*
X147400000Y-85598000D02*
X151718000Y-81280000D01*
X184150100Y-115923000D02*
X181610000Y-113382900D01*
X134620000Y-88058000D02*
X134620000Y-89408000D01*
X102683700Y-73478000D02*
X102865700Y-73660000D01*
X146050000Y-86948000D02*
X147400000Y-85598000D01*
X139700000Y-76200000D02*
X139700000Y-81280000D01*
X179070000Y-108626800D02*
X179070000Y-102611000D01*
X102865700Y-73660000D02*
X104140000Y-73660000D01*
X175260000Y-65278000D02*
X177292000Y-63246000D01*
X171196000Y-92416000D02*
X171196000Y-97277000D01*
X185610000Y-130750000D02*
X185610000Y-121370000D01*
X132160000Y-81360000D02*
X132080000Y-81280000D01*
X151718000Y-81280000D02*
X152400000Y-81280000D01*
X179070000Y-102611000D02*
X175260000Y-98801000D01*
X102865700Y-110480700D02*
X104140000Y-111755000D01*
X152400000Y-81280000D02*
X152400000Y-73660000D01*
X146050000Y-110485000D02*
X146050000Y-86948000D01*
X132080000Y-73660000D02*
X132080000Y-81280000D01*
X124460000Y-116938100D02*
X119570000Y-121828100D01*
X124460000Y-111755000D02*
X124460000Y-116938100D01*
X142240000Y-73660000D02*
X139700000Y-76200000D01*
X124460000Y-111755000D02*
X124460000Y-104648000D01*
X167640000Y-111757900D02*
X167640000Y-111760000D01*
X175260000Y-86106000D02*
X175260000Y-65278000D01*
X119570000Y-121828100D02*
X119570000Y-130750000D01*
D20*
%TO.N,Net-(U1-B6)*%
X166222600Y-105938100D02*
X166075300Y-106085400D01*
X160020000Y-89408000D02*
X166222600Y-95610600D01*
X166222600Y-95610600D02*
X166222600Y-105938100D01*
%TO.N,Net-(J1-~{IOW})*%
X160210000Y-130750000D02*
X160210000Y-122269700D01*
X139700000Y-104648000D02*
X139700000Y-109215000D01*
X160210000Y-122269700D02*
X160481100Y-121998600D01*
X139700000Y-109215000D02*
X149860000Y-119375000D01*
%TO.N,Net-(U11-Reset)*%
X166222600Y-74102800D02*
X166222600Y-62758900D01*
X165100000Y-98291100D02*
X165100000Y-104648000D01*
X158881200Y-80828300D02*
X164027800Y-75681700D01*
X158881200Y-83583000D02*
X158881200Y-80828300D01*
X164643700Y-75681700D02*
X166222600Y-74102800D01*
X158881200Y-83583000D02*
X158825000Y-83639200D01*
X166222600Y-62758900D02*
X166075300Y-62611600D01*
X158825000Y-83639200D02*
X158825000Y-92016100D01*
X164027800Y-75681700D02*
X164643700Y-75681700D01*
X158825000Y-92016100D02*
X165100000Y-98291100D01*
%TO.N,Net-(U11-CapMinus)*%
X137160000Y-89408000D02*
X137160000Y-85598000D01*
%TO.N,Net-(J1-BA00)*%
X138430000Y-110485000D02*
X137160000Y-111755000D01*
X137160000Y-111755000D02*
X137160000Y-112574400D01*
X144780000Y-104648000D02*
X143660200Y-103528200D01*
X180340000Y-96091500D02*
X178873400Y-97558100D01*
X137160000Y-112574400D02*
X136246300Y-113488100D01*
X112994700Y-127052800D02*
X112685500Y-127362000D01*
X139219900Y-103528200D02*
X138430000Y-104318100D01*
X138430000Y-104318100D02*
X138430000Y-110485000D01*
X143660200Y-103528200D02*
X139219900Y-103528200D01*
X112994700Y-112954100D02*
X112994700Y-127052800D01*
X180340000Y-93726000D02*
X180340000Y-96091500D01*
%TO.N,Net-(U10-O1a)*%
X115570000Y-98202800D02*
X121330200Y-103963000D01*
X114300000Y-73660000D02*
X115570000Y-74930000D01*
X115570000Y-74930000D02*
X115570000Y-98202800D01*
%TO.N,Net-(U1-B0)*%
X151979700Y-94468700D02*
X153670000Y-96159000D01*
X153670000Y-110963800D02*
X153670100Y-110963800D01*
X153670000Y-96159000D02*
X153670000Y-110963800D01*
%TO.N,Net-(U10-I0a)*%
X106680000Y-98325500D02*
X106680000Y-81280000D01*
X114408000Y-106053500D02*
X106680000Y-98325500D01*
%TO.N,Net-(JP1-C)*%
X162560000Y-89408000D02*
X162560000Y-85852000D01*
X104140000Y-60960000D02*
X112994700Y-69814700D01*
X104140000Y-58420000D02*
X104140000Y-60960000D01*
X112994700Y-69814700D02*
X112994700Y-81983800D01*
%TO.N,/5 mhz.*%
X104140000Y-63500000D02*
X105428800Y-64788800D01*
X163830000Y-89754500D02*
X164586200Y-90510700D01*
X163830000Y-82550000D02*
X163830000Y-89754500D01*
X166537300Y-90510700D02*
X167640000Y-89408000D01*
X105428800Y-64788800D02*
X105428800Y-79302200D01*
X162560000Y-81280000D02*
X163830000Y-82550000D01*
X164586200Y-90510700D02*
X166537300Y-90510700D01*
%TO.N,Net-(U1-B1)*%
X148660400Y-90748400D02*
X147320000Y-89408000D01*
X148660400Y-109593100D02*
X148660400Y-90748400D01*
%TO.N,Net-(U1-B2)*%
X151207100Y-90755100D02*
X149860000Y-89408000D01*
X151207100Y-109392200D02*
X151207100Y-90755100D01*
%TO.N,Net-(U1-B4)*%
X184314200Y-107318800D02*
X184597100Y-107601700D01*
X184597100Y-110042900D02*
X182880000Y-111760000D01*
X186521700Y-94991300D02*
X186521700Y-102474700D01*
X186338200Y-94807800D02*
X186521700Y-94991300D01*
X186521700Y-102474700D02*
X184314200Y-104682200D01*
X184314200Y-104682200D02*
X184314200Y-107318800D01*
X184597100Y-107601700D02*
X184597100Y-110042900D01*
%TO.N,Net-(JP2-C)*%
X173826600Y-108113400D02*
X173826600Y-93465000D01*
X170180000Y-111760000D02*
X173826600Y-108113400D01*
X171613100Y-91251500D02*
X170472800Y-91251500D01*
X173826600Y-93465000D02*
X171613100Y-91251500D01*
%TO.N,Net-(J1-~{IOR})*%
X161158500Y-120376100D02*
X161158500Y-118927900D01*
X109432900Y-116622100D02*
X106680000Y-119375000D01*
X157670000Y-130750000D02*
X157670000Y-123864600D01*
X157670000Y-123864600D02*
X161158500Y-120376100D01*
X159829000Y-117598400D02*
X159829000Y-117100900D01*
X161158500Y-118927900D02*
X159829000Y-117598400D01*
X109432900Y-113303500D02*
X109432900Y-116622100D01*
%TO.N,Net-(J1-DB1)*%
X172720000Y-126091000D02*
X172720000Y-119380000D01*
X172395800Y-126415200D02*
X172720000Y-126091000D01*
%TO.N,Net-(J1-DB2)*%
X175157200Y-126415200D02*
X175260000Y-126312400D01*
X175260000Y-126312400D02*
X175260000Y-119380000D01*
%TO.N,Net-(J1-DB7)*%
X187473000Y-126415200D02*
X187960000Y-125928200D01*
X187960000Y-125928200D02*
X187960000Y-119380000D01*
%TO.N,Net-(J1-DB4)*%
X180340000Y-126296500D02*
X180340000Y-119380000D01*
X180458700Y-126415200D02*
X180340000Y-126296500D01*
%TO.N,Net-(U3-O6)*%
X172720000Y-106421000D02*
X172720000Y-107458100D01*
X168910000Y-111268100D02*
X168910000Y-113079300D01*
X168910000Y-113079300D02*
X168981200Y-113150500D01*
X172720000Y-107458100D02*
X168910000Y-111268100D01*
%TO.N,Net-(U3-O5)*%
X115366000Y-112821000D02*
X115366000Y-115175900D01*
X114300000Y-111755000D02*
X115366000Y-112821000D01*
%TO.N,Net-(U3-E1)*%
X152400000Y-119375000D02*
X156115800Y-115659200D01*
X156115800Y-115659200D02*
X156115800Y-98391500D01*
X156115800Y-98391500D02*
X154702600Y-96978300D01*
%TO.N,Net-(U7A-C)*%
X133507800Y-100787900D02*
X138306200Y-95989500D01*
X138306200Y-82426200D02*
X137160000Y-81280000D01*
X138306200Y-95989500D02*
X138306200Y-82426200D01*
X134620000Y-111755000D02*
X133507800Y-110642800D01*
X133507800Y-110642800D02*
X133507800Y-100787900D01*
%TO.N,Net-(U7B-C)*%
X135805500Y-77554500D02*
X135805500Y-97541700D01*
X139700000Y-73660000D02*
X135805500Y-77554500D01*
X127000000Y-106347200D02*
X127000000Y-111755000D01*
X135805500Y-97541700D02*
X127000000Y-106347200D01*
%TO.N,Net-(J1-BA06)*%
X133263400Y-121718200D02*
X133263400Y-125433400D01*
X134245200Y-120736400D02*
X133263400Y-121718200D01*
%TO.N,Net-(J1-BA08)*%
X141491800Y-120657100D02*
X141491800Y-125270100D01*
X141491800Y-125270100D02*
X141674800Y-125453100D01*
%TO.N,Net-(U4-Pad12)*%
X129540000Y-104658000D02*
X129540000Y-111755000D01*
X131172400Y-103025600D02*
X129540000Y-104658000D01*
%TO.N,Net-(J1-BA07)*%
X131380800Y-121215800D02*
X129540000Y-119375000D01*
X131380800Y-126015100D02*
X131380800Y-121215800D01*
%TO.N,Net-(U4-Pad1)*%
X125815000Y-118020000D02*
X124460000Y-119375000D01*
X125815000Y-107361600D02*
X125815000Y-118020000D01*
X126353100Y-106823500D02*
X125815000Y-107361600D01*
%TO.N,/0150h*%
X119380000Y-111398900D02*
X119380000Y-111755000D01*
X114727800Y-106746700D02*
X119380000Y-111398900D01*
X111287100Y-106746700D02*
X114727800Y-106746700D01*
X110371700Y-107662100D02*
X111287100Y-106746700D01*
X109220000Y-107950000D02*
X110371700Y-107950000D01*
X110371700Y-107950000D02*
X110371700Y-107662100D01*
%TO.N,/0170h*%
X114300000Y-107950000D02*
X114300000Y-109215000D01*
X114300000Y-109215000D02*
X111760000Y-111755000D01*
%TO.N,Net-(J1-DB0)*%
X137160000Y-73660000D02*
X134620000Y-76200000D01*
X177800000Y-106421000D02*
X176530000Y-107691000D01*
X163830000Y-109548400D02*
X163830000Y-97723100D01*
X134620000Y-76200000D02*
X134620000Y-81280000D01*
X170180000Y-119380000D02*
X171462000Y-118098000D01*
X163830000Y-97723100D02*
X156374700Y-90267800D01*
X156374700Y-90267800D02*
X156374700Y-84752700D01*
X156374700Y-84752700D02*
X157126600Y-84000800D01*
X176530000Y-112112400D02*
X171462000Y-117180400D01*
X171462000Y-118098000D02*
X171462000Y-117180400D01*
X176530000Y-107691000D02*
X176530000Y-112112400D01*
X171462000Y-117180400D02*
X163830000Y-109548400D01*
%TD*%
M02*
