%TF.GenerationSoftware,KiCad,Pcbnew,9.0.1*%
%TF.CreationDate,2025-07-02T19:30:22-06:00*%
%TF.ProjectId,transputer,7472616e-7370-4757-9465-722e6b696361,rev?*%
%TF.SameCoordinates,Original*%
%TF.FileFunction,Copper,L1,Top*%
%TF.FilePolarity,Positive*%
%FSLAX46Y46*%
G04 Gerber Fmt 4.6, Leading zero omitted, Abs format (unit mm)*
G04 Created by KiCad (PCBNEW 9.0.1) date 2025-07-02 19:30:22*
%MOMM*%
%LPD*%
G01*
G04 APERTURE LIST*
G04 Aperture macros list*
%AMRoundRect*
0 Rectangle with rounded corners*
0 $1 Rounding radius*
0 $2 $3 $4 $5 $6 $7 $8 $9 X,Y pos of 4 corners*
0 Add a 4 corners polygon primitive as box body*
4,1,4,$2,$3,$4,$5,$6,$7,$8,$9,$2,$3,0*
0 Add four circle primitives for the rounded corners*
1,1,$1+$1,$2,$3*
1,1,$1+$1,$4,$5*
1,1,$1+$1,$6,$7*
1,1,$1+$1,$8,$9*
0 Add four rect primitives between the rounded corners*
20,1,$1+$1,$2,$3,$4,$5,0*
20,1,$1+$1,$4,$5,$6,$7,0*
20,1,$1+$1,$6,$7,$8,$9,0*
20,1,$1+$1,$8,$9,$2,$3,0*%
G04 Aperture macros list end*
%TA.AperFunction,ComponentPad*%
%ADD10C,1.600000*%
%TD*%
%TA.AperFunction,ComponentPad*%
%ADD11O,1.600000X1.600000*%
%TD*%
%TA.AperFunction,ComponentPad*%
%ADD12RoundRect,0.250000X0.550000X-0.550000X0.550000X0.550000X-0.550000X0.550000X-0.550000X-0.550000X0*%
%TD*%
%TA.AperFunction,ComponentPad*%
%ADD13RoundRect,0.190500X-0.762000X-0.444500X0.762000X-0.444500X0.762000X0.444500X-0.762000X0.444500X0*%
%TD*%
%TA.AperFunction,ComponentPad*%
%ADD14R,1.700000X1.700000*%
%TD*%
%TA.AperFunction,ComponentPad*%
%ADD15C,1.700000*%
%TD*%
%TA.AperFunction,ComponentPad*%
%ADD16R,1.600000X1.600000*%
%TD*%
%TA.AperFunction,ComponentPad*%
%ADD17C,1.500000*%
%TD*%
%TA.AperFunction,ConnectorPad*%
%ADD18R,1.778000X7.620000*%
%TD*%
%TA.AperFunction,ViaPad*%
%ADD19C,0.600000*%
%TD*%
%TA.AperFunction,Conductor*%
%ADD20C,0.200000*%
%TD*%
%TA.AperFunction,Conductor*%
%ADD21C,0.500000*%
%TD*%
G04 APERTURE END LIST*
D10*
%TO.P,R2,1*%
%TO.N,Net-(C1-Pad2)*%
X190246000Y-82804000D03*
D11*
%TO.P,R2,2*%
%TO.N,Net-(R2-Pad2)*%
X190246000Y-75184000D03*
%TD*%
D10*
%TO.P,C1,1*%
%TO.N,Net-(C1-Pad1)*%
X179364000Y-82804000D03*
%TO.P,C1,2*%
%TO.N,Net-(C1-Pad2)*%
X184364000Y-82804000D03*
%TD*%
D12*
%TO.P,U3,1,A0*%
%TO.N,Net-(J1-BA04)*%
X144780000Y-119375000D03*
D10*
%TO.P,U3,2,A1*%
%TO.N,Net-(J1-BA05)*%
X147320000Y-119375000D03*
%TO.P,U3,3,A2*%
%TO.N,Net-(J1-~{IOW})*%
X149860000Y-119375000D03*
%TO.P,U3,4,E1*%
%TO.N,Net-(U3-E1)*%
X152400000Y-119375000D03*
%TO.P,U3,5,E2*%
%TO.N,Net-(U3-E2)*%
X154940000Y-119375000D03*
%TO.P,U3,6,E3*%
%TO.N,Net-(U3-E3)*%
X157480000Y-119375000D03*
%TO.P,U3,7,O7*%
%TO.N,Net-(U3-O7)*%
X160020000Y-119375000D03*
%TO.P,U3,8,GND*%
%TO.N,GND*%
X162560000Y-119375000D03*
%TO.P,U3,9,O6*%
%TO.N,Net-(U3-O6)*%
X162560000Y-111755000D03*
%TO.P,U3,10,O5*%
%TO.N,Net-(U3-O5)*%
X160020000Y-111755000D03*
%TO.P,U3,11,O4*%
%TO.N,unconnected-(U3-O4-Pad11)*%
X157480000Y-111755000D03*
%TO.P,U3,12,O3*%
%TO.N,Net-(U3-O3)*%
X154940000Y-111755000D03*
%TO.P,U3,13,O2*%
%TO.N,Net-(U3-O2)*%
X152400000Y-111755000D03*
%TO.P,U3,14,O1*%
%TO.N,Net-(U3-O1)*%
X149860000Y-111755000D03*
%TO.P,U3,15,O0*%
%TO.N,unconnected-(U3-O0-Pad15)*%
X147320000Y-111755000D03*
%TO.P,U3,16,VCC*%
%TO.N,+5V*%
X144780000Y-111755000D03*
%TD*%
D13*
%TO.P,U8,1,Link2out*%
%TO.N,unconnected-(U8-Link2out-Pad1)*%
X104140000Y-45720000D03*
%TO.P,U8,2,Link2in*%
%TO.N,Net-(U8-Link2in)*%
X104140000Y-48260000D03*
%TO.P,U8,3,VCC*%
%TO.N,+5V*%
X104140000Y-50800000D03*
%TO.P,U8,4,Link1out*%
%TO.N,unconnected-(U8-Link1out-Pad4)*%
X104140000Y-53340000D03*
%TO.P,U8,5,Link1in*%
%TO.N,Net-(U8-Link1in)*%
X104140000Y-55880000D03*
%TO.P,U8,6,LinkSpeedA*%
%TO.N,Net-(JP1-C)*%
X104140000Y-58420000D03*
%TO.P,U8,7,LinkSpeedB*%
X104140000Y-60960000D03*
%TO.P,U8,8,ClockIn*%
%TO.N,/5 mhz.*%
X104140000Y-63500000D03*
%TO.P,U8,9,Analyse*%
%TO.N,Net-(U7B-Q)*%
X187960000Y-63500000D03*
%TO.P,U8,10,Reset*%
%TO.N,Net-(U11-Reset)*%
X187960000Y-60960000D03*
%TO.P,U8,11,notError*%
%TO.N,Net-(U6-I1)*%
X187960000Y-58420000D03*
%TO.P,U8,12,Link0out*%
%TO.N,Net-(U10-I1a)*%
X187960000Y-55880000D03*
%TO.P,U8,13,Link0in*%
%TO.N,Net-(U10-O0a)*%
X187960000Y-53340000D03*
%TO.P,U8,14,GND*%
%TO.N,GND*%
X187960000Y-50800000D03*
%TO.P,U8,15,Link3out*%
%TO.N,unconnected-(U8-Link3out-Pad15)*%
X187960000Y-48260000D03*
%TO.P,U8,16,Link3in*%
%TO.N,Net-(U8-Link3in)*%
X187960000Y-45720000D03*
%TD*%
D14*
%TO.P,JP2,1,A*%
%TO.N,/0150h*%
X109220000Y-107950000D03*
D15*
%TO.P,JP2,2,C*%
%TO.N,Net-(JP2-C)*%
X111760000Y-107950000D03*
%TO.P,JP2,3,B*%
%TO.N,/0170h*%
X114300000Y-107950000D03*
%TD*%
D12*
%TO.P,U6,1,OEa*%
%TO.N,Net-(U3-O6)*%
X172720000Y-106421000D03*
D10*
%TO.P,U6,2,I1*%
%TO.N,Net-(U6-I1)*%
X175260000Y-106421000D03*
%TO.P,U6,3,O1a*%
%TO.N,Net-(J1-DB0)*%
X177800000Y-106421000D03*
%TO.P,U6,4,I2*%
%TO.N,GND*%
X180340000Y-106421000D03*
%TO.P,U6,5,O2a*%
%TO.N,unconnected-(U6-O2a-Pad5)*%
X182880000Y-106421000D03*
%TO.P,U6,6,I3*%
%TO.N,GND*%
X185420000Y-106421000D03*
%TO.P,U6,7,O3a*%
%TO.N,unconnected-(U6-O3a-Pad7)*%
X187960000Y-106421000D03*
%TO.P,U6,8,GND*%
%TO.N,GND*%
X190500000Y-106421000D03*
%TO.P,U6,9,O4a*%
%TO.N,unconnected-(U6-O4a-Pad9)*%
X190500000Y-98801000D03*
%TO.P,U6,10,I4*%
%TO.N,GND*%
X187960000Y-98801000D03*
%TO.P,U6,11,O5b*%
%TO.N,unconnected-(U6-O5b-Pad11)*%
X185420000Y-98801000D03*
%TO.P,U6,12,I5*%
%TO.N,GND*%
X182880000Y-98801000D03*
%TO.P,U6,13,O6b*%
%TO.N,unconnected-(U6-O6b-Pad13)*%
X180340000Y-98801000D03*
%TO.P,U6,14,I6*%
%TO.N,GND*%
X177800000Y-98801000D03*
%TO.P,U6,15,OEb*%
%TO.N,+5V*%
X175260000Y-98801000D03*
%TO.P,U6,16,VCC*%
X172720000Y-98801000D03*
%TD*%
%TO.P,R3,1*%
%TO.N,Net-(U8-Link2in)*%
X114300000Y-63246000D03*
D11*
%TO.P,R3,2*%
%TO.N,GND*%
X114300000Y-55626000D03*
%TD*%
D12*
%TO.P,U10,1,OEa*%
%TO.N,GND*%
X104140000Y-81280000D03*
D10*
%TO.P,U10,2,I0a*%
%TO.N,Net-(U10-I0a)*%
X106680000Y-81280000D03*
%TO.P,U10,3,O3b*%
%TO.N,unconnected-(U10-O3b-Pad3)*%
X109220000Y-81280000D03*
%TO.P,U10,4,I1a*%
%TO.N,Net-(U10-I1a)*%
X111760000Y-81280000D03*
%TO.P,U10,5,O2b*%
%TO.N,unconnected-(U10-O2b-Pad5)*%
X114300000Y-81280000D03*
%TO.P,U10,6,I2a*%
%TO.N,GND*%
X116840000Y-81280000D03*
%TO.P,U10,7,O1b*%
%TO.N,unconnected-(U10-O1b-Pad7)*%
X119380000Y-81280000D03*
%TO.P,U10,8,I3a*%
%TO.N,GND*%
X121920000Y-81280000D03*
%TO.P,U10,9,O0b*%
%TO.N,unconnected-(U10-O0b-Pad9)*%
X124460000Y-81280000D03*
%TO.P,U10,10,GND*%
%TO.N,GND*%
X127000000Y-81280000D03*
%TO.P,U10,11,I0b*%
X127000000Y-73660000D03*
%TO.P,U10,12,O3a*%
%TO.N,unconnected-(U10-O3a-Pad12)*%
X124460000Y-73660000D03*
%TO.P,U10,13,I1b*%
%TO.N,GND*%
X121920000Y-73660000D03*
%TO.P,U10,14,O2a*%
%TO.N,unconnected-(U10-O2a-Pad14)*%
X119380000Y-73660000D03*
%TO.P,U10,15,I2b*%
%TO.N,GND*%
X116840000Y-73660000D03*
%TO.P,U10,16,O1a*%
%TO.N,Net-(U10-O1a)*%
X114300000Y-73660000D03*
%TO.P,U10,17,I3b*%
%TO.N,GND*%
X111760000Y-73660000D03*
%TO.P,U10,18,O0a*%
%TO.N,Net-(U10-O0a)*%
X109220000Y-73660000D03*
%TO.P,U10,19,OEb*%
%TO.N,+5V*%
X106680000Y-73660000D03*
%TO.P,U10,20,VCC*%
X104140000Y-73660000D03*
%TD*%
%TO.P,R1,1*%
%TO.N,Net-(R1-Pad1)*%
X173228000Y-75184000D03*
D11*
%TO.P,R1,2*%
%TO.N,Net-(C1-Pad1)*%
X173228000Y-82804000D03*
%TD*%
D14*
%TO.P,JP1,1,A*%
%TO.N,+5V*%
X160020000Y-85852000D03*
D15*
%TO.P,JP1,2,C*%
%TO.N,Net-(JP1-C)*%
X162560000Y-85852000D03*
%TO.P,JP1,3,B*%
%TO.N,GND*%
X165100000Y-85852000D03*
%TD*%
D12*
%TO.P,U2,1*%
%TO.N,Net-(J1-~{IOW})*%
X104140000Y-119375000D03*
D10*
%TO.P,U2,2*%
%TO.N,Net-(J1-~{IOR})*%
X106680000Y-119375000D03*
%TO.P,U2,3*%
%TO.N,Net-(U3-E2)*%
X109220000Y-119375000D03*
%TO.P,U2,4*%
%TO.N,Net-(J1-BA08)*%
X111760000Y-119375000D03*
%TO.P,U2,5*%
%TO.N,Net-(J1-BA06)*%
X114300000Y-119375000D03*
%TO.P,U2,6*%
%TO.N,Net-(U3-E3)*%
X116840000Y-119375000D03*
%TO.P,U2,7,GND*%
%TO.N,GND*%
X119380000Y-119375000D03*
%TO.P,U2,8*%
%TO.N,/0150h*%
X119380000Y-111755000D03*
%TO.P,U2,9*%
%TO.N,Net-(U3-O1)*%
X116840000Y-111755000D03*
%TO.P,U2,10*%
%TO.N,Net-(U3-O5)*%
X114300000Y-111755000D03*
%TO.P,U2,11*%
%TO.N,/0170h*%
X111760000Y-111755000D03*
%TO.P,U2,12*%
%TO.N,Net-(U3-O3)*%
X109220000Y-111755000D03*
%TO.P,U2,13*%
%TO.N,Net-(U3-O7)*%
X106680000Y-111755000D03*
%TO.P,U2,14,VCC*%
%TO.N,+5V*%
X104140000Y-111755000D03*
%TD*%
%TO.P,C5,1*%
%TO.N,+5V*%
X171150000Y-92416000D03*
%TO.P,C5,2*%
%TO.N,GND*%
X171150000Y-87416000D03*
%TD*%
D16*
%TO.P,C6,1*%
%TO.N,+5V*%
X124460000Y-104648000D03*
D10*
%TO.P,C6,2*%
%TO.N,GND*%
X126960000Y-104648000D03*
%TD*%
%TO.P,C4,1*%
%TO.N,+5V*%
X147400000Y-85598000D03*
%TO.P,C4,2*%
%TO.N,GND*%
X152400000Y-85598000D03*
%TD*%
D12*
%TO.P,U5,1*%
%TO.N,GND*%
X175260000Y-93726000D03*
D10*
%TO.P,U5,2*%
%TO.N,unconnected-(U5-Pad2)*%
X177800000Y-93726000D03*
%TO.P,U5,3*%
%TO.N,Net-(J1-BA00)*%
X180340000Y-93726000D03*
%TO.P,U5,4*%
%TO.N,Net-(U4-Pad12)*%
X182880000Y-93726000D03*
%TO.P,U5,5*%
%TO.N,Net-(U4-Pad1)*%
X185420000Y-93726000D03*
%TO.P,U5,6*%
%TO.N,Net-(U3-E1)*%
X187960000Y-93726000D03*
%TO.P,U5,7,GND*%
%TO.N,GND*%
X190500000Y-93726000D03*
%TO.P,U5,8*%
%TO.N,Net-(R2-Pad2)*%
X190500000Y-86106000D03*
%TO.P,U5,9*%
%TO.N,Net-(C1-Pad2)*%
X187960000Y-86106000D03*
%TO.P,U5,10*%
%TO.N,Net-(C1-Pad1)*%
X185420000Y-86106000D03*
%TO.P,U5,11*%
%TO.N,Net-(R1-Pad1)*%
X182880000Y-86106000D03*
%TO.P,U5,12*%
%TO.N,Net-(U9A-C)*%
X180340000Y-86106000D03*
%TO.P,U5,13*%
%TO.N,Net-(R2-Pad2)*%
X177800000Y-86106000D03*
%TO.P,U5,14,VCC*%
%TO.N,+5V*%
X175260000Y-86106000D03*
%TD*%
%TO.P,C2,1*%
%TO.N,+5V*%
X132160000Y-85598000D03*
%TO.P,C2,2*%
%TO.N,Net-(U11-CapMinus)*%
X137160000Y-85598000D03*
%TD*%
%TO.P,R6,1*%
%TO.N,+5V*%
X177292000Y-63246000D03*
D11*
%TO.P,R6,2*%
%TO.N,Net-(U6-I1)*%
X177292000Y-55626000D03*
%TD*%
D12*
%TO.P,U1,1,A->B*%
%TO.N,Net-(J1-~{IOR})*%
X167640000Y-119380000D03*
D10*
%TO.P,U1,2,A0*%
%TO.N,Net-(J1-DB0)*%
X170180000Y-119380000D03*
%TO.P,U1,3,A1*%
%TO.N,Net-(J1-DB1)*%
X172720000Y-119380000D03*
%TO.P,U1,4,A2*%
%TO.N,Net-(J1-DB2)*%
X175260000Y-119380000D03*
%TO.P,U1,5,A3*%
%TO.N,Net-(J1-DB3)*%
X177800000Y-119380000D03*
%TO.P,U1,6,A4*%
%TO.N,Net-(J1-DB4)*%
X180340000Y-119380000D03*
%TO.P,U1,7,A5*%
%TO.N,Net-(J1-DB5)*%
X182880000Y-119380000D03*
%TO.P,U1,8,A6*%
%TO.N,Net-(J1-DB6)*%
X185420000Y-119380000D03*
%TO.P,U1,9,A7*%
%TO.N,Net-(J1-DB7)*%
X187960000Y-119380000D03*
%TO.P,U1,10,GND*%
%TO.N,GND*%
X190500000Y-119380000D03*
%TO.P,U1,11,B7*%
%TO.N,Net-(U1-B7)*%
X190500000Y-111760000D03*
%TO.P,U1,12,B6*%
%TO.N,Net-(U1-B6)*%
X187960000Y-111760000D03*
%TO.P,U1,13,B5*%
%TO.N,Net-(U1-B5)*%
X185420000Y-111760000D03*
%TO.P,U1,14,B4*%
%TO.N,Net-(U1-B4)*%
X182880000Y-111760000D03*
%TO.P,U1,15,B3*%
%TO.N,Net-(U1-B3)*%
X180340000Y-111760000D03*
%TO.P,U1,16,B2*%
%TO.N,Net-(U1-B2)*%
X177800000Y-111760000D03*
%TO.P,U1,17,B1*%
%TO.N,Net-(U1-B1)*%
X175260000Y-111760000D03*
%TO.P,U1,18,B0*%
%TO.N,Net-(U1-B0)*%
X172720000Y-111760000D03*
%TO.P,U1,19,CE*%
%TO.N,Net-(JP2-C)*%
X170180000Y-111760000D03*
%TO.P,U1,20,VCC*%
%TO.N,+5V*%
X167640000Y-111760000D03*
%TD*%
%TO.P,R4,1*%
%TO.N,Net-(U8-Link1in)*%
X109728000Y-63246000D03*
D11*
%TO.P,R4,2*%
%TO.N,GND*%
X109728000Y-55626000D03*
%TD*%
D12*
%TO.P,U4,1*%
%TO.N,Net-(U4-Pad1)*%
X124460000Y-119375000D03*
D10*
%TO.P,U4,2*%
%TO.N,Net-(J1-AEN)*%
X127000000Y-119375000D03*
%TO.P,U4,3*%
%TO.N,Net-(J1-BA07)*%
X129540000Y-119375000D03*
%TO.P,U4,4*%
%TO.N,unconnected-(U4-Pad4)*%
X132080000Y-119375000D03*
%TO.P,U4,5*%
%TO.N,GND*%
X134620000Y-119375000D03*
%TO.P,U4,6*%
X137160000Y-119375000D03*
%TO.P,U4,7,GND*%
X139700000Y-119375000D03*
%TO.P,U4,8*%
%TO.N,Net-(U3-O2)*%
X139700000Y-111755000D03*
%TO.P,U4,9*%
%TO.N,Net-(J1-BA00)*%
X137160000Y-111755000D03*
%TO.P,U4,10*%
%TO.N,Net-(U7A-C)*%
X134620000Y-111755000D03*
%TO.P,U4,11*%
%TO.N,Net-(U3-O2)*%
X132080000Y-111755000D03*
%TO.P,U4,12*%
%TO.N,Net-(U4-Pad12)*%
X129540000Y-111755000D03*
%TO.P,U4,13*%
%TO.N,Net-(U7B-C)*%
X127000000Y-111755000D03*
%TO.P,U4,14,VCC*%
%TO.N,+5V*%
X124460000Y-111755000D03*
%TD*%
D17*
%TO.P,Y1,1,1*%
%TO.N,Net-(R1-Pad1)*%
X179270000Y-75184000D03*
%TO.P,Y1,2,2*%
%TO.N,Net-(R2-Pad2)*%
X184150000Y-75184000D03*
%TD*%
D10*
%TO.P,R5,1*%
%TO.N,Net-(U8-Link3in)*%
X181610000Y-55626000D03*
D11*
%TO.P,R5,2*%
%TO.N,GND*%
X181610000Y-63246000D03*
%TD*%
D12*
%TO.P,U9,1,~{R}*%
%TO.N,+5V*%
X152400000Y-81280000D03*
D10*
%TO.P,U9,2,D*%
%TO.N,Net-(U9A-D)*%
X154940000Y-81280000D03*
%TO.P,U9,3,C*%
%TO.N,Net-(U9A-C)*%
X157480000Y-81280000D03*
%TO.P,U9,4,~{S}*%
%TO.N,+5V*%
X160020000Y-81280000D03*
%TO.P,U9,5,Q*%
%TO.N,/5 mhz.*%
X162560000Y-81280000D03*
%TO.P,U9,6,~{Q}*%
%TO.N,Net-(U9A-D)*%
X165100000Y-81280000D03*
%TO.P,U9,7,GND*%
%TO.N,GND*%
X167640000Y-81280000D03*
%TO.P,U9,8,~{Q}*%
%TO.N,unconnected-(U9B-~{Q}-Pad8)*%
X167640000Y-73660000D03*
%TO.P,U9,9,Q*%
%TO.N,unconnected-(U9B-Q-Pad9)*%
X165100000Y-73660000D03*
%TO.P,U9,10,~{S}*%
%TO.N,+5V*%
X162560000Y-73660000D03*
%TO.P,U9,11,C*%
X160020000Y-73660000D03*
%TO.P,U9,12,D*%
X157480000Y-73660000D03*
%TO.P,U9,13,~{R}*%
X154940000Y-73660000D03*
%TO.P,U9,14,VCC*%
X152400000Y-73660000D03*
%TD*%
D12*
%TO.P,U11,1,LinkOut*%
%TO.N,Net-(U10-I0a)*%
X134620000Y-104648000D03*
D10*
%TO.P,U11,2,LinkIn*%
%TO.N,Net-(U10-O1a)*%
X137160000Y-104648000D03*
%TO.P,U11,3,RnotW*%
%TO.N,Net-(J1-~{IOW})*%
X139700000Y-104648000D03*
%TO.P,U11,4,OutputInt*%
%TO.N,unconnected-(U11-OutputInt-Pad4)*%
X142240000Y-104648000D03*
%TO.P,U11,5,RS0*%
%TO.N,Net-(J1-BA00)*%
X144780000Y-104648000D03*
%TO.P,U11,6,RS1*%
%TO.N,Net-(J1-BA01)*%
X147320000Y-104648000D03*
%TO.P,U11,7,DoNotWire*%
%TO.N,unconnected-(U11-DoNotWire-Pad7)*%
X149860000Y-104648000D03*
%TO.P,U11,8,D3*%
%TO.N,Net-(U1-B3)*%
X152400000Y-104648000D03*
%TO.P,U11,9,DoNotWire*%
%TO.N,unconnected-(U11-DoNotWire-Pad9)*%
X154940000Y-104648000D03*
%TO.P,U11,10,D5*%
%TO.N,Net-(U1-B5)*%
X157480000Y-104648000D03*
%TO.P,U11,11,HoldToGND*%
%TO.N,GND*%
X160020000Y-104648000D03*
%TO.P,U11,12,D7*%
%TO.N,Net-(U1-B7)*%
X162560000Y-104648000D03*
%TO.P,U11,13,Reset*%
%TO.N,Net-(U11-Reset)*%
X165100000Y-104648000D03*
%TO.P,U11,14,GND*%
%TO.N,GND*%
X167640000Y-104648000D03*
%TO.P,U11,15,ClockIn*%
%TO.N,/5 mhz.*%
X167640000Y-89408000D03*
%TO.P,U11,16,SeparateIQ*%
%TO.N,GND*%
X165100000Y-89408000D03*
%TO.P,U11,17,LinkSpeed*%
%TO.N,Net-(JP1-C)*%
X162560000Y-89408000D03*
%TO.P,U11,18,D6*%
%TO.N,Net-(U1-B6)*%
X160020000Y-89408000D03*
%TO.P,U11,19,DoNotWire*%
%TO.N,unconnected-(U11-DoNotWire-Pad19)*%
X157480000Y-89408000D03*
%TO.P,U11,20,D4*%
%TO.N,Net-(U1-B4)*%
X154940000Y-89408000D03*
%TO.P,U11,21,DoNotWire*%
%TO.N,unconnected-(U11-DoNotWire-Pad21)*%
X152400000Y-89408000D03*
%TO.P,U11,22,D2*%
%TO.N,Net-(U1-B2)*%
X149860000Y-89408000D03*
%TO.P,U11,23,D1*%
%TO.N,Net-(U1-B1)*%
X147320000Y-89408000D03*
%TO.P,U11,24,D0*%
%TO.N,Net-(U1-B0)*%
X144780000Y-89408000D03*
%TO.P,U11,25,notCS*%
%TO.N,Net-(JP2-C)*%
X142240000Y-89408000D03*
%TO.P,U11,26,InputInt*%
%TO.N,unconnected-(U11-InputInt-Pad26)*%
X139700000Y-89408000D03*
%TO.P,U11,27,CapMinus*%
%TO.N,Net-(U11-CapMinus)*%
X137160000Y-89408000D03*
%TO.P,U11,28,VCC*%
%TO.N,+5V*%
X134620000Y-89408000D03*
%TD*%
D12*
%TO.P,U7,1,~{R}*%
%TO.N,+5V*%
X132080000Y-81280000D03*
D10*
%TO.P,U7,2,D*%
%TO.N,Net-(J1-DB0)*%
X134620000Y-81280000D03*
%TO.P,U7,3,C*%
%TO.N,Net-(U7A-C)*%
X137160000Y-81280000D03*
%TO.P,U7,4,~{S}*%
%TO.N,+5V*%
X139700000Y-81280000D03*
%TO.P,U7,5,Q*%
%TO.N,Net-(U11-Reset)*%
X142240000Y-81280000D03*
%TO.P,U7,6,~{Q}*%
%TO.N,unconnected-(U7A-~{Q}-Pad6)*%
X144780000Y-81280000D03*
%TO.P,U7,7,GND*%
%TO.N,GND*%
X147320000Y-81280000D03*
%TO.P,U7,8,~{Q}*%
%TO.N,unconnected-(U7B-~{Q}-Pad8)*%
X147320000Y-73660000D03*
%TO.P,U7,9,Q*%
%TO.N,Net-(U7B-Q)*%
X144780000Y-73660000D03*
%TO.P,U7,10,~{S}*%
%TO.N,+5V*%
X142240000Y-73660000D03*
%TO.P,U7,11,C*%
%TO.N,Net-(U7B-C)*%
X139700000Y-73660000D03*
%TO.P,U7,12,D*%
%TO.N,Net-(J1-DB0)*%
X137160000Y-73660000D03*
%TO.P,U7,13,~{R}*%
%TO.N,+5V*%
X134620000Y-73660000D03*
%TO.P,U7,14,VCC*%
X132080000Y-73660000D03*
%TD*%
%TO.P,C3,1*%
%TO.N,+5V*%
X139780000Y-85598000D03*
%TO.P,C3,2*%
%TO.N,GND*%
X144780000Y-85598000D03*
%TD*%
D18*
%TO.P,J1,32,IO*%
%TO.N,unconnected-(J1-IO-Pad32)*%
X190690000Y-130750000D03*
%TO.P,J1,33,DB7*%
%TO.N,Net-(J1-DB7)*%
X188150000Y-130750000D03*
%TO.P,J1,34,DB6*%
%TO.N,Net-(J1-DB6)*%
X185610000Y-130750000D03*
%TO.P,J1,35,DB5*%
%TO.N,Net-(J1-DB5)*%
X183070000Y-130750000D03*
%TO.P,J1,36,DB4*%
%TO.N,Net-(J1-DB4)*%
X180530000Y-130750000D03*
%TO.P,J1,37,DB3*%
%TO.N,Net-(J1-DB3)*%
X177990000Y-130750000D03*
%TO.P,J1,38,DB2*%
%TO.N,Net-(J1-DB2)*%
X175450000Y-130750000D03*
%TO.P,J1,39,DB1*%
%TO.N,Net-(J1-DB1)*%
X172910000Y-130750000D03*
%TO.P,J1,40,DB0*%
%TO.N,Net-(J1-DB0)*%
X170370000Y-130750000D03*
%TO.P,J1,41,IO_READY*%
%TO.N,unconnected-(J1-IO_READY-Pad41)*%
X167830000Y-130750000D03*
%TO.P,J1,42,AEN*%
%TO.N,Net-(J1-AEN)*%
X165290000Y-130750000D03*
%TO.P,J1,43,BA19*%
%TO.N,unconnected-(J1-BA19-Pad43)*%
X162750000Y-130750000D03*
%TO.P,J1,44,BA18*%
%TO.N,unconnected-(J1-BA18-Pad44)*%
X160210000Y-130750000D03*
%TO.P,J1,45,BA17*%
%TO.N,unconnected-(J1-BA17-Pad45)*%
X157670000Y-130750000D03*
%TO.P,J1,46,BA16*%
%TO.N,unconnected-(J1-BA16-Pad46)*%
X155130000Y-130750000D03*
%TO.P,J1,47,BA15*%
%TO.N,unconnected-(J1-BA15-Pad47)*%
X152590000Y-130750000D03*
%TO.P,J1,48,BA14*%
%TO.N,unconnected-(J1-BA14-Pad48)*%
X150050000Y-130750000D03*
%TO.P,J1,49,BA13*%
%TO.N,unconnected-(J1-BA13-Pad49)*%
X147510000Y-130750000D03*
%TO.P,J1,50,BA12*%
%TO.N,unconnected-(J1-BA12-Pad50)*%
X144970000Y-130750000D03*
%TO.P,J1,51,BA11*%
%TO.N,unconnected-(J1-BA11-Pad51)*%
X142430000Y-130750000D03*
%TO.P,J1,52,BA10*%
%TO.N,unconnected-(J1-BA10-Pad52)*%
X139890000Y-130750000D03*
%TO.P,J1,53,BA09*%
%TO.N,unconnected-(J1-BA09-Pad53)*%
X137350000Y-130750000D03*
%TO.P,J1,54,BA08*%
%TO.N,Net-(J1-BA08)*%
X134810000Y-130750000D03*
%TO.P,J1,55,BA07*%
%TO.N,Net-(J1-BA07)*%
X132270000Y-130750000D03*
%TO.P,J1,56,BA06*%
%TO.N,Net-(J1-BA06)*%
X129730000Y-130750000D03*
%TO.P,J1,57,BA05*%
%TO.N,Net-(J1-BA05)*%
X127190000Y-130750000D03*
%TO.P,J1,58,BA04*%
%TO.N,Net-(J1-BA04)*%
X124650000Y-130750000D03*
%TO.P,J1,59,BA03*%
%TO.N,unconnected-(J1-BA03-Pad59)*%
X122110000Y-130750000D03*
%TO.P,J1,60,BA02*%
%TO.N,unconnected-(J1-BA02-Pad60)*%
X119570000Y-130750000D03*
%TO.P,J1,61,BA01*%
%TO.N,Net-(J1-BA01)*%
X117030000Y-130750000D03*
%TO.P,J1,62,BA00*%
%TO.N,Net-(J1-BA00)*%
X114490000Y-130750000D03*
%TD*%
D19*
%TO.N,Net-(U6-I1)*%
X183971500Y-107939900D03*
%TO.N,Net-(U1-B6)*%
X166075300Y-106085400D03*
%TO.N,Net-(J1-~{IOW})*%
X160481100Y-121998600D03*
%TO.N,Net-(U11-Reset)*%
X166075300Y-62611600D03*
X158881200Y-83583000D03*
%TO.N,Net-(J1-BA00)*%
X136246300Y-113488100D03*
X178873400Y-97558100D03*
X112685500Y-127362000D03*
X112994700Y-112954100D03*
%TO.N,Net-(U10-O1a)*%
X121330200Y-103963000D03*
%TO.N,Net-(U1-B0)*%
X153670100Y-110963800D03*
X151979700Y-94468700D03*
%TO.N,Net-(U10-I0a)*%
X114408000Y-106053500D03*
%TO.N,Net-(JP1-C)*%
X112994700Y-81983800D03*
%TO.N,/5 mhz.*%
X105428800Y-79302200D03*
%TO.N,Net-(U1-B1)*%
X148660400Y-109593100D03*
%TO.N,Net-(U1-B2)*%
X151207100Y-109392200D03*
%TO.N,Net-(U1-B4)*%
X186338200Y-94807800D03*
%TO.N,Net-(JP2-C)*%
X170472800Y-91251500D03*
%TO.N,Net-(J1-~{IOR})*%
X109432900Y-113303500D03*
X159829000Y-117100900D03*
%TO.N,Net-(J1-DB1)*%
X172395800Y-126415200D03*
%TO.N,Net-(J1-DB2)*%
X175157200Y-126415200D03*
%TO.N,Net-(J1-DB7)*%
X187473000Y-126415200D03*
%TO.N,Net-(J1-DB4)*%
X180458700Y-126415200D03*
%TO.N,Net-(U3-O6)*%
X168981200Y-113150500D03*
%TO.N,Net-(U3-O5)*%
X115366000Y-115175900D03*
%TO.N,Net-(U3-E1)*%
X154702600Y-96978300D03*
%TO.N,Net-(J1-BA06)*%
X134245200Y-120736400D03*
X133263400Y-125433400D03*
%TO.N,Net-(J1-BA08)*%
X141491800Y-120657100D03*
X141674800Y-125453100D03*
%TO.N,Net-(U4-Pad12)*%
X131172400Y-103025600D03*
%TO.N,Net-(J1-BA07)*%
X131380800Y-126015100D03*
%TO.N,Net-(U4-Pad1)*%
X126353100Y-106823500D03*
%TO.N,Net-(J1-DB0)*%
X157126600Y-84000800D03*
%TD*%
D20*
%TO.N,Net-(C1-Pad1)*%
X182118000Y-82804000D02*
X185420000Y-86106000D01*
X179364000Y-82804000D02*
X182118000Y-82804000D01*
X179364000Y-82804000D02*
X173228000Y-82804000D01*
%TO.N,Net-(R1-Pad1)*%
X179270000Y-75184000D02*
X173228000Y-75184000D01*
%TO.N,Net-(R2-Pad2)*%
X177800000Y-86106000D02*
X178911100Y-87217100D01*
X184150000Y-75184000D02*
X190246000Y-75184000D01*
X178911100Y-87217100D02*
X189388900Y-87217100D01*
X189388900Y-87217100D02*
X190500000Y-86106000D01*
%TO.N,Net-(C1-Pad2)*%
X190246000Y-82804000D02*
X184364000Y-82804000D01*
D21*
%TO.N,GND*%
X134620000Y-119375000D02*
X134543600Y-119375000D01*
X153978800Y-87176800D02*
X163775200Y-87176800D01*
X113063100Y-74963100D02*
X116840000Y-74963100D01*
X116840000Y-74963100D02*
X116840000Y-73660000D01*
X185420000Y-106421000D02*
X184158600Y-105159600D01*
X165100000Y-85852000D02*
X169632000Y-85852000D01*
X146059800Y-80019800D02*
X147320000Y-81280000D01*
X181601400Y-105159600D02*
X180340000Y-106421000D01*
X127000000Y-81280000D02*
X128260200Y-80019800D01*
X136955400Y-119375000D02*
X139700000Y-119375000D01*
X136955400Y-119375000D02*
X134620000Y-119375000D01*
X121920000Y-74963100D02*
X125696900Y-74963100D01*
X161272700Y-103395300D02*
X160020000Y-104648000D01*
X144780000Y-85598000D02*
X146056400Y-86874400D01*
X152400000Y-85598000D02*
X153978800Y-87176800D01*
X116840000Y-74963100D02*
X121920000Y-74963100D01*
X111760000Y-73660000D02*
X113063100Y-74963100D01*
X120660300Y-120655300D02*
X119380000Y-119375000D01*
X137160000Y-119375000D02*
X136955400Y-119375000D01*
X114300000Y-55626000D02*
X109728000Y-55626000D01*
X128260200Y-80019800D02*
X146059800Y-80019800D01*
X167640000Y-104648000D02*
X166387300Y-103395300D01*
X180340000Y-106421000D02*
X178567000Y-104648000D01*
X151123600Y-86874400D02*
X152400000Y-85598000D01*
X134543600Y-119375000D02*
X133263300Y-120655300D01*
X146056400Y-86874400D02*
X151123600Y-86874400D01*
X163775200Y-87176800D02*
X165100000Y-85852000D01*
X125696900Y-74963100D02*
X127000000Y-73660000D01*
X178567000Y-104648000D02*
X167640000Y-104648000D01*
X169632000Y-85852000D02*
X171196000Y-87416000D01*
X133263300Y-120655300D02*
X120660300Y-120655300D01*
X121920000Y-74963100D02*
X121920000Y-73660000D01*
X166387300Y-103395300D02*
X161272700Y-103395300D01*
X184158600Y-105159600D02*
X181601400Y-105159600D01*
D20*
%TO.N,Net-(U6-I1)*%
X178393700Y-55626000D02*
X181187700Y-58420000D01*
X181187700Y-58420000D02*
X187960000Y-58420000D01*
X177292000Y-55626000D02*
X178393700Y-55626000D01*
X183971500Y-107939900D02*
X183968300Y-107943100D01*
X176782100Y-107943100D02*
X175260000Y-106421000D01*
X183968300Y-107943100D02*
X176782100Y-107943100D01*
D21*
%TO.N,+5V*%
X171196000Y-92416000D02*
X175260000Y-88352000D01*
X162560000Y-73660000D02*
X160020000Y-73660000D01*
X160470000Y-82330200D02*
X161340600Y-83200800D01*
X175260000Y-98801000D02*
X172720000Y-98801000D01*
X136525000Y-87503000D02*
X137875000Y-87503000D01*
X143528700Y-74948700D02*
X151111300Y-74948700D01*
X134620000Y-89408000D02*
X136525000Y-87503000D01*
X157480000Y-73660000D02*
X154940000Y-73660000D01*
X169173200Y-83200800D02*
X172078400Y-86106000D01*
X153700600Y-82580600D02*
X160219600Y-82580600D01*
X160470000Y-81730000D02*
X160470000Y-82330200D01*
X137875000Y-87503000D02*
X139780000Y-85598000D01*
X151111300Y-74948700D02*
X152400000Y-73660000D01*
X143073800Y-110048800D02*
X144780000Y-111755000D01*
X152400000Y-81280000D02*
X153700600Y-82580600D01*
X172078400Y-86106000D02*
X175260000Y-86106000D01*
X126166200Y-110048800D02*
X143073800Y-110048800D01*
X154940000Y-73660000D02*
X152400000Y-73660000D01*
X104140000Y-111755000D02*
X105402700Y-110492300D01*
X161340600Y-83200800D02*
X169173200Y-83200800D01*
X123197300Y-110492300D02*
X124460000Y-111755000D01*
X160219600Y-82580600D02*
X160470000Y-82330200D01*
X142240000Y-73660000D02*
X143528700Y-74948700D01*
X124460000Y-111755000D02*
X126166200Y-110048800D01*
X104140000Y-73660000D02*
X106680000Y-73660000D01*
X160020000Y-81280000D02*
X160470000Y-81730000D01*
X175260000Y-88352000D02*
X175260000Y-86106000D01*
X157480000Y-73660000D02*
X160020000Y-73660000D01*
X132080000Y-73660000D02*
X134620000Y-73660000D01*
X105402700Y-110492300D02*
X123197300Y-110492300D01*
D20*
%TO.N,Net-(U1-B6)*%
X168534700Y-108544800D02*
X184744800Y-108544800D01*
X166075300Y-106085400D02*
X168534700Y-108544800D01*
X184744800Y-108544800D02*
X187960000Y-111760000D01*
%TO.N,Net-(U1-B3)*%
X178028200Y-109448200D02*
X180340000Y-111760000D01*
X152400000Y-104648000D02*
X157200200Y-109448200D01*
X157200200Y-109448200D02*
X178028200Y-109448200D01*
%TO.N,Net-(J1-~{IOW})*%
X102604500Y-117839500D02*
X102604500Y-111099800D01*
X102604500Y-111099800D02*
X104405700Y-109298600D01*
X152483600Y-121998600D02*
X149860000Y-119375000D01*
X104405700Y-109298600D02*
X114999300Y-109298600D01*
X136922800Y-107425200D02*
X139700000Y-104648000D01*
X114999300Y-109298600D02*
X116872700Y-107425200D01*
X160481100Y-121998600D02*
X152483600Y-121998600D01*
X116872700Y-107425200D02*
X136922800Y-107425200D01*
X104140000Y-119375000D02*
X102604500Y-117839500D01*
%TO.N,Net-(U11-Reset)*%
X167726900Y-60960000D02*
X187960000Y-60960000D01*
X158881200Y-83583000D02*
X158479500Y-83181300D01*
X144141300Y-83181300D02*
X142240000Y-81280000D01*
X158479500Y-83181300D02*
X144141300Y-83181300D01*
X166075300Y-62611600D02*
X167726900Y-60960000D01*
%TO.N,Net-(J1-BA00)*%
X151848000Y-97580000D02*
X178851500Y-97580000D01*
X178851500Y-97580000D02*
X178873400Y-97558100D01*
X144780000Y-104648000D02*
X151848000Y-97580000D01*
X136246300Y-113488100D02*
X113528700Y-113488100D01*
X112685500Y-127362000D02*
X114490000Y-129166500D01*
X114490000Y-129166500D02*
X114490000Y-130750000D01*
X113528700Y-113488100D02*
X112994700Y-112954100D01*
%TO.N,Net-(J1-BA01)*%
X103013400Y-111297100D02*
X104410200Y-109900300D01*
X107950100Y-117365100D02*
X103013400Y-112428400D01*
X117030000Y-126638300D02*
X114869500Y-126638300D01*
X104410200Y-109900300D02*
X119211000Y-109900300D01*
X121105100Y-108006200D02*
X143961800Y-108006200D01*
X119211000Y-109900300D02*
X121105100Y-108006200D01*
X103013400Y-112428400D02*
X103013400Y-111297100D01*
X114869500Y-126638300D02*
X107950100Y-119718900D01*
X117030000Y-130750000D02*
X117030000Y-126638300D01*
X143961800Y-108006200D02*
X147320000Y-104648000D01*
X107950100Y-119718900D02*
X107950100Y-117365100D01*
%TO.N,Net-(U10-O1a)*%
X136046100Y-103534100D02*
X137160000Y-104648000D01*
X121330200Y-103963000D02*
X121759100Y-103534100D01*
X131421600Y-103627300D02*
X131514800Y-103534100D01*
X130923300Y-103627300D02*
X131421600Y-103627300D01*
X130830100Y-103534100D02*
X130923300Y-103627300D01*
X131514800Y-103534100D02*
X136046100Y-103534100D01*
X121759100Y-103534100D02*
X130830100Y-103534100D01*
%TO.N,Net-(U1-B0)*%
X171613300Y-110653300D02*
X172720000Y-111760000D01*
X149840700Y-94468700D02*
X151979700Y-94468700D01*
X144780000Y-89408000D02*
X149840700Y-94468700D01*
X153670100Y-110963800D02*
X153980600Y-110653300D01*
X153980600Y-110653300D02*
X171613300Y-110653300D01*
%TO.N,Net-(U1-B7)*%
X186383100Y-107643100D02*
X184525600Y-107643100D01*
X165826200Y-105483700D02*
X165560200Y-105749700D01*
X190500000Y-111760000D02*
X186383100Y-107643100D01*
X183722400Y-107338200D02*
X183519200Y-107541400D01*
X168625700Y-105288600D02*
X168164600Y-105749700D01*
X168164600Y-105749700D02*
X166590500Y-105749700D01*
X166590500Y-105749700D02*
X166324500Y-105483700D01*
X163661700Y-105749700D02*
X162560000Y-104648000D01*
X179895500Y-107541400D02*
X179070000Y-106715900D01*
X183519200Y-107541400D02*
X179895500Y-107541400D01*
X179070000Y-106105500D02*
X178253100Y-105288600D01*
X166324500Y-105483700D02*
X165826200Y-105483700D01*
X178253100Y-105288600D02*
X168625700Y-105288600D01*
X184220700Y-107338200D02*
X183722400Y-107338200D01*
X184525600Y-107643100D02*
X184220700Y-107338200D01*
X165560200Y-105749700D02*
X163661700Y-105749700D01*
X179070000Y-106715900D02*
X179070000Y-106105500D01*
%TO.N,Net-(U10-I0a)*%
X133214500Y-106053500D02*
X114408000Y-106053500D01*
X134620000Y-104648000D02*
X133214500Y-106053500D01*
%TO.N,Net-(JP1-C)*%
X162560000Y-85852000D02*
X161310500Y-84602500D01*
X156693700Y-84418700D02*
X141048000Y-84418700D01*
X115027900Y-84017000D02*
X112994700Y-81983800D01*
X161310500Y-84602500D02*
X156877500Y-84602500D01*
X140646300Y-84017000D02*
X115027900Y-84017000D01*
X141048000Y-84418700D02*
X140646300Y-84017000D01*
X156877500Y-84602500D02*
X156693700Y-84418700D01*
%TO.N,Net-(U1-B5)*%
X184289000Y-112891000D02*
X182395900Y-112891000D01*
X181441700Y-111936800D02*
X181441700Y-111286600D01*
X182395900Y-112891000D02*
X181441700Y-111936800D01*
X179201600Y-109046500D02*
X161878500Y-109046500D01*
X185420000Y-111760000D02*
X184289000Y-112891000D01*
X161878500Y-109046500D02*
X157480000Y-104648000D01*
X181441700Y-111286600D02*
X179201600Y-109046500D01*
%TO.N,/5 mhz.*%
X143620900Y-87862800D02*
X166094800Y-87862800D01*
X105428800Y-81650000D02*
X108197500Y-84418700D01*
X140176800Y-84418700D02*
X143620900Y-87862800D01*
X108197500Y-84418700D02*
X140176800Y-84418700D01*
X166094800Y-87862800D02*
X167640000Y-89408000D01*
X105428800Y-79302200D02*
X105428800Y-81650000D01*
%TO.N,Net-(U1-B1)*%
X153503800Y-110251600D02*
X153268400Y-110487000D01*
X153268400Y-110487000D02*
X153268400Y-110514700D01*
X173751600Y-110251600D02*
X153503800Y-110251600D01*
X149258000Y-110190700D02*
X148660400Y-109593100D01*
X175260000Y-111760000D02*
X173751600Y-110251600D01*
X151194100Y-110190700D02*
X149258000Y-110190700D01*
X153268400Y-110514700D02*
X153129800Y-110653300D01*
X153129800Y-110653300D02*
X151656700Y-110653300D01*
X151656700Y-110653300D02*
X151194100Y-110190700D01*
%TO.N,Net-(U1-B2)*%
X151974200Y-110159300D02*
X151207100Y-109392200D01*
X153337500Y-109849900D02*
X153102100Y-110085300D01*
X177800000Y-111760000D02*
X175889900Y-109849900D01*
X153102100Y-110085300D02*
X153028100Y-110159300D01*
X175889900Y-109849900D02*
X153337500Y-109849900D01*
X153102100Y-110085300D02*
X153028100Y-110159300D01*
X153028100Y-110159300D02*
X151974200Y-110159300D01*
%TO.N,Net-(U1-B4)*%
X185929200Y-92598800D02*
X186831600Y-93501200D01*
X173844800Y-92598800D02*
X185929200Y-92598800D01*
X186831600Y-94314400D02*
X186338200Y-94807800D01*
X172913200Y-93530400D02*
X173844800Y-92598800D01*
X159062400Y-93530400D02*
X172913200Y-93530400D01*
X186831600Y-93501200D02*
X186831600Y-94314400D01*
X154940000Y-89408000D02*
X159062400Y-93530400D01*
%TO.N,Net-(U10-O0a)*%
X187960000Y-53340000D02*
X129540000Y-53340000D01*
X129540000Y-53340000D02*
X109220000Y-73660000D01*
%TO.N,Net-(U10-I1a)*%
X113029000Y-80011000D02*
X123599200Y-80011000D01*
X123599200Y-80011000D02*
X144007800Y-59602400D01*
X188694200Y-59602400D02*
X189243700Y-59052900D01*
X189243700Y-57163700D02*
X187960000Y-55880000D01*
X189243700Y-59052900D02*
X189243700Y-57163700D01*
X144007800Y-59602400D02*
X188694200Y-59602400D01*
X111760000Y-81280000D02*
X113029000Y-80011000D01*
%TO.N,Net-(JP2-C)*%
X158750100Y-89735500D02*
X158750100Y-89065300D01*
X117072500Y-102538100D02*
X111760000Y-107850600D01*
X143383500Y-88264500D02*
X142240000Y-89408000D01*
X160264600Y-91250000D02*
X158750100Y-89735500D01*
X165223100Y-91251500D02*
X165221600Y-91250000D01*
X165221600Y-91250000D02*
X160264600Y-91250000D01*
X142240000Y-89408000D02*
X129109900Y-102538100D01*
X158750100Y-89065300D02*
X157949300Y-88264500D01*
X129109900Y-102538100D02*
X117072500Y-102538100D01*
X111760000Y-107850600D02*
X111760000Y-107950000D01*
X157949300Y-88264500D02*
X143383500Y-88264500D01*
X170472800Y-91251500D02*
X165223100Y-91251500D01*
%TO.N,Net-(J1-~{IOR})*%
X112368500Y-116239100D02*
X109432900Y-113303500D01*
X165360900Y-117100900D02*
X167640000Y-119380000D01*
X159829000Y-117100900D02*
X165360900Y-117100900D01*
X158967200Y-116239100D02*
X112368500Y-116239100D01*
X159829000Y-117100900D02*
X158967200Y-116239100D01*
%TO.N,Net-(J1-DB1)*%
X172618900Y-126638300D02*
X172395800Y-126415200D01*
X172910000Y-130750000D02*
X172910000Y-126638300D01*
X172910000Y-126638300D02*
X172618900Y-126638300D01*
%TO.N,Net-(J1-DB6)*%
X185610000Y-130750000D02*
X185610000Y-126638300D01*
X185420000Y-119380000D02*
X185420000Y-126448300D01*
X185420000Y-126448300D02*
X185610000Y-126638300D01*
%TO.N,Net-(J1-DB5)*%
X182880000Y-126448300D02*
X183070000Y-126638300D01*
X182880000Y-119380000D02*
X182880000Y-126448300D01*
X183070000Y-130750000D02*
X183070000Y-126638300D01*
%TO.N,Net-(J1-DB2)*%
X175450000Y-126638300D02*
X175380300Y-126638300D01*
X175450000Y-130750000D02*
X175450000Y-126638300D01*
X175380300Y-126638300D02*
X175157200Y-126415200D01*
%TO.N,Net-(J1-DB3)*%
X177990000Y-119570000D02*
X177990000Y-130750000D01*
X177800000Y-119380000D02*
X177990000Y-119570000D01*
%TO.N,Net-(J1-DB7)*%
X187696100Y-126638300D02*
X187473000Y-126415200D01*
X188150000Y-126638300D02*
X187696100Y-126638300D01*
X188150000Y-130750000D02*
X188150000Y-126638300D01*
%TO.N,Net-(J1-DB4)*%
X180458700Y-126567000D02*
X180458700Y-126415200D01*
X180530000Y-130750000D02*
X180530000Y-126638300D01*
X180530000Y-126638300D02*
X180458700Y-126567000D01*
%TO.N,Net-(U3-O6)*%
X163955500Y-113150500D02*
X162560000Y-111755000D01*
X168981200Y-113150500D02*
X163955500Y-113150500D01*
%TO.N,Net-(J1-BA05)*%
X147320000Y-119375000D02*
X143023100Y-123671900D01*
X128885500Y-126638300D02*
X127190000Y-126638300D01*
X131851900Y-123671900D02*
X128885500Y-126638300D01*
X143023100Y-123671900D02*
X131851900Y-123671900D01*
X127190000Y-130750000D02*
X127190000Y-126638300D01*
%TO.N,Net-(U3-O5)*%
X115366000Y-115175900D02*
X156599100Y-115175900D01*
X156599100Y-115175900D02*
X160020000Y-111755000D01*
%TO.N,Net-(U3-E3)*%
X130277400Y-117642900D02*
X130075900Y-117844400D01*
X130930600Y-117678100D02*
X130787900Y-117820800D01*
X130787900Y-117820800D02*
X130610000Y-117642900D01*
X128238100Y-118079800D02*
X128073300Y-118244600D01*
X117970400Y-118244600D02*
X116840000Y-119375000D01*
X130930600Y-117678100D02*
X152293100Y-117678100D01*
X128238100Y-118079800D02*
X128073300Y-118244600D01*
X154501800Y-120513800D02*
X156341200Y-120513800D01*
X152293100Y-117678100D02*
X153501700Y-118886700D01*
X128473500Y-117844400D02*
X128238100Y-118079800D01*
X153501700Y-118886700D02*
X153501700Y-119513700D01*
X128073300Y-118244600D02*
X117970400Y-118244600D01*
X130930600Y-117678100D02*
X130787900Y-117820800D01*
X153501700Y-119513700D02*
X154501800Y-120513800D01*
X130075900Y-117844400D02*
X128473500Y-117844400D01*
X156341200Y-120513800D02*
X157480000Y-119375000D01*
X130610000Y-117642900D02*
X130277400Y-117642900D01*
%TO.N,Net-(U3-O2)*%
X152400000Y-111755000D02*
X151988800Y-111755000D01*
X147769700Y-112863400D02*
X140808400Y-112863400D01*
X133215200Y-110619800D02*
X138564800Y-110619800D01*
X148421700Y-112211400D02*
X147769700Y-112863400D01*
X151988800Y-111755000D02*
X150887100Y-110653300D01*
X150887100Y-110653300D02*
X149398100Y-110653300D01*
X132080000Y-111755000D02*
X133215200Y-110619800D01*
X138564800Y-110619800D02*
X139700000Y-111755000D01*
X149398100Y-110653300D02*
X148421700Y-111629700D01*
X140808400Y-112863400D02*
X139700000Y-111755000D01*
X148421700Y-111629700D02*
X148421700Y-112211400D01*
%TO.N,Net-(U3-O3)*%
X136874100Y-113711200D02*
X136874100Y-113711100D01*
X136874100Y-113711100D02*
X152983900Y-113711100D01*
X109220000Y-111755000D02*
X111577800Y-114112800D01*
X152983900Y-113711100D02*
X154940000Y-111755000D01*
X136472500Y-114112800D02*
X136874100Y-113711200D01*
X111577800Y-114112800D02*
X136472500Y-114112800D01*
%TO.N,Net-(U3-E2)*%
X128071800Y-117678100D02*
X128508700Y-117241200D01*
X152806200Y-117241200D02*
X154940000Y-119375000D01*
X127911400Y-117838500D02*
X112845900Y-117838500D01*
X128508700Y-117241200D02*
X152806200Y-117241200D01*
X112681100Y-118003300D02*
X112845900Y-117838500D01*
X112681100Y-118003300D02*
X112845900Y-117838500D01*
X128071800Y-117678100D02*
X127911400Y-117838500D01*
X112681100Y-118003300D02*
X110591700Y-118003300D01*
X110591700Y-118003300D02*
X109220000Y-119375000D01*
X128071800Y-117678100D02*
X127911400Y-117838500D01*
%TO.N,Net-(J1-BA04)*%
X144780000Y-119375000D02*
X140926100Y-123228900D01*
X126458100Y-124830200D02*
X124650000Y-126638300D01*
X140926100Y-123228900D02*
X131526700Y-123228900D01*
X130090200Y-124665400D02*
X129925400Y-124830200D01*
X129925400Y-124830200D02*
X126458100Y-124830200D01*
X131526700Y-123228900D02*
X130090200Y-124665400D01*
X130090200Y-124665400D02*
X129925400Y-124830200D01*
X124650000Y-130750000D02*
X124650000Y-126638300D01*
%TO.N,Net-(U3-O1)*%
X136874200Y-113265100D02*
X136495500Y-112886400D01*
X148349900Y-113265100D02*
X136874200Y-113265100D01*
X149860000Y-111755000D02*
X148349900Y-113265100D01*
X117971400Y-112886400D02*
X116840000Y-111755000D01*
X136495500Y-112886400D02*
X117971400Y-112886400D01*
%TO.N,Net-(U3-E1)*%
X186587400Y-95409500D02*
X186939900Y-95057000D01*
X155082500Y-96598400D02*
X185087600Y-96598400D01*
X187233300Y-94480700D02*
X187233300Y-94452700D01*
X186939900Y-95057000D02*
X186939900Y-94774100D01*
X187233300Y-94452700D02*
X187960000Y-93726000D01*
X154702600Y-96978300D02*
X155082500Y-96598400D01*
X186276500Y-95409500D02*
X186587400Y-95409500D01*
X186939900Y-94774100D02*
X187233300Y-94480700D01*
X185087600Y-96598400D02*
X186276500Y-95409500D01*
%TO.N,Net-(U9A-D)*%
X163587200Y-79767200D02*
X156452800Y-79767200D01*
X156452800Y-79767200D02*
X154940000Y-81280000D01*
X165100000Y-81280000D02*
X163587200Y-79767200D01*
%TO.N,Net-(U9A-C)*%
X178916100Y-84682100D02*
X180340000Y-86106000D01*
X161458300Y-81746500D02*
X162147000Y-82435200D01*
X161458300Y-81112500D02*
X161458300Y-81746500D01*
X157480000Y-81280000D02*
X158591100Y-80168900D01*
X158591100Y-80168900D02*
X160514700Y-80168900D01*
X170617500Y-82435200D02*
X172864400Y-84682100D01*
X172864400Y-84682100D02*
X178916100Y-84682100D01*
X160514700Y-80168900D02*
X161458300Y-81112500D01*
X162147000Y-82435200D02*
X170617500Y-82435200D01*
%TO.N,Net-(U7B-Q)*%
X147243300Y-71196700D02*
X180263300Y-71196700D01*
X144780000Y-73660000D02*
X147243300Y-71196700D01*
X180263300Y-71196700D02*
X187960000Y-63500000D01*
%TO.N,Net-(U3-O7)*%
X157285800Y-116640800D02*
X160020000Y-119375000D01*
X111565800Y-116640800D02*
X157285800Y-116640800D01*
X106680000Y-111755000D02*
X111565800Y-116640800D01*
%TO.N,Net-(J1-BA06)*%
X133175700Y-125345700D02*
X131022600Y-125345700D01*
X129730000Y-130750000D02*
X129730000Y-126638300D01*
X116176800Y-121251800D02*
X114300000Y-119375000D01*
X133729800Y-121251800D02*
X116176800Y-121251800D01*
X131022600Y-125345700D02*
X129730000Y-126638300D01*
X133263400Y-125433400D02*
X133175700Y-125345700D01*
X134245200Y-120736400D02*
X133729800Y-121251800D01*
%TO.N,Net-(J1-BA08)*%
X140489600Y-126638300D02*
X134810000Y-126638300D01*
X134810000Y-130750000D02*
X134810000Y-126638300D01*
X111760000Y-119375000D02*
X114038500Y-121653500D01*
X140495400Y-121653500D02*
X141491800Y-120657100D01*
X141674800Y-125453100D02*
X140489600Y-126638300D01*
X114038500Y-121653500D02*
X140495400Y-121653500D01*
%TO.N,Net-(J1-AEN)*%
X127000000Y-119375000D02*
X127711100Y-119375000D01*
X165290000Y-130750000D02*
X165290000Y-126638300D01*
X155509100Y-126638300D02*
X165290000Y-126638300D01*
X130402400Y-118085900D02*
X130485000Y-118085900D01*
X130485000Y-118085900D02*
X130643600Y-118244500D01*
X130643600Y-118244500D02*
X147747700Y-118244500D01*
X148590100Y-119719300D02*
X155509100Y-126638300D01*
X148590100Y-119086900D02*
X148590100Y-119719300D01*
X130242200Y-118246100D02*
X130402400Y-118085900D01*
X127711100Y-119375000D02*
X128840000Y-118246100D01*
X128840000Y-118246100D02*
X130242200Y-118246100D01*
X147747700Y-118244500D02*
X148590100Y-119086900D01*
%TO.N,Net-(U4-Pad12)*%
X182880000Y-93726000D02*
X181083800Y-95522200D01*
X181083800Y-95522200D02*
X138675800Y-95522200D01*
X138675800Y-95522200D02*
X131172400Y-103025600D01*
%TO.N,Net-(J1-BA07)*%
X131646800Y-126015100D02*
X131380800Y-126015100D01*
X132270000Y-126638300D02*
X131646800Y-126015100D01*
X132270000Y-130750000D02*
X132270000Y-126638300D01*
%TO.N,Net-(U4-Pad1)*%
X146783000Y-95996800D02*
X138261700Y-104518100D01*
X185420000Y-93726000D02*
X183149200Y-95996800D01*
X138261700Y-105139600D02*
X136577800Y-106823500D01*
X138261700Y-104518100D02*
X138261700Y-105139600D01*
X136577800Y-106823500D02*
X126353100Y-106823500D01*
X183149200Y-95996800D02*
X146783000Y-95996800D01*
%TO.N,Net-(J1-DB0)*%
X157126600Y-84000800D02*
X156741100Y-83615300D01*
X136955300Y-83615300D02*
X134620000Y-81280000D01*
X156741100Y-83615300D02*
X136955300Y-83615300D01*
X170370000Y-119570000D02*
X170370000Y-130750000D01*
X170180000Y-119380000D02*
X170370000Y-119570000D01*
%TD*%
M02*
