%TF.GenerationSoftware,KiCad,Pcbnew,9.0.1*%
%TF.CreationDate,2025-07-02T19:30:22-06:00*%
%TF.ProjectId,transputer,7472616e-7370-4757-9465-722e6b696361,rev?*%
%TF.SameCoordinates,Original*%
%TF.FileFunction,Soldermask,Top*%
%TF.FilePolarity,Negative*%
%FSLAX46Y46*%
G04 Gerber Fmt 4.6, Leading zero omitted, Abs format (unit mm)*
G04 Created by KiCad (PCBNEW 9.0.1) date 2025-07-02 19:30:22*
%MOMM*%
%LPD*%
G01*
G04 APERTURE LIST*
G04 Aperture macros list*
%AMRoundRect*
0 Rectangle with rounded corners*
0 $1 Rounding radius*
0 $2 $3 $4 $5 $6 $7 $8 $9 X,Y pos of 4 corners*
0 Add a 4 corners polygon primitive as box body*
4,1,4,$2,$3,$4,$5,$6,$7,$8,$9,$2,$3,0*
0 Add four circle primitives for the rounded corners*
1,1,$1+$1,$2,$3*
1,1,$1+$1,$4,$5*
1,1,$1+$1,$6,$7*
1,1,$1+$1,$8,$9*
0 Add four rect primitives between the rounded corners*
20,1,$1+$1,$2,$3,$4,$5,0*
20,1,$1+$1,$4,$5,$6,$7,0*
20,1,$1+$1,$6,$7,$8,$9,0*
20,1,$1+$1,$8,$9,$2,$3,0*%
G04 Aperture macros list end*
%ADD10C,1.600000*%
%ADD11O,1.600000X1.600000*%
%ADD12RoundRect,0.250000X0.550000X-0.550000X0.550000X0.550000X-0.550000X0.550000X-0.550000X-0.550000X0*%
%ADD13RoundRect,0.190500X-0.762000X-0.444500X0.762000X-0.444500X0.762000X0.444500X-0.762000X0.444500X0*%
%ADD14R,1.700000X1.700000*%
%ADD15C,1.700000*%
%ADD16R,1.600000X1.600000*%
%ADD17C,1.500000*%
%ADD18R,1.778000X7.620000*%
G04 APERTURE END LIST*
D10*
%TO.C,R2*%
X190246000Y-82804000D03*
D11*
X190246000Y-75184000D03*
%TD*%
D10*
%TO.C,C1*%
X179364000Y-82804000D03*
X184364000Y-82804000D03*
%TD*%
D12*
%TO.C,U3*%
X144780000Y-119375000D03*
D10*
X147320000Y-119375000D03*
X149860000Y-119375000D03*
X152400000Y-119375000D03*
X154940000Y-119375000D03*
X157480000Y-119375000D03*
X160020000Y-119375000D03*
X162560000Y-119375000D03*
X162560000Y-111755000D03*
X160020000Y-111755000D03*
X157480000Y-111755000D03*
X154940000Y-111755000D03*
X152400000Y-111755000D03*
X149860000Y-111755000D03*
X147320000Y-111755000D03*
X144780000Y-111755000D03*
%TD*%
D13*
%TO.C,U8*%
X104140000Y-45720000D03*
X104140000Y-48260000D03*
X104140000Y-50800000D03*
X104140000Y-53340000D03*
X104140000Y-55880000D03*
X104140000Y-58420000D03*
X104140000Y-60960000D03*
X104140000Y-63500000D03*
X187960000Y-63500000D03*
X187960000Y-60960000D03*
X187960000Y-58420000D03*
X187960000Y-55880000D03*
X187960000Y-53340000D03*
X187960000Y-50800000D03*
X187960000Y-48260000D03*
X187960000Y-45720000D03*
%TD*%
D14*
%TO.C,JP2*%
X109220000Y-107950000D03*
D15*
X111760000Y-107950000D03*
X114300000Y-107950000D03*
%TD*%
D12*
%TO.C,U6*%
X172720000Y-106421000D03*
D10*
X175260000Y-106421000D03*
X177800000Y-106421000D03*
X180340000Y-106421000D03*
X182880000Y-106421000D03*
X185420000Y-106421000D03*
X187960000Y-106421000D03*
X190500000Y-106421000D03*
X190500000Y-98801000D03*
X187960000Y-98801000D03*
X185420000Y-98801000D03*
X182880000Y-98801000D03*
X180340000Y-98801000D03*
X177800000Y-98801000D03*
X175260000Y-98801000D03*
X172720000Y-98801000D03*
%TD*%
%TO.C,R3*%
X114300000Y-63246000D03*
D11*
X114300000Y-55626000D03*
%TD*%
D12*
%TO.C,U10*%
X104140000Y-81280000D03*
D10*
X106680000Y-81280000D03*
X109220000Y-81280000D03*
X111760000Y-81280000D03*
X114300000Y-81280000D03*
X116840000Y-81280000D03*
X119380000Y-81280000D03*
X121920000Y-81280000D03*
X124460000Y-81280000D03*
X127000000Y-81280000D03*
X127000000Y-73660000D03*
X124460000Y-73660000D03*
X121920000Y-73660000D03*
X119380000Y-73660000D03*
X116840000Y-73660000D03*
X114300000Y-73660000D03*
X111760000Y-73660000D03*
X109220000Y-73660000D03*
X106680000Y-73660000D03*
X104140000Y-73660000D03*
%TD*%
%TO.C,R1*%
X173228000Y-75184000D03*
D11*
X173228000Y-82804000D03*
%TD*%
D14*
%TO.C,JP1*%
X160020000Y-85852000D03*
D15*
X162560000Y-85852000D03*
X165100000Y-85852000D03*
%TD*%
D12*
%TO.C,U2*%
X104140000Y-119375000D03*
D10*
X106680000Y-119375000D03*
X109220000Y-119375000D03*
X111760000Y-119375000D03*
X114300000Y-119375000D03*
X116840000Y-119375000D03*
X119380000Y-119375000D03*
X119380000Y-111755000D03*
X116840000Y-111755000D03*
X114300000Y-111755000D03*
X111760000Y-111755000D03*
X109220000Y-111755000D03*
X106680000Y-111755000D03*
X104140000Y-111755000D03*
%TD*%
%TO.C,C5*%
X171150000Y-92416000D03*
X171150000Y-87416000D03*
%TD*%
D16*
%TO.C,C6*%
X124460000Y-104648000D03*
D10*
X126960000Y-104648000D03*
%TD*%
%TO.C,C4*%
X147400000Y-85598000D03*
X152400000Y-85598000D03*
%TD*%
D12*
%TO.C,U5*%
X175260000Y-93726000D03*
D10*
X177800000Y-93726000D03*
X180340000Y-93726000D03*
X182880000Y-93726000D03*
X185420000Y-93726000D03*
X187960000Y-93726000D03*
X190500000Y-93726000D03*
X190500000Y-86106000D03*
X187960000Y-86106000D03*
X185420000Y-86106000D03*
X182880000Y-86106000D03*
X180340000Y-86106000D03*
X177800000Y-86106000D03*
X175260000Y-86106000D03*
%TD*%
%TO.C,C2*%
X132160000Y-85598000D03*
X137160000Y-85598000D03*
%TD*%
%TO.C,R6*%
X177292000Y-63246000D03*
D11*
X177292000Y-55626000D03*
%TD*%
D12*
%TO.C,U1*%
X167640000Y-119380000D03*
D10*
X170180000Y-119380000D03*
X172720000Y-119380000D03*
X175260000Y-119380000D03*
X177800000Y-119380000D03*
X180340000Y-119380000D03*
X182880000Y-119380000D03*
X185420000Y-119380000D03*
X187960000Y-119380000D03*
X190500000Y-119380000D03*
X190500000Y-111760000D03*
X187960000Y-111760000D03*
X185420000Y-111760000D03*
X182880000Y-111760000D03*
X180340000Y-111760000D03*
X177800000Y-111760000D03*
X175260000Y-111760000D03*
X172720000Y-111760000D03*
X170180000Y-111760000D03*
X167640000Y-111760000D03*
%TD*%
%TO.C,R4*%
X109728000Y-63246000D03*
D11*
X109728000Y-55626000D03*
%TD*%
D12*
%TO.C,U4*%
X124460000Y-119375000D03*
D10*
X127000000Y-119375000D03*
X129540000Y-119375000D03*
X132080000Y-119375000D03*
X134620000Y-119375000D03*
X137160000Y-119375000D03*
X139700000Y-119375000D03*
X139700000Y-111755000D03*
X137160000Y-111755000D03*
X134620000Y-111755000D03*
X132080000Y-111755000D03*
X129540000Y-111755000D03*
X127000000Y-111755000D03*
X124460000Y-111755000D03*
%TD*%
D17*
%TO.C,Y1*%
X179270000Y-75184000D03*
X184150000Y-75184000D03*
%TD*%
D10*
%TO.C,R5*%
X181610000Y-55626000D03*
D11*
X181610000Y-63246000D03*
%TD*%
D12*
%TO.C,U9*%
X152400000Y-81280000D03*
D10*
X154940000Y-81280000D03*
X157480000Y-81280000D03*
X160020000Y-81280000D03*
X162560000Y-81280000D03*
X165100000Y-81280000D03*
X167640000Y-81280000D03*
X167640000Y-73660000D03*
X165100000Y-73660000D03*
X162560000Y-73660000D03*
X160020000Y-73660000D03*
X157480000Y-73660000D03*
X154940000Y-73660000D03*
X152400000Y-73660000D03*
%TD*%
D12*
%TO.C,U11*%
X134620000Y-104648000D03*
D10*
X137160000Y-104648000D03*
X139700000Y-104648000D03*
X142240000Y-104648000D03*
X144780000Y-104648000D03*
X147320000Y-104648000D03*
X149860000Y-104648000D03*
X152400000Y-104648000D03*
X154940000Y-104648000D03*
X157480000Y-104648000D03*
X160020000Y-104648000D03*
X162560000Y-104648000D03*
X165100000Y-104648000D03*
X167640000Y-104648000D03*
X167640000Y-89408000D03*
X165100000Y-89408000D03*
X162560000Y-89408000D03*
X160020000Y-89408000D03*
X157480000Y-89408000D03*
X154940000Y-89408000D03*
X152400000Y-89408000D03*
X149860000Y-89408000D03*
X147320000Y-89408000D03*
X144780000Y-89408000D03*
X142240000Y-89408000D03*
X139700000Y-89408000D03*
X137160000Y-89408000D03*
X134620000Y-89408000D03*
%TD*%
D12*
%TO.C,U7*%
X132080000Y-81280000D03*
D10*
X134620000Y-81280000D03*
X137160000Y-81280000D03*
X139700000Y-81280000D03*
X142240000Y-81280000D03*
X144780000Y-81280000D03*
X147320000Y-81280000D03*
X147320000Y-73660000D03*
X144780000Y-73660000D03*
X142240000Y-73660000D03*
X139700000Y-73660000D03*
X137160000Y-73660000D03*
X134620000Y-73660000D03*
X132080000Y-73660000D03*
%TD*%
%TO.C,C3*%
X139780000Y-85598000D03*
X144780000Y-85598000D03*
%TD*%
D18*
%TO.C,J1*%
X190690000Y-130750000D03*
X188150000Y-130750000D03*
X185610000Y-130750000D03*
X183070000Y-130750000D03*
X180530000Y-130750000D03*
X177990000Y-130750000D03*
X175450000Y-130750000D03*
X172910000Y-130750000D03*
X170370000Y-130750000D03*
X167830000Y-130750000D03*
X165290000Y-130750000D03*
X162750000Y-130750000D03*
X160210000Y-130750000D03*
X157670000Y-130750000D03*
X155130000Y-130750000D03*
X152590000Y-130750000D03*
X150050000Y-130750000D03*
X147510000Y-130750000D03*
X144970000Y-130750000D03*
X142430000Y-130750000D03*
X139890000Y-130750000D03*
X137350000Y-130750000D03*
X134810000Y-130750000D03*
X132270000Y-130750000D03*
X129730000Y-130750000D03*
X127190000Y-130750000D03*
X124650000Y-130750000D03*
X122110000Y-130750000D03*
X119570000Y-130750000D03*
X117030000Y-130750000D03*
X114490000Y-130750000D03*
%TD*%
M02*
