%TF.GenerationSoftware,KiCad,Pcbnew,9.0.1*%
%TF.CreationDate,2025-07-02T19:30:22-06:00*%
%TF.ProjectId,transputer,7472616e-7370-4757-9465-722e6b696361,rev?*%
%TF.SameCoordinates,Original*%
%TF.FileFunction,Legend,Top*%
%TF.FilePolarity,Positive*%
%FSLAX46Y46*%
G04 Gerber Fmt 4.6, Leading zero omitted, Abs format (unit mm)*
G04 Created by KiCad (PCBNEW 9.0.1) date 2025-07-02 19:30:22*
%MOMM*%
%LPD*%
G01*
G04 APERTURE LIST*
%ADD10C,0.150000*%
%ADD11C,0.120000*%
%ADD12C,0.100000*%
G04 APERTURE END LIST*
D10*
X112741541Y-76059875D02*
X113408207Y-76059875D01*
X113408207Y-76059875D02*
X112979636Y-77059875D01*
X114217731Y-76393208D02*
X114217731Y-77059875D01*
X113979636Y-76012256D02*
X113741541Y-76726541D01*
X113741541Y-76726541D02*
X114360588Y-76726541D01*
X115074874Y-76536065D02*
X114741541Y-76536065D01*
X114741541Y-77059875D02*
X114741541Y-76059875D01*
X114741541Y-76059875D02*
X115217731Y-76059875D01*
X115551065Y-76155113D02*
X115598684Y-76107494D01*
X115598684Y-76107494D02*
X115693922Y-76059875D01*
X115693922Y-76059875D02*
X115932017Y-76059875D01*
X115932017Y-76059875D02*
X116027255Y-76107494D01*
X116027255Y-76107494D02*
X116074874Y-76155113D01*
X116074874Y-76155113D02*
X116122493Y-76250351D01*
X116122493Y-76250351D02*
X116122493Y-76345589D01*
X116122493Y-76345589D02*
X116074874Y-76488446D01*
X116074874Y-76488446D02*
X115503446Y-77059875D01*
X115503446Y-77059875D02*
X116122493Y-77059875D01*
X116979636Y-76393208D02*
X116979636Y-77059875D01*
X116741541Y-76012256D02*
X116503446Y-76726541D01*
X116503446Y-76726541D02*
X117122493Y-76726541D01*
X117932017Y-76393208D02*
X117932017Y-77059875D01*
X117693922Y-76012256D02*
X117455827Y-76726541D01*
X117455827Y-76726541D02*
X118074874Y-76726541D01*
X112741541Y-77669819D02*
X113408207Y-77669819D01*
X113408207Y-77669819D02*
X112979636Y-78669819D01*
X114217731Y-78003152D02*
X114217731Y-78669819D01*
X113979636Y-77622200D02*
X113741541Y-78336485D01*
X113741541Y-78336485D02*
X114360588Y-78336485D01*
X114693922Y-78384104D02*
X115170112Y-78384104D01*
X114598684Y-78669819D02*
X114932017Y-77669819D01*
X114932017Y-77669819D02*
X115265350Y-78669819D01*
X115551065Y-78622200D02*
X115693922Y-78669819D01*
X115693922Y-78669819D02*
X115932017Y-78669819D01*
X115932017Y-78669819D02*
X116027255Y-78622200D01*
X116027255Y-78622200D02*
X116074874Y-78574580D01*
X116074874Y-78574580D02*
X116122493Y-78479342D01*
X116122493Y-78479342D02*
X116122493Y-78384104D01*
X116122493Y-78384104D02*
X116074874Y-78288866D01*
X116074874Y-78288866D02*
X116027255Y-78241247D01*
X116027255Y-78241247D02*
X115932017Y-78193628D01*
X115932017Y-78193628D02*
X115741541Y-78146009D01*
X115741541Y-78146009D02*
X115646303Y-78098390D01*
X115646303Y-78098390D02*
X115598684Y-78050771D01*
X115598684Y-78050771D02*
X115551065Y-77955533D01*
X115551065Y-77955533D02*
X115551065Y-77860295D01*
X115551065Y-77860295D02*
X115598684Y-77765057D01*
X115598684Y-77765057D02*
X115646303Y-77717438D01*
X115646303Y-77717438D02*
X115741541Y-77669819D01*
X115741541Y-77669819D02*
X115979636Y-77669819D01*
X115979636Y-77669819D02*
X116122493Y-77717438D01*
X116503446Y-77765057D02*
X116551065Y-77717438D01*
X116551065Y-77717438D02*
X116646303Y-77669819D01*
X116646303Y-77669819D02*
X116884398Y-77669819D01*
X116884398Y-77669819D02*
X116979636Y-77717438D01*
X116979636Y-77717438D02*
X117027255Y-77765057D01*
X117027255Y-77765057D02*
X117074874Y-77860295D01*
X117074874Y-77860295D02*
X117074874Y-77955533D01*
X117074874Y-77955533D02*
X117027255Y-78098390D01*
X117027255Y-78098390D02*
X116455827Y-78669819D01*
X116455827Y-78669819D02*
X117074874Y-78669819D01*
X117932017Y-78003152D02*
X117932017Y-78669819D01*
X117693922Y-77622200D02*
X117455827Y-78336485D01*
X117455827Y-78336485D02*
X118074874Y-78336485D01*
X118884398Y-78003152D02*
X118884398Y-78669819D01*
X118646303Y-77622200D02*
X118408208Y-78336485D01*
X118408208Y-78336485D02*
X119027255Y-78336485D01*
X142687922Y-57035819D02*
X143259350Y-57035819D01*
X142973636Y-58035819D02*
X142973636Y-57035819D01*
X144164112Y-58035819D02*
X143830779Y-57559628D01*
X143592684Y-58035819D02*
X143592684Y-57035819D01*
X143592684Y-57035819D02*
X143973636Y-57035819D01*
X143973636Y-57035819D02*
X144068874Y-57083438D01*
X144068874Y-57083438D02*
X144116493Y-57131057D01*
X144116493Y-57131057D02*
X144164112Y-57226295D01*
X144164112Y-57226295D02*
X144164112Y-57369152D01*
X144164112Y-57369152D02*
X144116493Y-57464390D01*
X144116493Y-57464390D02*
X144068874Y-57512009D01*
X144068874Y-57512009D02*
X143973636Y-57559628D01*
X143973636Y-57559628D02*
X143592684Y-57559628D01*
X144545065Y-57750104D02*
X145021255Y-57750104D01*
X144449827Y-58035819D02*
X144783160Y-57035819D01*
X144783160Y-57035819D02*
X145116493Y-58035819D01*
X145449827Y-58035819D02*
X145449827Y-57035819D01*
X145449827Y-57035819D02*
X145783160Y-57750104D01*
X145783160Y-57750104D02*
X146116493Y-57035819D01*
X146116493Y-57035819D02*
X146116493Y-58035819D01*
X147306970Y-57988200D02*
X147449827Y-58035819D01*
X147449827Y-58035819D02*
X147687922Y-58035819D01*
X147687922Y-58035819D02*
X147783160Y-57988200D01*
X147783160Y-57988200D02*
X147830779Y-57940580D01*
X147830779Y-57940580D02*
X147878398Y-57845342D01*
X147878398Y-57845342D02*
X147878398Y-57750104D01*
X147878398Y-57750104D02*
X147830779Y-57654866D01*
X147830779Y-57654866D02*
X147783160Y-57607247D01*
X147783160Y-57607247D02*
X147687922Y-57559628D01*
X147687922Y-57559628D02*
X147497446Y-57512009D01*
X147497446Y-57512009D02*
X147402208Y-57464390D01*
X147402208Y-57464390D02*
X147354589Y-57416771D01*
X147354589Y-57416771D02*
X147306970Y-57321533D01*
X147306970Y-57321533D02*
X147306970Y-57226295D01*
X147306970Y-57226295D02*
X147354589Y-57131057D01*
X147354589Y-57131057D02*
X147402208Y-57083438D01*
X147402208Y-57083438D02*
X147497446Y-57035819D01*
X147497446Y-57035819D02*
X147735541Y-57035819D01*
X147735541Y-57035819D02*
X147878398Y-57083438D01*
X148306970Y-58035819D02*
X148306970Y-57035819D01*
X148687922Y-57035819D02*
X149354588Y-57035819D01*
X149354588Y-57035819D02*
X148687922Y-58035819D01*
X148687922Y-58035819D02*
X149354588Y-58035819D01*
X149735541Y-57512009D02*
X150068874Y-57512009D01*
X150211731Y-58035819D02*
X149735541Y-58035819D01*
X149735541Y-58035819D02*
X149735541Y-57035819D01*
X149735541Y-57035819D02*
X150211731Y-57035819D01*
X151926017Y-58035819D02*
X151354589Y-58035819D01*
X151640303Y-58035819D02*
X151640303Y-57035819D01*
X151640303Y-57035819D02*
X151545065Y-57178676D01*
X151545065Y-57178676D02*
X151449827Y-57273914D01*
X151449827Y-57273914D02*
X151354589Y-57321533D01*
X129527541Y-114947819D02*
X130194207Y-114947819D01*
X130194207Y-114947819D02*
X129765636Y-115947819D01*
X131003731Y-115281152D02*
X131003731Y-115947819D01*
X130765636Y-114900200D02*
X130527541Y-115614485D01*
X130527541Y-115614485D02*
X131146588Y-115614485D01*
X132003731Y-115947819D02*
X131527541Y-115947819D01*
X131527541Y-115947819D02*
X131527541Y-114947819D01*
X132289446Y-115900200D02*
X132432303Y-115947819D01*
X132432303Y-115947819D02*
X132670398Y-115947819D01*
X132670398Y-115947819D02*
X132765636Y-115900200D01*
X132765636Y-115900200D02*
X132813255Y-115852580D01*
X132813255Y-115852580D02*
X132860874Y-115757342D01*
X132860874Y-115757342D02*
X132860874Y-115662104D01*
X132860874Y-115662104D02*
X132813255Y-115566866D01*
X132813255Y-115566866D02*
X132765636Y-115519247D01*
X132765636Y-115519247D02*
X132670398Y-115471628D01*
X132670398Y-115471628D02*
X132479922Y-115424009D01*
X132479922Y-115424009D02*
X132384684Y-115376390D01*
X132384684Y-115376390D02*
X132337065Y-115328771D01*
X132337065Y-115328771D02*
X132289446Y-115233533D01*
X132289446Y-115233533D02*
X132289446Y-115138295D01*
X132289446Y-115138295D02*
X132337065Y-115043057D01*
X132337065Y-115043057D02*
X132384684Y-114995438D01*
X132384684Y-114995438D02*
X132479922Y-114947819D01*
X132479922Y-114947819D02*
X132718017Y-114947819D01*
X132718017Y-114947819D02*
X132860874Y-114995438D01*
X133479922Y-114947819D02*
X133575160Y-114947819D01*
X133575160Y-114947819D02*
X133670398Y-114995438D01*
X133670398Y-114995438D02*
X133718017Y-115043057D01*
X133718017Y-115043057D02*
X133765636Y-115138295D01*
X133765636Y-115138295D02*
X133813255Y-115328771D01*
X133813255Y-115328771D02*
X133813255Y-115566866D01*
X133813255Y-115566866D02*
X133765636Y-115757342D01*
X133765636Y-115757342D02*
X133718017Y-115852580D01*
X133718017Y-115852580D02*
X133670398Y-115900200D01*
X133670398Y-115900200D02*
X133575160Y-115947819D01*
X133575160Y-115947819D02*
X133479922Y-115947819D01*
X133479922Y-115947819D02*
X133384684Y-115900200D01*
X133384684Y-115900200D02*
X133337065Y-115852580D01*
X133337065Y-115852580D02*
X133289446Y-115757342D01*
X133289446Y-115757342D02*
X133241827Y-115566866D01*
X133241827Y-115566866D02*
X133241827Y-115328771D01*
X133241827Y-115328771D02*
X133289446Y-115138295D01*
X133289446Y-115138295D02*
X133337065Y-115043057D01*
X133337065Y-115043057D02*
X133384684Y-114995438D01*
X133384684Y-114995438D02*
X133479922Y-114947819D01*
X134194208Y-115043057D02*
X134241827Y-114995438D01*
X134241827Y-114995438D02*
X134337065Y-114947819D01*
X134337065Y-114947819D02*
X134575160Y-114947819D01*
X134575160Y-114947819D02*
X134670398Y-114995438D01*
X134670398Y-114995438D02*
X134718017Y-115043057D01*
X134718017Y-115043057D02*
X134765636Y-115138295D01*
X134765636Y-115138295D02*
X134765636Y-115233533D01*
X134765636Y-115233533D02*
X134718017Y-115376390D01*
X134718017Y-115376390D02*
X134146589Y-115947819D01*
X134146589Y-115947819D02*
X134765636Y-115947819D01*
X157467541Y-77101819D02*
X158134207Y-77101819D01*
X158134207Y-77101819D02*
X157705636Y-78101819D01*
X158943731Y-77435152D02*
X158943731Y-78101819D01*
X158705636Y-77054200D02*
X158467541Y-77768485D01*
X158467541Y-77768485D02*
X159086588Y-77768485D01*
X159943731Y-78101819D02*
X159467541Y-78101819D01*
X159467541Y-78101819D02*
X159467541Y-77101819D01*
X160229446Y-78054200D02*
X160372303Y-78101819D01*
X160372303Y-78101819D02*
X160610398Y-78101819D01*
X160610398Y-78101819D02*
X160705636Y-78054200D01*
X160705636Y-78054200D02*
X160753255Y-78006580D01*
X160753255Y-78006580D02*
X160800874Y-77911342D01*
X160800874Y-77911342D02*
X160800874Y-77816104D01*
X160800874Y-77816104D02*
X160753255Y-77720866D01*
X160753255Y-77720866D02*
X160705636Y-77673247D01*
X160705636Y-77673247D02*
X160610398Y-77625628D01*
X160610398Y-77625628D02*
X160419922Y-77578009D01*
X160419922Y-77578009D02*
X160324684Y-77530390D01*
X160324684Y-77530390D02*
X160277065Y-77482771D01*
X160277065Y-77482771D02*
X160229446Y-77387533D01*
X160229446Y-77387533D02*
X160229446Y-77292295D01*
X160229446Y-77292295D02*
X160277065Y-77197057D01*
X160277065Y-77197057D02*
X160324684Y-77149438D01*
X160324684Y-77149438D02*
X160419922Y-77101819D01*
X160419922Y-77101819D02*
X160658017Y-77101819D01*
X160658017Y-77101819D02*
X160800874Y-77149438D01*
X161134208Y-77101819D02*
X161800874Y-77101819D01*
X161800874Y-77101819D02*
X161372303Y-78101819D01*
X162610398Y-77435152D02*
X162610398Y-78101819D01*
X162372303Y-77054200D02*
X162134208Y-77768485D01*
X162134208Y-77768485D02*
X162753255Y-77768485D01*
X134401160Y-108296104D02*
X134877350Y-108296104D01*
X134305922Y-108581819D02*
X134639255Y-107581819D01*
X134639255Y-107581819D02*
X134972588Y-108581819D01*
X135448779Y-108581819D02*
X135353541Y-108534200D01*
X135353541Y-108534200D02*
X135305922Y-108438961D01*
X135305922Y-108438961D02*
X135305922Y-107581819D01*
X135972589Y-108581819D02*
X135877351Y-108534200D01*
X135877351Y-108534200D02*
X135829732Y-108438961D01*
X135829732Y-108438961D02*
X135829732Y-107581819D01*
X137258304Y-108581819D02*
X137163066Y-108534200D01*
X137163066Y-108534200D02*
X137115447Y-108486580D01*
X137115447Y-108486580D02*
X137067828Y-108391342D01*
X137067828Y-108391342D02*
X137067828Y-108105628D01*
X137067828Y-108105628D02*
X137115447Y-108010390D01*
X137115447Y-108010390D02*
X137163066Y-107962771D01*
X137163066Y-107962771D02*
X137258304Y-107915152D01*
X137258304Y-107915152D02*
X137401161Y-107915152D01*
X137401161Y-107915152D02*
X137496399Y-107962771D01*
X137496399Y-107962771D02*
X137544018Y-108010390D01*
X137544018Y-108010390D02*
X137591637Y-108105628D01*
X137591637Y-108105628D02*
X137591637Y-108391342D01*
X137591637Y-108391342D02*
X137544018Y-108486580D01*
X137544018Y-108486580D02*
X137496399Y-108534200D01*
X137496399Y-108534200D02*
X137401161Y-108581819D01*
X137401161Y-108581819D02*
X137258304Y-108581819D01*
X137877352Y-107915152D02*
X138258304Y-107915152D01*
X138020209Y-107581819D02*
X138020209Y-108438961D01*
X138020209Y-108438961D02*
X138067828Y-108534200D01*
X138067828Y-108534200D02*
X138163066Y-108581819D01*
X138163066Y-108581819D02*
X138258304Y-108581819D01*
X138591638Y-108581819D02*
X138591638Y-107581819D01*
X139020209Y-108581819D02*
X139020209Y-108058009D01*
X139020209Y-108058009D02*
X138972590Y-107962771D01*
X138972590Y-107962771D02*
X138877352Y-107915152D01*
X138877352Y-107915152D02*
X138734495Y-107915152D01*
X138734495Y-107915152D02*
X138639257Y-107962771D01*
X138639257Y-107962771D02*
X138591638Y-108010390D01*
X139877352Y-108534200D02*
X139782114Y-108581819D01*
X139782114Y-108581819D02*
X139591638Y-108581819D01*
X139591638Y-108581819D02*
X139496400Y-108534200D01*
X139496400Y-108534200D02*
X139448781Y-108438961D01*
X139448781Y-108438961D02*
X139448781Y-108058009D01*
X139448781Y-108058009D02*
X139496400Y-107962771D01*
X139496400Y-107962771D02*
X139591638Y-107915152D01*
X139591638Y-107915152D02*
X139782114Y-107915152D01*
X139782114Y-107915152D02*
X139877352Y-107962771D01*
X139877352Y-107962771D02*
X139924971Y-108058009D01*
X139924971Y-108058009D02*
X139924971Y-108153247D01*
X139924971Y-108153247D02*
X139448781Y-108248485D01*
X140353543Y-108581819D02*
X140353543Y-107915152D01*
X140353543Y-108105628D02*
X140401162Y-108010390D01*
X140401162Y-108010390D02*
X140448781Y-107962771D01*
X140448781Y-107962771D02*
X140544019Y-107915152D01*
X140544019Y-107915152D02*
X140639257Y-107915152D01*
X140924972Y-108534200D02*
X141020210Y-108581819D01*
X141020210Y-108581819D02*
X141210686Y-108581819D01*
X141210686Y-108581819D02*
X141305924Y-108534200D01*
X141305924Y-108534200D02*
X141353543Y-108438961D01*
X141353543Y-108438961D02*
X141353543Y-108391342D01*
X141353543Y-108391342D02*
X141305924Y-108296104D01*
X141305924Y-108296104D02*
X141210686Y-108248485D01*
X141210686Y-108248485D02*
X141067829Y-108248485D01*
X141067829Y-108248485D02*
X140972591Y-108200866D01*
X140972591Y-108200866D02*
X140924972Y-108105628D01*
X140924972Y-108105628D02*
X140924972Y-108058009D01*
X140924972Y-108058009D02*
X140972591Y-107962771D01*
X140972591Y-107962771D02*
X141067829Y-107915152D01*
X141067829Y-107915152D02*
X141210686Y-107915152D01*
X141210686Y-107915152D02*
X141305924Y-107962771D01*
X143115448Y-108581819D02*
X142782115Y-108105628D01*
X142544020Y-108581819D02*
X142544020Y-107581819D01*
X142544020Y-107581819D02*
X142924972Y-107581819D01*
X142924972Y-107581819D02*
X143020210Y-107629438D01*
X143020210Y-107629438D02*
X143067829Y-107677057D01*
X143067829Y-107677057D02*
X143115448Y-107772295D01*
X143115448Y-107772295D02*
X143115448Y-107915152D01*
X143115448Y-107915152D02*
X143067829Y-108010390D01*
X143067829Y-108010390D02*
X143020210Y-108058009D01*
X143020210Y-108058009D02*
X142924972Y-108105628D01*
X142924972Y-108105628D02*
X142544020Y-108105628D01*
X144305925Y-108058009D02*
X145067830Y-108058009D01*
X145067830Y-108343723D02*
X144305925Y-108343723D01*
X146829734Y-108581819D02*
X146258306Y-108581819D01*
X146544020Y-108581819D02*
X146544020Y-107581819D01*
X146544020Y-107581819D02*
X146448782Y-107724676D01*
X146448782Y-107724676D02*
X146353544Y-107819914D01*
X146353544Y-107819914D02*
X146258306Y-107867533D01*
X147448782Y-107581819D02*
X147544020Y-107581819D01*
X147544020Y-107581819D02*
X147639258Y-107629438D01*
X147639258Y-107629438D02*
X147686877Y-107677057D01*
X147686877Y-107677057D02*
X147734496Y-107772295D01*
X147734496Y-107772295D02*
X147782115Y-107962771D01*
X147782115Y-107962771D02*
X147782115Y-108200866D01*
X147782115Y-108200866D02*
X147734496Y-108391342D01*
X147734496Y-108391342D02*
X147686877Y-108486580D01*
X147686877Y-108486580D02*
X147639258Y-108534200D01*
X147639258Y-108534200D02*
X147544020Y-108581819D01*
X147544020Y-108581819D02*
X147448782Y-108581819D01*
X147448782Y-108581819D02*
X147353544Y-108534200D01*
X147353544Y-108534200D02*
X147305925Y-108486580D01*
X147305925Y-108486580D02*
X147258306Y-108391342D01*
X147258306Y-108391342D02*
X147210687Y-108200866D01*
X147210687Y-108200866D02*
X147210687Y-107962771D01*
X147210687Y-107962771D02*
X147258306Y-107772295D01*
X147258306Y-107772295D02*
X147305925Y-107677057D01*
X147305925Y-107677057D02*
X147353544Y-107629438D01*
X147353544Y-107629438D02*
X147448782Y-107581819D01*
X148210687Y-108581819D02*
X148210687Y-107581819D01*
X148305925Y-108200866D02*
X148591639Y-108581819D01*
X148591639Y-107915152D02*
X148210687Y-108296104D01*
X148972592Y-108581819D02*
X149210687Y-108581819D01*
X149210687Y-108581819D02*
X149210687Y-108391342D01*
X149210687Y-108391342D02*
X149115449Y-108343723D01*
X149115449Y-108343723D02*
X149020211Y-108248485D01*
X149020211Y-108248485D02*
X148972592Y-108105628D01*
X148972592Y-108105628D02*
X148972592Y-107867533D01*
X148972592Y-107867533D02*
X149020211Y-107724676D01*
X149020211Y-107724676D02*
X149115449Y-107629438D01*
X149115449Y-107629438D02*
X149258306Y-107581819D01*
X149258306Y-107581819D02*
X149448782Y-107581819D01*
X149448782Y-107581819D02*
X149591639Y-107629438D01*
X149591639Y-107629438D02*
X149686877Y-107724676D01*
X149686877Y-107724676D02*
X149734496Y-107867533D01*
X149734496Y-107867533D02*
X149734496Y-108105628D01*
X149734496Y-108105628D02*
X149686877Y-108248485D01*
X149686877Y-108248485D02*
X149591639Y-108343723D01*
X149591639Y-108343723D02*
X149496401Y-108391342D01*
X149496401Y-108391342D02*
X149496401Y-108581819D01*
X149496401Y-108581819D02*
X149734496Y-108581819D01*
X137147541Y-76847819D02*
X137814207Y-76847819D01*
X137814207Y-76847819D02*
X137385636Y-77847819D01*
X138623731Y-77181152D02*
X138623731Y-77847819D01*
X138385636Y-76800200D02*
X138147541Y-77514485D01*
X138147541Y-77514485D02*
X138766588Y-77514485D01*
X139623731Y-77847819D02*
X139147541Y-77847819D01*
X139147541Y-77847819D02*
X139147541Y-76847819D01*
X139909446Y-77800200D02*
X140052303Y-77847819D01*
X140052303Y-77847819D02*
X140290398Y-77847819D01*
X140290398Y-77847819D02*
X140385636Y-77800200D01*
X140385636Y-77800200D02*
X140433255Y-77752580D01*
X140433255Y-77752580D02*
X140480874Y-77657342D01*
X140480874Y-77657342D02*
X140480874Y-77562104D01*
X140480874Y-77562104D02*
X140433255Y-77466866D01*
X140433255Y-77466866D02*
X140385636Y-77419247D01*
X140385636Y-77419247D02*
X140290398Y-77371628D01*
X140290398Y-77371628D02*
X140099922Y-77324009D01*
X140099922Y-77324009D02*
X140004684Y-77276390D01*
X140004684Y-77276390D02*
X139957065Y-77228771D01*
X139957065Y-77228771D02*
X139909446Y-77133533D01*
X139909446Y-77133533D02*
X139909446Y-77038295D01*
X139909446Y-77038295D02*
X139957065Y-76943057D01*
X139957065Y-76943057D02*
X140004684Y-76895438D01*
X140004684Y-76895438D02*
X140099922Y-76847819D01*
X140099922Y-76847819D02*
X140338017Y-76847819D01*
X140338017Y-76847819D02*
X140480874Y-76895438D01*
X140814208Y-76847819D02*
X141480874Y-76847819D01*
X141480874Y-76847819D02*
X141052303Y-77847819D01*
X142290398Y-77181152D02*
X142290398Y-77847819D01*
X142052303Y-76800200D02*
X141814208Y-77514485D01*
X141814208Y-77514485D02*
X142433255Y-77514485D01*
X180073541Y-89293819D02*
X180740207Y-89293819D01*
X180740207Y-89293819D02*
X180311636Y-90293819D01*
X181549731Y-89627152D02*
X181549731Y-90293819D01*
X181311636Y-89246200D02*
X181073541Y-89960485D01*
X181073541Y-89960485D02*
X181692588Y-89960485D01*
X182406874Y-89770009D02*
X182073541Y-89770009D01*
X182073541Y-90293819D02*
X182073541Y-89293819D01*
X182073541Y-89293819D02*
X182549731Y-89293819D01*
X183121160Y-89293819D02*
X183216398Y-89293819D01*
X183216398Y-89293819D02*
X183311636Y-89341438D01*
X183311636Y-89341438D02*
X183359255Y-89389057D01*
X183359255Y-89389057D02*
X183406874Y-89484295D01*
X183406874Y-89484295D02*
X183454493Y-89674771D01*
X183454493Y-89674771D02*
X183454493Y-89912866D01*
X183454493Y-89912866D02*
X183406874Y-90103342D01*
X183406874Y-90103342D02*
X183359255Y-90198580D01*
X183359255Y-90198580D02*
X183311636Y-90246200D01*
X183311636Y-90246200D02*
X183216398Y-90293819D01*
X183216398Y-90293819D02*
X183121160Y-90293819D01*
X183121160Y-90293819D02*
X183025922Y-90246200D01*
X183025922Y-90246200D02*
X182978303Y-90198580D01*
X182978303Y-90198580D02*
X182930684Y-90103342D01*
X182930684Y-90103342D02*
X182883065Y-89912866D01*
X182883065Y-89912866D02*
X182883065Y-89674771D01*
X182883065Y-89674771D02*
X182930684Y-89484295D01*
X182930684Y-89484295D02*
X182978303Y-89389057D01*
X182978303Y-89389057D02*
X183025922Y-89341438D01*
X183025922Y-89341438D02*
X183121160Y-89293819D01*
X184311636Y-89627152D02*
X184311636Y-90293819D01*
X184073541Y-89246200D02*
X183835446Y-89960485D01*
X183835446Y-89960485D02*
X184454493Y-89960485D01*
X178549541Y-101993819D02*
X179216207Y-101993819D01*
X179216207Y-101993819D02*
X178787636Y-102993819D01*
X180025731Y-102327152D02*
X180025731Y-102993819D01*
X179787636Y-101946200D02*
X179549541Y-102660485D01*
X179549541Y-102660485D02*
X180168588Y-102660485D01*
X181025731Y-102993819D02*
X180549541Y-102993819D01*
X180549541Y-102993819D02*
X180549541Y-101993819D01*
X181311446Y-102946200D02*
X181454303Y-102993819D01*
X181454303Y-102993819D02*
X181692398Y-102993819D01*
X181692398Y-102993819D02*
X181787636Y-102946200D01*
X181787636Y-102946200D02*
X181835255Y-102898580D01*
X181835255Y-102898580D02*
X181882874Y-102803342D01*
X181882874Y-102803342D02*
X181882874Y-102708104D01*
X181882874Y-102708104D02*
X181835255Y-102612866D01*
X181835255Y-102612866D02*
X181787636Y-102565247D01*
X181787636Y-102565247D02*
X181692398Y-102517628D01*
X181692398Y-102517628D02*
X181501922Y-102470009D01*
X181501922Y-102470009D02*
X181406684Y-102422390D01*
X181406684Y-102422390D02*
X181359065Y-102374771D01*
X181359065Y-102374771D02*
X181311446Y-102279533D01*
X181311446Y-102279533D02*
X181311446Y-102184295D01*
X181311446Y-102184295D02*
X181359065Y-102089057D01*
X181359065Y-102089057D02*
X181406684Y-102041438D01*
X181406684Y-102041438D02*
X181501922Y-101993819D01*
X181501922Y-101993819D02*
X181740017Y-101993819D01*
X181740017Y-101993819D02*
X181882874Y-102041438D01*
X182216208Y-101993819D02*
X182835255Y-101993819D01*
X182835255Y-101993819D02*
X182501922Y-102374771D01*
X182501922Y-102374771D02*
X182644779Y-102374771D01*
X182644779Y-102374771D02*
X182740017Y-102422390D01*
X182740017Y-102422390D02*
X182787636Y-102470009D01*
X182787636Y-102470009D02*
X182835255Y-102565247D01*
X182835255Y-102565247D02*
X182835255Y-102803342D01*
X182835255Y-102803342D02*
X182787636Y-102898580D01*
X182787636Y-102898580D02*
X182740017Y-102946200D01*
X182740017Y-102946200D02*
X182644779Y-102993819D01*
X182644779Y-102993819D02*
X182359065Y-102993819D01*
X182359065Y-102993819D02*
X182263827Y-102946200D01*
X182263827Y-102946200D02*
X182216208Y-102898580D01*
X183692398Y-101993819D02*
X183501922Y-101993819D01*
X183501922Y-101993819D02*
X183406684Y-102041438D01*
X183406684Y-102041438D02*
X183359065Y-102089057D01*
X183359065Y-102089057D02*
X183263827Y-102231914D01*
X183263827Y-102231914D02*
X183216208Y-102422390D01*
X183216208Y-102422390D02*
X183216208Y-102803342D01*
X183216208Y-102803342D02*
X183263827Y-102898580D01*
X183263827Y-102898580D02*
X183311446Y-102946200D01*
X183311446Y-102946200D02*
X183406684Y-102993819D01*
X183406684Y-102993819D02*
X183597160Y-102993819D01*
X183597160Y-102993819D02*
X183692398Y-102946200D01*
X183692398Y-102946200D02*
X183740017Y-102898580D01*
X183740017Y-102898580D02*
X183787636Y-102803342D01*
X183787636Y-102803342D02*
X183787636Y-102565247D01*
X183787636Y-102565247D02*
X183740017Y-102470009D01*
X183740017Y-102470009D02*
X183692398Y-102422390D01*
X183692398Y-102422390D02*
X183597160Y-102374771D01*
X183597160Y-102374771D02*
X183406684Y-102374771D01*
X183406684Y-102374771D02*
X183311446Y-102422390D01*
X183311446Y-102422390D02*
X183263827Y-102470009D01*
X183263827Y-102470009D02*
X183216208Y-102565247D01*
X184120970Y-101993819D02*
X184787636Y-101993819D01*
X184787636Y-101993819D02*
X184359065Y-102993819D01*
X129638588Y-105955875D02*
X129067160Y-105955875D01*
X129352874Y-105955875D02*
X129352874Y-104955875D01*
X129352874Y-104955875D02*
X129257636Y-105098732D01*
X129257636Y-105098732D02*
X129162398Y-105193970D01*
X129162398Y-105193970D02*
X129067160Y-105241589D01*
X130257636Y-104955875D02*
X130352874Y-104955875D01*
X130352874Y-104955875D02*
X130448112Y-105003494D01*
X130448112Y-105003494D02*
X130495731Y-105051113D01*
X130495731Y-105051113D02*
X130543350Y-105146351D01*
X130543350Y-105146351D02*
X130590969Y-105336827D01*
X130590969Y-105336827D02*
X130590969Y-105574922D01*
X130590969Y-105574922D02*
X130543350Y-105765398D01*
X130543350Y-105765398D02*
X130495731Y-105860636D01*
X130495731Y-105860636D02*
X130448112Y-105908256D01*
X130448112Y-105908256D02*
X130352874Y-105955875D01*
X130352874Y-105955875D02*
X130257636Y-105955875D01*
X130257636Y-105955875D02*
X130162398Y-105908256D01*
X130162398Y-105908256D02*
X130114779Y-105860636D01*
X130114779Y-105860636D02*
X130067160Y-105765398D01*
X130067160Y-105765398D02*
X130019541Y-105574922D01*
X130019541Y-105574922D02*
X130019541Y-105336827D01*
X130019541Y-105336827D02*
X130067160Y-105146351D01*
X130067160Y-105146351D02*
X130114779Y-105051113D01*
X130114779Y-105051113D02*
X130162398Y-105003494D01*
X130162398Y-105003494D02*
X130257636Y-104955875D01*
X131448112Y-105289208D02*
X131448112Y-105955875D01*
X131019541Y-105289208D02*
X131019541Y-105813017D01*
X131019541Y-105813017D02*
X131067160Y-105908256D01*
X131067160Y-105908256D02*
X131162398Y-105955875D01*
X131162398Y-105955875D02*
X131305255Y-105955875D01*
X131305255Y-105955875D02*
X131400493Y-105908256D01*
X131400493Y-105908256D02*
X131448112Y-105860636D01*
X131781446Y-105289208D02*
X132162398Y-105289208D01*
X131924303Y-105955875D02*
X131924303Y-105098732D01*
X131924303Y-105098732D02*
X131971922Y-105003494D01*
X131971922Y-105003494D02*
X132067160Y-104955875D01*
X132067160Y-104955875D02*
X132162398Y-104955875D01*
X129590969Y-106565819D02*
X129114779Y-106565819D01*
X129114779Y-106565819D02*
X129067160Y-107042009D01*
X129067160Y-107042009D02*
X129114779Y-106994390D01*
X129114779Y-106994390D02*
X129210017Y-106946771D01*
X129210017Y-106946771D02*
X129448112Y-106946771D01*
X129448112Y-106946771D02*
X129543350Y-106994390D01*
X129543350Y-106994390D02*
X129590969Y-107042009D01*
X129590969Y-107042009D02*
X129638588Y-107137247D01*
X129638588Y-107137247D02*
X129638588Y-107375342D01*
X129638588Y-107375342D02*
X129590969Y-107470580D01*
X129590969Y-107470580D02*
X129543350Y-107518200D01*
X129543350Y-107518200D02*
X129448112Y-107565819D01*
X129448112Y-107565819D02*
X129210017Y-107565819D01*
X129210017Y-107565819D02*
X129114779Y-107518200D01*
X129114779Y-107518200D02*
X129067160Y-107470580D01*
X130257636Y-106565819D02*
X130352874Y-106565819D01*
X130352874Y-106565819D02*
X130448112Y-106613438D01*
X130448112Y-106613438D02*
X130495731Y-106661057D01*
X130495731Y-106661057D02*
X130543350Y-106756295D01*
X130543350Y-106756295D02*
X130590969Y-106946771D01*
X130590969Y-106946771D02*
X130590969Y-107184866D01*
X130590969Y-107184866D02*
X130543350Y-107375342D01*
X130543350Y-107375342D02*
X130495731Y-107470580D01*
X130495731Y-107470580D02*
X130448112Y-107518200D01*
X130448112Y-107518200D02*
X130352874Y-107565819D01*
X130352874Y-107565819D02*
X130257636Y-107565819D01*
X130257636Y-107565819D02*
X130162398Y-107518200D01*
X130162398Y-107518200D02*
X130114779Y-107470580D01*
X130114779Y-107470580D02*
X130067160Y-107375342D01*
X130067160Y-107375342D02*
X130019541Y-107184866D01*
X130019541Y-107184866D02*
X130019541Y-106946771D01*
X130019541Y-106946771D02*
X130067160Y-106756295D01*
X130067160Y-106756295D02*
X130114779Y-106661057D01*
X130114779Y-106661057D02*
X130162398Y-106613438D01*
X130162398Y-106613438D02*
X130257636Y-106565819D01*
X130924303Y-106899152D02*
X131162398Y-107565819D01*
X131162398Y-107565819D02*
X131400493Y-106899152D01*
X103336969Y-69257342D02*
X104022684Y-69257342D01*
X103679826Y-70457342D02*
X103679826Y-69257342D01*
X104422684Y-70457342D02*
X104422684Y-69657342D01*
X104422684Y-69885914D02*
X104479827Y-69771628D01*
X104479827Y-69771628D02*
X104536970Y-69714485D01*
X104536970Y-69714485D02*
X104651255Y-69657342D01*
X104651255Y-69657342D02*
X104765541Y-69657342D01*
X105679827Y-70457342D02*
X105679827Y-69828771D01*
X105679827Y-69828771D02*
X105622684Y-69714485D01*
X105622684Y-69714485D02*
X105508398Y-69657342D01*
X105508398Y-69657342D02*
X105279827Y-69657342D01*
X105279827Y-69657342D02*
X105165541Y-69714485D01*
X105679827Y-70400200D02*
X105565541Y-70457342D01*
X105565541Y-70457342D02*
X105279827Y-70457342D01*
X105279827Y-70457342D02*
X105165541Y-70400200D01*
X105165541Y-70400200D02*
X105108398Y-70285914D01*
X105108398Y-70285914D02*
X105108398Y-70171628D01*
X105108398Y-70171628D02*
X105165541Y-70057342D01*
X105165541Y-70057342D02*
X105279827Y-70000200D01*
X105279827Y-70000200D02*
X105565541Y-70000200D01*
X105565541Y-70000200D02*
X105679827Y-69943057D01*
X106251255Y-69657342D02*
X106251255Y-70457342D01*
X106251255Y-69771628D02*
X106308398Y-69714485D01*
X106308398Y-69714485D02*
X106422683Y-69657342D01*
X106422683Y-69657342D02*
X106594112Y-69657342D01*
X106594112Y-69657342D02*
X106708398Y-69714485D01*
X106708398Y-69714485D02*
X106765541Y-69828771D01*
X106765541Y-69828771D02*
X106765541Y-70457342D01*
X107279826Y-70400200D02*
X107394112Y-70457342D01*
X107394112Y-70457342D02*
X107622683Y-70457342D01*
X107622683Y-70457342D02*
X107736969Y-70400200D01*
X107736969Y-70400200D02*
X107794112Y-70285914D01*
X107794112Y-70285914D02*
X107794112Y-70228771D01*
X107794112Y-70228771D02*
X107736969Y-70114485D01*
X107736969Y-70114485D02*
X107622683Y-70057342D01*
X107622683Y-70057342D02*
X107451255Y-70057342D01*
X107451255Y-70057342D02*
X107336969Y-70000200D01*
X107336969Y-70000200D02*
X107279826Y-69885914D01*
X107279826Y-69885914D02*
X107279826Y-69828771D01*
X107279826Y-69828771D02*
X107336969Y-69714485D01*
X107336969Y-69714485D02*
X107451255Y-69657342D01*
X107451255Y-69657342D02*
X107622683Y-69657342D01*
X107622683Y-69657342D02*
X107736969Y-69714485D01*
X108308398Y-69657342D02*
X108308398Y-70857342D01*
X108308398Y-69714485D02*
X108422684Y-69657342D01*
X108422684Y-69657342D02*
X108651255Y-69657342D01*
X108651255Y-69657342D02*
X108765541Y-69714485D01*
X108765541Y-69714485D02*
X108822684Y-69771628D01*
X108822684Y-69771628D02*
X108879826Y-69885914D01*
X108879826Y-69885914D02*
X108879826Y-70228771D01*
X108879826Y-70228771D02*
X108822684Y-70343057D01*
X108822684Y-70343057D02*
X108765541Y-70400200D01*
X108765541Y-70400200D02*
X108651255Y-70457342D01*
X108651255Y-70457342D02*
X108422684Y-70457342D01*
X108422684Y-70457342D02*
X108308398Y-70400200D01*
X109908398Y-69657342D02*
X109908398Y-70457342D01*
X109394112Y-69657342D02*
X109394112Y-70285914D01*
X109394112Y-70285914D02*
X109451255Y-70400200D01*
X109451255Y-70400200D02*
X109565540Y-70457342D01*
X109565540Y-70457342D02*
X109736969Y-70457342D01*
X109736969Y-70457342D02*
X109851255Y-70400200D01*
X109851255Y-70400200D02*
X109908398Y-70343057D01*
X110308397Y-69657342D02*
X110765540Y-69657342D01*
X110479826Y-69257342D02*
X110479826Y-70285914D01*
X110479826Y-70285914D02*
X110536969Y-70400200D01*
X110536969Y-70400200D02*
X110651254Y-70457342D01*
X110651254Y-70457342D02*
X110765540Y-70457342D01*
X111622683Y-70400200D02*
X111508397Y-70457342D01*
X111508397Y-70457342D02*
X111279826Y-70457342D01*
X111279826Y-70457342D02*
X111165540Y-70400200D01*
X111165540Y-70400200D02*
X111108397Y-70285914D01*
X111108397Y-70285914D02*
X111108397Y-69828771D01*
X111108397Y-69828771D02*
X111165540Y-69714485D01*
X111165540Y-69714485D02*
X111279826Y-69657342D01*
X111279826Y-69657342D02*
X111508397Y-69657342D01*
X111508397Y-69657342D02*
X111622683Y-69714485D01*
X111622683Y-69714485D02*
X111679826Y-69828771D01*
X111679826Y-69828771D02*
X111679826Y-69943057D01*
X111679826Y-69943057D02*
X111108397Y-70057342D01*
X112194111Y-70457342D02*
X112194111Y-69657342D01*
X112194111Y-69885914D02*
X112251254Y-69771628D01*
X112251254Y-69771628D02*
X112308397Y-69714485D01*
X112308397Y-69714485D02*
X112422682Y-69657342D01*
X112422682Y-69657342D02*
X112536968Y-69657342D01*
X113851254Y-70457342D02*
X113851254Y-69257342D01*
X114365540Y-70400200D02*
X114536969Y-70457342D01*
X114536969Y-70457342D02*
X114822683Y-70457342D01*
X114822683Y-70457342D02*
X114936969Y-70400200D01*
X114936969Y-70400200D02*
X114994111Y-70343057D01*
X114994111Y-70343057D02*
X115051254Y-70228771D01*
X115051254Y-70228771D02*
X115051254Y-70114485D01*
X115051254Y-70114485D02*
X114994111Y-70000200D01*
X114994111Y-70000200D02*
X114936969Y-69943057D01*
X114936969Y-69943057D02*
X114822683Y-69885914D01*
X114822683Y-69885914D02*
X114594111Y-69828771D01*
X114594111Y-69828771D02*
X114479826Y-69771628D01*
X114479826Y-69771628D02*
X114422683Y-69714485D01*
X114422683Y-69714485D02*
X114365540Y-69600200D01*
X114365540Y-69600200D02*
X114365540Y-69485914D01*
X114365540Y-69485914D02*
X114422683Y-69371628D01*
X114422683Y-69371628D02*
X114479826Y-69314485D01*
X114479826Y-69314485D02*
X114594111Y-69257342D01*
X114594111Y-69257342D02*
X114879826Y-69257342D01*
X114879826Y-69257342D02*
X115051254Y-69314485D01*
X115508397Y-70114485D02*
X116079826Y-70114485D01*
X115394111Y-70457342D02*
X115794111Y-69257342D01*
X115794111Y-69257342D02*
X116194111Y-70457342D01*
X117508397Y-70457342D02*
X117508397Y-69257342D01*
X117508397Y-69714485D02*
X117622683Y-69657342D01*
X117622683Y-69657342D02*
X117851254Y-69657342D01*
X117851254Y-69657342D02*
X117965540Y-69714485D01*
X117965540Y-69714485D02*
X118022683Y-69771628D01*
X118022683Y-69771628D02*
X118079825Y-69885914D01*
X118079825Y-69885914D02*
X118079825Y-70228771D01*
X118079825Y-70228771D02*
X118022683Y-70343057D01*
X118022683Y-70343057D02*
X117965540Y-70400200D01*
X117965540Y-70400200D02*
X117851254Y-70457342D01*
X117851254Y-70457342D02*
X117622683Y-70457342D01*
X117622683Y-70457342D02*
X117508397Y-70400200D01*
X118765539Y-70457342D02*
X118651254Y-70400200D01*
X118651254Y-70400200D02*
X118594111Y-70343057D01*
X118594111Y-70343057D02*
X118536968Y-70228771D01*
X118536968Y-70228771D02*
X118536968Y-69885914D01*
X118536968Y-69885914D02*
X118594111Y-69771628D01*
X118594111Y-69771628D02*
X118651254Y-69714485D01*
X118651254Y-69714485D02*
X118765539Y-69657342D01*
X118765539Y-69657342D02*
X118936968Y-69657342D01*
X118936968Y-69657342D02*
X119051254Y-69714485D01*
X119051254Y-69714485D02*
X119108397Y-69771628D01*
X119108397Y-69771628D02*
X119165539Y-69885914D01*
X119165539Y-69885914D02*
X119165539Y-70228771D01*
X119165539Y-70228771D02*
X119108397Y-70343057D01*
X119108397Y-70343057D02*
X119051254Y-70400200D01*
X119051254Y-70400200D02*
X118936968Y-70457342D01*
X118936968Y-70457342D02*
X118765539Y-70457342D01*
X120194111Y-70457342D02*
X120194111Y-69828771D01*
X120194111Y-69828771D02*
X120136968Y-69714485D01*
X120136968Y-69714485D02*
X120022682Y-69657342D01*
X120022682Y-69657342D02*
X119794111Y-69657342D01*
X119794111Y-69657342D02*
X119679825Y-69714485D01*
X120194111Y-70400200D02*
X120079825Y-70457342D01*
X120079825Y-70457342D02*
X119794111Y-70457342D01*
X119794111Y-70457342D02*
X119679825Y-70400200D01*
X119679825Y-70400200D02*
X119622682Y-70285914D01*
X119622682Y-70285914D02*
X119622682Y-70171628D01*
X119622682Y-70171628D02*
X119679825Y-70057342D01*
X119679825Y-70057342D02*
X119794111Y-70000200D01*
X119794111Y-70000200D02*
X120079825Y-70000200D01*
X120079825Y-70000200D02*
X120194111Y-69943057D01*
X120765539Y-70457342D02*
X120765539Y-69657342D01*
X120765539Y-69885914D02*
X120822682Y-69771628D01*
X120822682Y-69771628D02*
X120879825Y-69714485D01*
X120879825Y-69714485D02*
X120994110Y-69657342D01*
X120994110Y-69657342D02*
X121108396Y-69657342D01*
X122022682Y-70457342D02*
X122022682Y-69257342D01*
X122022682Y-70400200D02*
X121908396Y-70457342D01*
X121908396Y-70457342D02*
X121679824Y-70457342D01*
X121679824Y-70457342D02*
X121565539Y-70400200D01*
X121565539Y-70400200D02*
X121508396Y-70343057D01*
X121508396Y-70343057D02*
X121451253Y-70228771D01*
X121451253Y-70228771D02*
X121451253Y-69885914D01*
X121451253Y-69885914D02*
X121508396Y-69771628D01*
X121508396Y-69771628D02*
X121565539Y-69714485D01*
X121565539Y-69714485D02*
X121679824Y-69657342D01*
X121679824Y-69657342D02*
X121908396Y-69657342D01*
X121908396Y-69657342D02*
X122022682Y-69714485D01*
X123508396Y-70457342D02*
X123508396Y-69657342D01*
X123508396Y-69885914D02*
X123565539Y-69771628D01*
X123565539Y-69771628D02*
X123622682Y-69714485D01*
X123622682Y-69714485D02*
X123736967Y-69657342D01*
X123736967Y-69657342D02*
X123851253Y-69657342D01*
X124708396Y-70400200D02*
X124594110Y-70457342D01*
X124594110Y-70457342D02*
X124365539Y-70457342D01*
X124365539Y-70457342D02*
X124251253Y-70400200D01*
X124251253Y-70400200D02*
X124194110Y-70285914D01*
X124194110Y-70285914D02*
X124194110Y-69828771D01*
X124194110Y-69828771D02*
X124251253Y-69714485D01*
X124251253Y-69714485D02*
X124365539Y-69657342D01*
X124365539Y-69657342D02*
X124594110Y-69657342D01*
X124594110Y-69657342D02*
X124708396Y-69714485D01*
X124708396Y-69714485D02*
X124765539Y-69828771D01*
X124765539Y-69828771D02*
X124765539Y-69943057D01*
X124765539Y-69943057D02*
X124194110Y-70057342D01*
X125165538Y-69657342D02*
X125451252Y-70457342D01*
X125451252Y-70457342D02*
X125736967Y-69657342D01*
X126194110Y-70343057D02*
X126251253Y-70400200D01*
X126251253Y-70400200D02*
X126194110Y-70457342D01*
X126194110Y-70457342D02*
X126136967Y-70400200D01*
X126136967Y-70400200D02*
X126194110Y-70343057D01*
X126194110Y-70343057D02*
X126194110Y-70457342D01*
X127565539Y-69257342D02*
X128308396Y-69257342D01*
X128308396Y-69257342D02*
X127908396Y-69714485D01*
X127908396Y-69714485D02*
X128079825Y-69714485D01*
X128079825Y-69714485D02*
X128194111Y-69771628D01*
X128194111Y-69771628D02*
X128251253Y-69828771D01*
X128251253Y-69828771D02*
X128308396Y-69943057D01*
X128308396Y-69943057D02*
X128308396Y-70228771D01*
X128308396Y-70228771D02*
X128251253Y-70343057D01*
X128251253Y-70343057D02*
X128194111Y-70400200D01*
X128194111Y-70400200D02*
X128079825Y-70457342D01*
X128079825Y-70457342D02*
X127736968Y-70457342D01*
X127736968Y-70457342D02*
X127622682Y-70400200D01*
X127622682Y-70400200D02*
X127565539Y-70343057D01*
X130708396Y-69543057D02*
X130594111Y-69485914D01*
X130594111Y-69485914D02*
X130365539Y-69485914D01*
X130365539Y-69485914D02*
X130251254Y-69543057D01*
X130251254Y-69543057D02*
X130136968Y-69657342D01*
X130136968Y-69657342D02*
X130079825Y-69771628D01*
X130079825Y-69771628D02*
X130079825Y-70000200D01*
X130079825Y-70000200D02*
X130136968Y-70114485D01*
X130136968Y-70114485D02*
X130251254Y-70228771D01*
X130251254Y-70228771D02*
X130365539Y-70285914D01*
X130365539Y-70285914D02*
X130594111Y-70285914D01*
X130594111Y-70285914D02*
X130708396Y-70228771D01*
X130479825Y-69085914D02*
X130194111Y-69143057D01*
X130194111Y-69143057D02*
X129908396Y-69314485D01*
X129908396Y-69314485D02*
X129736968Y-69600200D01*
X129736968Y-69600200D02*
X129679825Y-69885914D01*
X129679825Y-69885914D02*
X129736968Y-70171628D01*
X129736968Y-70171628D02*
X129908396Y-70457342D01*
X129908396Y-70457342D02*
X130194111Y-70628771D01*
X130194111Y-70628771D02*
X130479825Y-70685914D01*
X130479825Y-70685914D02*
X130765539Y-70628771D01*
X130765539Y-70628771D02*
X131051254Y-70457342D01*
X131051254Y-70457342D02*
X131222682Y-70171628D01*
X131222682Y-70171628D02*
X131279825Y-69885914D01*
X131279825Y-69885914D02*
X131222682Y-69600200D01*
X131222682Y-69600200D02*
X131051254Y-69314485D01*
X131051254Y-69314485D02*
X130765539Y-69143057D01*
X130765539Y-69143057D02*
X130479825Y-69085914D01*
X133394111Y-70343057D02*
X133336968Y-70400200D01*
X133336968Y-70400200D02*
X133165540Y-70457342D01*
X133165540Y-70457342D02*
X133051254Y-70457342D01*
X133051254Y-70457342D02*
X132879825Y-70400200D01*
X132879825Y-70400200D02*
X132765540Y-70285914D01*
X132765540Y-70285914D02*
X132708397Y-70171628D01*
X132708397Y-70171628D02*
X132651254Y-69943057D01*
X132651254Y-69943057D02*
X132651254Y-69771628D01*
X132651254Y-69771628D02*
X132708397Y-69543057D01*
X132708397Y-69543057D02*
X132765540Y-69428771D01*
X132765540Y-69428771D02*
X132879825Y-69314485D01*
X132879825Y-69314485D02*
X133051254Y-69257342D01*
X133051254Y-69257342D02*
X133165540Y-69257342D01*
X133165540Y-69257342D02*
X133336968Y-69314485D01*
X133336968Y-69314485D02*
X133394111Y-69371628D01*
X134079825Y-70457342D02*
X133965540Y-70400200D01*
X133965540Y-70400200D02*
X133908397Y-70343057D01*
X133908397Y-70343057D02*
X133851254Y-70228771D01*
X133851254Y-70228771D02*
X133851254Y-69885914D01*
X133851254Y-69885914D02*
X133908397Y-69771628D01*
X133908397Y-69771628D02*
X133965540Y-69714485D01*
X133965540Y-69714485D02*
X134079825Y-69657342D01*
X134079825Y-69657342D02*
X134251254Y-69657342D01*
X134251254Y-69657342D02*
X134365540Y-69714485D01*
X134365540Y-69714485D02*
X134422683Y-69771628D01*
X134422683Y-69771628D02*
X134479825Y-69885914D01*
X134479825Y-69885914D02*
X134479825Y-70228771D01*
X134479825Y-70228771D02*
X134422683Y-70343057D01*
X134422683Y-70343057D02*
X134365540Y-70400200D01*
X134365540Y-70400200D02*
X134251254Y-70457342D01*
X134251254Y-70457342D02*
X134079825Y-70457342D01*
X134994111Y-69657342D02*
X134994111Y-70857342D01*
X134994111Y-69714485D02*
X135108397Y-69657342D01*
X135108397Y-69657342D02*
X135336968Y-69657342D01*
X135336968Y-69657342D02*
X135451254Y-69714485D01*
X135451254Y-69714485D02*
X135508397Y-69771628D01*
X135508397Y-69771628D02*
X135565539Y-69885914D01*
X135565539Y-69885914D02*
X135565539Y-70228771D01*
X135565539Y-70228771D02*
X135508397Y-70343057D01*
X135508397Y-70343057D02*
X135451254Y-70400200D01*
X135451254Y-70400200D02*
X135336968Y-70457342D01*
X135336968Y-70457342D02*
X135108397Y-70457342D01*
X135108397Y-70457342D02*
X134994111Y-70400200D01*
X135965539Y-69657342D02*
X136251253Y-70457342D01*
X136536968Y-69657342D02*
X136251253Y-70457342D01*
X136251253Y-70457342D02*
X136136968Y-70743057D01*
X136136968Y-70743057D02*
X136079825Y-70800200D01*
X136079825Y-70800200D02*
X135965539Y-70857342D01*
X136994111Y-70457342D02*
X136994111Y-69657342D01*
X136994111Y-69885914D02*
X137051254Y-69771628D01*
X137051254Y-69771628D02*
X137108397Y-69714485D01*
X137108397Y-69714485D02*
X137222682Y-69657342D01*
X137222682Y-69657342D02*
X137336968Y-69657342D01*
X137736968Y-70457342D02*
X137736968Y-69657342D01*
X137736968Y-69257342D02*
X137679825Y-69314485D01*
X137679825Y-69314485D02*
X137736968Y-69371628D01*
X137736968Y-69371628D02*
X137794111Y-69314485D01*
X137794111Y-69314485D02*
X137736968Y-69257342D01*
X137736968Y-69257342D02*
X137736968Y-69371628D01*
X138822683Y-69657342D02*
X138822683Y-70628771D01*
X138822683Y-70628771D02*
X138765540Y-70743057D01*
X138765540Y-70743057D02*
X138708397Y-70800200D01*
X138708397Y-70800200D02*
X138594111Y-70857342D01*
X138594111Y-70857342D02*
X138422683Y-70857342D01*
X138422683Y-70857342D02*
X138308397Y-70800200D01*
X138822683Y-70400200D02*
X138708397Y-70457342D01*
X138708397Y-70457342D02*
X138479825Y-70457342D01*
X138479825Y-70457342D02*
X138365540Y-70400200D01*
X138365540Y-70400200D02*
X138308397Y-70343057D01*
X138308397Y-70343057D02*
X138251254Y-70228771D01*
X138251254Y-70228771D02*
X138251254Y-69885914D01*
X138251254Y-69885914D02*
X138308397Y-69771628D01*
X138308397Y-69771628D02*
X138365540Y-69714485D01*
X138365540Y-69714485D02*
X138479825Y-69657342D01*
X138479825Y-69657342D02*
X138708397Y-69657342D01*
X138708397Y-69657342D02*
X138822683Y-69714485D01*
X139394111Y-70457342D02*
X139394111Y-69257342D01*
X139908397Y-70457342D02*
X139908397Y-69828771D01*
X139908397Y-69828771D02*
X139851254Y-69714485D01*
X139851254Y-69714485D02*
X139736968Y-69657342D01*
X139736968Y-69657342D02*
X139565539Y-69657342D01*
X139565539Y-69657342D02*
X139451254Y-69714485D01*
X139451254Y-69714485D02*
X139394111Y-69771628D01*
X140308396Y-69657342D02*
X140765539Y-69657342D01*
X140479825Y-69257342D02*
X140479825Y-70285914D01*
X140479825Y-70285914D02*
X140536968Y-70400200D01*
X140536968Y-70400200D02*
X140651253Y-70457342D01*
X140651253Y-70457342D02*
X140765539Y-70457342D01*
X142022682Y-69371628D02*
X142079825Y-69314485D01*
X142079825Y-69314485D02*
X142194111Y-69257342D01*
X142194111Y-69257342D02*
X142479825Y-69257342D01*
X142479825Y-69257342D02*
X142594111Y-69314485D01*
X142594111Y-69314485D02*
X142651253Y-69371628D01*
X142651253Y-69371628D02*
X142708396Y-69485914D01*
X142708396Y-69485914D02*
X142708396Y-69600200D01*
X142708396Y-69600200D02*
X142651253Y-69771628D01*
X142651253Y-69771628D02*
X141965539Y-70457342D01*
X141965539Y-70457342D02*
X142708396Y-70457342D01*
X143451253Y-69257342D02*
X143565539Y-69257342D01*
X143565539Y-69257342D02*
X143679825Y-69314485D01*
X143679825Y-69314485D02*
X143736968Y-69371628D01*
X143736968Y-69371628D02*
X143794110Y-69485914D01*
X143794110Y-69485914D02*
X143851253Y-69714485D01*
X143851253Y-69714485D02*
X143851253Y-70000200D01*
X143851253Y-70000200D02*
X143794110Y-70228771D01*
X143794110Y-70228771D02*
X143736968Y-70343057D01*
X143736968Y-70343057D02*
X143679825Y-70400200D01*
X143679825Y-70400200D02*
X143565539Y-70457342D01*
X143565539Y-70457342D02*
X143451253Y-70457342D01*
X143451253Y-70457342D02*
X143336968Y-70400200D01*
X143336968Y-70400200D02*
X143279825Y-70343057D01*
X143279825Y-70343057D02*
X143222682Y-70228771D01*
X143222682Y-70228771D02*
X143165539Y-70000200D01*
X143165539Y-70000200D02*
X143165539Y-69714485D01*
X143165539Y-69714485D02*
X143222682Y-69485914D01*
X143222682Y-69485914D02*
X143279825Y-69371628D01*
X143279825Y-69371628D02*
X143336968Y-69314485D01*
X143336968Y-69314485D02*
X143451253Y-69257342D01*
X144308396Y-69371628D02*
X144365539Y-69314485D01*
X144365539Y-69314485D02*
X144479825Y-69257342D01*
X144479825Y-69257342D02*
X144765539Y-69257342D01*
X144765539Y-69257342D02*
X144879825Y-69314485D01*
X144879825Y-69314485D02*
X144936967Y-69371628D01*
X144936967Y-69371628D02*
X144994110Y-69485914D01*
X144994110Y-69485914D02*
X144994110Y-69600200D01*
X144994110Y-69600200D02*
X144936967Y-69771628D01*
X144936967Y-69771628D02*
X144251253Y-70457342D01*
X144251253Y-70457342D02*
X144994110Y-70457342D01*
X146079824Y-69257342D02*
X145508396Y-69257342D01*
X145508396Y-69257342D02*
X145451253Y-69828771D01*
X145451253Y-69828771D02*
X145508396Y-69771628D01*
X145508396Y-69771628D02*
X145622682Y-69714485D01*
X145622682Y-69714485D02*
X145908396Y-69714485D01*
X145908396Y-69714485D02*
X146022682Y-69771628D01*
X146022682Y-69771628D02*
X146079824Y-69828771D01*
X146079824Y-69828771D02*
X146136967Y-69943057D01*
X146136967Y-69943057D02*
X146136967Y-70228771D01*
X146136967Y-70228771D02*
X146079824Y-70343057D01*
X146079824Y-70343057D02*
X146022682Y-70400200D01*
X146022682Y-70400200D02*
X145908396Y-70457342D01*
X145908396Y-70457342D02*
X145622682Y-70457342D01*
X145622682Y-70457342D02*
X145508396Y-70400200D01*
X145508396Y-70400200D02*
X145451253Y-70343057D01*
X147794110Y-69257342D02*
X148022682Y-69257342D01*
X148022682Y-69257342D02*
X148136967Y-69314485D01*
X148136967Y-69314485D02*
X148251253Y-69428771D01*
X148251253Y-69428771D02*
X148308396Y-69657342D01*
X148308396Y-69657342D02*
X148308396Y-70057342D01*
X148308396Y-70057342D02*
X148251253Y-70285914D01*
X148251253Y-70285914D02*
X148136967Y-70400200D01*
X148136967Y-70400200D02*
X148022682Y-70457342D01*
X148022682Y-70457342D02*
X147794110Y-70457342D01*
X147794110Y-70457342D02*
X147679825Y-70400200D01*
X147679825Y-70400200D02*
X147565539Y-70285914D01*
X147565539Y-70285914D02*
X147508396Y-70057342D01*
X147508396Y-70057342D02*
X147508396Y-69657342D01*
X147508396Y-69657342D02*
X147565539Y-69428771D01*
X147565539Y-69428771D02*
X147679825Y-69314485D01*
X147679825Y-69314485D02*
X147794110Y-69257342D01*
X148765539Y-70400200D02*
X148879825Y-70457342D01*
X148879825Y-70457342D02*
X149108396Y-70457342D01*
X149108396Y-70457342D02*
X149222682Y-70400200D01*
X149222682Y-70400200D02*
X149279825Y-70285914D01*
X149279825Y-70285914D02*
X149279825Y-70228771D01*
X149279825Y-70228771D02*
X149222682Y-70114485D01*
X149222682Y-70114485D02*
X149108396Y-70057342D01*
X149108396Y-70057342D02*
X148936968Y-70057342D01*
X148936968Y-70057342D02*
X148822682Y-70000200D01*
X148822682Y-70000200D02*
X148765539Y-69885914D01*
X148765539Y-69885914D02*
X148765539Y-69828771D01*
X148765539Y-69828771D02*
X148822682Y-69714485D01*
X148822682Y-69714485D02*
X148936968Y-69657342D01*
X148936968Y-69657342D02*
X149108396Y-69657342D01*
X149108396Y-69657342D02*
X149222682Y-69714485D01*
X150308397Y-70400200D02*
X150194111Y-70457342D01*
X150194111Y-70457342D02*
X149965539Y-70457342D01*
X149965539Y-70457342D02*
X149851254Y-70400200D01*
X149851254Y-70400200D02*
X149794111Y-70343057D01*
X149794111Y-70343057D02*
X149736968Y-70228771D01*
X149736968Y-70228771D02*
X149736968Y-69885914D01*
X149736968Y-69885914D02*
X149794111Y-69771628D01*
X149794111Y-69771628D02*
X149851254Y-69714485D01*
X149851254Y-69714485D02*
X149965539Y-69657342D01*
X149965539Y-69657342D02*
X150194111Y-69657342D01*
X150194111Y-69657342D02*
X150308397Y-69714485D01*
X151336968Y-70457342D02*
X151336968Y-69828771D01*
X151336968Y-69828771D02*
X151279825Y-69714485D01*
X151279825Y-69714485D02*
X151165539Y-69657342D01*
X151165539Y-69657342D02*
X150936968Y-69657342D01*
X150936968Y-69657342D02*
X150822682Y-69714485D01*
X151336968Y-70400200D02*
X151222682Y-70457342D01*
X151222682Y-70457342D02*
X150936968Y-70457342D01*
X150936968Y-70457342D02*
X150822682Y-70400200D01*
X150822682Y-70400200D02*
X150765539Y-70285914D01*
X150765539Y-70285914D02*
X150765539Y-70171628D01*
X150765539Y-70171628D02*
X150822682Y-70057342D01*
X150822682Y-70057342D02*
X150936968Y-70000200D01*
X150936968Y-70000200D02*
X151222682Y-70000200D01*
X151222682Y-70000200D02*
X151336968Y-69943057D01*
X151908396Y-70457342D02*
X151908396Y-69657342D01*
X151908396Y-69885914D02*
X151965539Y-69771628D01*
X151965539Y-69771628D02*
X152022682Y-69714485D01*
X152022682Y-69714485D02*
X152136967Y-69657342D01*
X152136967Y-69657342D02*
X152251253Y-69657342D01*
X153394110Y-69257342D02*
X154079825Y-69257342D01*
X153736967Y-70457342D02*
X153736967Y-69257342D01*
X154651253Y-70457342D02*
X154536968Y-70400200D01*
X154536968Y-70400200D02*
X154479825Y-70343057D01*
X154479825Y-70343057D02*
X154422682Y-70228771D01*
X154422682Y-70228771D02*
X154422682Y-69885914D01*
X154422682Y-69885914D02*
X154479825Y-69771628D01*
X154479825Y-69771628D02*
X154536968Y-69714485D01*
X154536968Y-69714485D02*
X154651253Y-69657342D01*
X154651253Y-69657342D02*
X154822682Y-69657342D01*
X154822682Y-69657342D02*
X154936968Y-69714485D01*
X154936968Y-69714485D02*
X154994111Y-69771628D01*
X154994111Y-69771628D02*
X155051253Y-69885914D01*
X155051253Y-69885914D02*
X155051253Y-70228771D01*
X155051253Y-70228771D02*
X154994111Y-70343057D01*
X154994111Y-70343057D02*
X154936968Y-70400200D01*
X154936968Y-70400200D02*
X154822682Y-70457342D01*
X154822682Y-70457342D02*
X154651253Y-70457342D01*
X155736967Y-70457342D02*
X155622682Y-70400200D01*
X155622682Y-70400200D02*
X155565539Y-70285914D01*
X155565539Y-70285914D02*
X155565539Y-69257342D01*
X156651253Y-70400200D02*
X156536967Y-70457342D01*
X156536967Y-70457342D02*
X156308396Y-70457342D01*
X156308396Y-70457342D02*
X156194110Y-70400200D01*
X156194110Y-70400200D02*
X156136967Y-70285914D01*
X156136967Y-70285914D02*
X156136967Y-69828771D01*
X156136967Y-69828771D02*
X156194110Y-69714485D01*
X156194110Y-69714485D02*
X156308396Y-69657342D01*
X156308396Y-69657342D02*
X156536967Y-69657342D01*
X156536967Y-69657342D02*
X156651253Y-69714485D01*
X156651253Y-69714485D02*
X156708396Y-69828771D01*
X156708396Y-69828771D02*
X156708396Y-69943057D01*
X156708396Y-69943057D02*
X156136967Y-70057342D01*
X157736967Y-70457342D02*
X157736967Y-69257342D01*
X157736967Y-70400200D02*
X157622681Y-70457342D01*
X157622681Y-70457342D02*
X157394109Y-70457342D01*
X157394109Y-70457342D02*
X157279824Y-70400200D01*
X157279824Y-70400200D02*
X157222681Y-70343057D01*
X157222681Y-70343057D02*
X157165538Y-70228771D01*
X157165538Y-70228771D02*
X157165538Y-69885914D01*
X157165538Y-69885914D02*
X157222681Y-69771628D01*
X157222681Y-69771628D02*
X157279824Y-69714485D01*
X157279824Y-69714485D02*
X157394109Y-69657342D01*
X157394109Y-69657342D02*
X157622681Y-69657342D01*
X157622681Y-69657342D02*
X157736967Y-69714485D01*
X158479823Y-70457342D02*
X158365538Y-70400200D01*
X158365538Y-70400200D02*
X158308395Y-70343057D01*
X158308395Y-70343057D02*
X158251252Y-70228771D01*
X158251252Y-70228771D02*
X158251252Y-69885914D01*
X158251252Y-69885914D02*
X158308395Y-69771628D01*
X158308395Y-69771628D02*
X158365538Y-69714485D01*
X158365538Y-69714485D02*
X158479823Y-69657342D01*
X158479823Y-69657342D02*
X158651252Y-69657342D01*
X158651252Y-69657342D02*
X158765538Y-69714485D01*
X158765538Y-69714485D02*
X158822681Y-69771628D01*
X158822681Y-69771628D02*
X158879823Y-69885914D01*
X158879823Y-69885914D02*
X158879823Y-70228771D01*
X158879823Y-70228771D02*
X158822681Y-70343057D01*
X158822681Y-70343057D02*
X158765538Y-70400200D01*
X158765538Y-70400200D02*
X158651252Y-70457342D01*
X158651252Y-70457342D02*
X158479823Y-70457342D01*
X160936966Y-69314485D02*
X160822681Y-69257342D01*
X160822681Y-69257342D02*
X160651252Y-69257342D01*
X160651252Y-69257342D02*
X160479823Y-69314485D01*
X160479823Y-69314485D02*
X160365538Y-69428771D01*
X160365538Y-69428771D02*
X160308395Y-69543057D01*
X160308395Y-69543057D02*
X160251252Y-69771628D01*
X160251252Y-69771628D02*
X160251252Y-69943057D01*
X160251252Y-69943057D02*
X160308395Y-70171628D01*
X160308395Y-70171628D02*
X160365538Y-70285914D01*
X160365538Y-70285914D02*
X160479823Y-70400200D01*
X160479823Y-70400200D02*
X160651252Y-70457342D01*
X160651252Y-70457342D02*
X160765538Y-70457342D01*
X160765538Y-70457342D02*
X160936966Y-70400200D01*
X160936966Y-70400200D02*
X160994109Y-70343057D01*
X160994109Y-70343057D02*
X160994109Y-69943057D01*
X160994109Y-69943057D02*
X160765538Y-69943057D01*
X161508395Y-70343057D02*
X161565538Y-70400200D01*
X161565538Y-70400200D02*
X161508395Y-70457342D01*
X161508395Y-70457342D02*
X161451252Y-70400200D01*
X161451252Y-70400200D02*
X161508395Y-70343057D01*
X161508395Y-70343057D02*
X161508395Y-70457342D01*
X163736967Y-69885914D02*
X163679824Y-69828771D01*
X163679824Y-69828771D02*
X163565538Y-69771628D01*
X163565538Y-69771628D02*
X163451253Y-69771628D01*
X163451253Y-69771628D02*
X163336967Y-69828771D01*
X163336967Y-69828771D02*
X163279824Y-69885914D01*
X163279824Y-69885914D02*
X163222681Y-70000200D01*
X163222681Y-70000200D02*
X163222681Y-70114485D01*
X163222681Y-70114485D02*
X163279824Y-70228771D01*
X163279824Y-70228771D02*
X163336967Y-70285914D01*
X163336967Y-70285914D02*
X163451253Y-70343057D01*
X163451253Y-70343057D02*
X163565538Y-70343057D01*
X163565538Y-70343057D02*
X163679824Y-70285914D01*
X163679824Y-70285914D02*
X163736967Y-70228771D01*
X163736967Y-69771628D02*
X163736967Y-70228771D01*
X163736967Y-70228771D02*
X163794110Y-70285914D01*
X163794110Y-70285914D02*
X163851253Y-70285914D01*
X163851253Y-70285914D02*
X163965538Y-70228771D01*
X163965538Y-70228771D02*
X164022681Y-70114485D01*
X164022681Y-70114485D02*
X164022681Y-69828771D01*
X164022681Y-69828771D02*
X163908396Y-69657342D01*
X163908396Y-69657342D02*
X163736967Y-69543057D01*
X163736967Y-69543057D02*
X163508396Y-69485914D01*
X163508396Y-69485914D02*
X163279824Y-69543057D01*
X163279824Y-69543057D02*
X163108396Y-69657342D01*
X163108396Y-69657342D02*
X162994110Y-69828771D01*
X162994110Y-69828771D02*
X162936967Y-70057342D01*
X162936967Y-70057342D02*
X162994110Y-70285914D01*
X162994110Y-70285914D02*
X163108396Y-70457342D01*
X163108396Y-70457342D02*
X163279824Y-70571628D01*
X163279824Y-70571628D02*
X163508396Y-70628771D01*
X163508396Y-70628771D02*
X163736967Y-70571628D01*
X163736967Y-70571628D02*
X163908396Y-70457342D01*
X164536967Y-69657342D02*
X164536967Y-70457342D01*
X164536967Y-69771628D02*
X164594110Y-69714485D01*
X164594110Y-69714485D02*
X164708395Y-69657342D01*
X164708395Y-69657342D02*
X164879824Y-69657342D01*
X164879824Y-69657342D02*
X164994110Y-69714485D01*
X164994110Y-69714485D02*
X165051253Y-69828771D01*
X165051253Y-69828771D02*
X165051253Y-70457342D01*
X166136967Y-70457342D02*
X166136967Y-69828771D01*
X166136967Y-69828771D02*
X166079824Y-69714485D01*
X166079824Y-69714485D02*
X165965538Y-69657342D01*
X165965538Y-69657342D02*
X165736967Y-69657342D01*
X165736967Y-69657342D02*
X165622681Y-69714485D01*
X166136967Y-70400200D02*
X166022681Y-70457342D01*
X166022681Y-70457342D02*
X165736967Y-70457342D01*
X165736967Y-70457342D02*
X165622681Y-70400200D01*
X165622681Y-70400200D02*
X165565538Y-70285914D01*
X165565538Y-70285914D02*
X165565538Y-70171628D01*
X165565538Y-70171628D02*
X165622681Y-70057342D01*
X165622681Y-70057342D02*
X165736967Y-70000200D01*
X165736967Y-70000200D02*
X166022681Y-70000200D01*
X166022681Y-70000200D02*
X166136967Y-69943057D01*
X166708395Y-69657342D02*
X166708395Y-70457342D01*
X166708395Y-69771628D02*
X166765538Y-69714485D01*
X166765538Y-69714485D02*
X166879823Y-69657342D01*
X166879823Y-69657342D02*
X167051252Y-69657342D01*
X167051252Y-69657342D02*
X167165538Y-69714485D01*
X167165538Y-69714485D02*
X167222681Y-69828771D01*
X167222681Y-69828771D02*
X167222681Y-70457342D01*
X167965537Y-70457342D02*
X167851252Y-70400200D01*
X167851252Y-70400200D02*
X167794109Y-70343057D01*
X167794109Y-70343057D02*
X167736966Y-70228771D01*
X167736966Y-70228771D02*
X167736966Y-69885914D01*
X167736966Y-69885914D02*
X167794109Y-69771628D01*
X167794109Y-69771628D02*
X167851252Y-69714485D01*
X167851252Y-69714485D02*
X167965537Y-69657342D01*
X167965537Y-69657342D02*
X168136966Y-69657342D01*
X168136966Y-69657342D02*
X168251252Y-69714485D01*
X168251252Y-69714485D02*
X168308395Y-69771628D01*
X168308395Y-69771628D02*
X168365537Y-69885914D01*
X168365537Y-69885914D02*
X168365537Y-70228771D01*
X168365537Y-70228771D02*
X168308395Y-70343057D01*
X168308395Y-70343057D02*
X168251252Y-70400200D01*
X168251252Y-70400200D02*
X168136966Y-70457342D01*
X168136966Y-70457342D02*
X167965537Y-70457342D01*
X169394109Y-70400200D02*
X169279823Y-70457342D01*
X169279823Y-70457342D02*
X169051251Y-70457342D01*
X169051251Y-70457342D02*
X168936966Y-70400200D01*
X168936966Y-70400200D02*
X168879823Y-70343057D01*
X168879823Y-70343057D02*
X168822680Y-70228771D01*
X168822680Y-70228771D02*
X168822680Y-69885914D01*
X168822680Y-69885914D02*
X168879823Y-69771628D01*
X168879823Y-69771628D02*
X168936966Y-69714485D01*
X168936966Y-69714485D02*
X169051251Y-69657342D01*
X169051251Y-69657342D02*
X169279823Y-69657342D01*
X169279823Y-69657342D02*
X169394109Y-69714485D01*
X169908394Y-70457342D02*
X169908394Y-69257342D01*
X170422680Y-70457342D02*
X170422680Y-69828771D01*
X170422680Y-69828771D02*
X170365537Y-69714485D01*
X170365537Y-69714485D02*
X170251251Y-69657342D01*
X170251251Y-69657342D02*
X170079822Y-69657342D01*
X170079822Y-69657342D02*
X169965537Y-69714485D01*
X169965537Y-69714485D02*
X169908394Y-69771628D01*
X171451251Y-70400200D02*
X171336965Y-70457342D01*
X171336965Y-70457342D02*
X171108394Y-70457342D01*
X171108394Y-70457342D02*
X170994108Y-70400200D01*
X170994108Y-70400200D02*
X170936965Y-70285914D01*
X170936965Y-70285914D02*
X170936965Y-69828771D01*
X170936965Y-69828771D02*
X170994108Y-69714485D01*
X170994108Y-69714485D02*
X171108394Y-69657342D01*
X171108394Y-69657342D02*
X171336965Y-69657342D01*
X171336965Y-69657342D02*
X171451251Y-69714485D01*
X171451251Y-69714485D02*
X171508394Y-69828771D01*
X171508394Y-69828771D02*
X171508394Y-69943057D01*
X171508394Y-69943057D02*
X170936965Y-70057342D01*
X171965536Y-70400200D02*
X172079822Y-70457342D01*
X172079822Y-70457342D02*
X172308393Y-70457342D01*
X172308393Y-70457342D02*
X172422679Y-70400200D01*
X172422679Y-70400200D02*
X172479822Y-70285914D01*
X172479822Y-70285914D02*
X172479822Y-70228771D01*
X172479822Y-70228771D02*
X172422679Y-70114485D01*
X172422679Y-70114485D02*
X172308393Y-70057342D01*
X172308393Y-70057342D02*
X172136965Y-70057342D01*
X172136965Y-70057342D02*
X172022679Y-70000200D01*
X172022679Y-70000200D02*
X171965536Y-69885914D01*
X171965536Y-69885914D02*
X171965536Y-69828771D01*
X171965536Y-69828771D02*
X172022679Y-69714485D01*
X172022679Y-69714485D02*
X172136965Y-69657342D01*
X172136965Y-69657342D02*
X172308393Y-69657342D01*
X172308393Y-69657342D02*
X172422679Y-69714485D01*
X172936965Y-70400200D02*
X173051251Y-70457342D01*
X173051251Y-70457342D02*
X173279822Y-70457342D01*
X173279822Y-70457342D02*
X173394108Y-70400200D01*
X173394108Y-70400200D02*
X173451251Y-70285914D01*
X173451251Y-70285914D02*
X173451251Y-70228771D01*
X173451251Y-70228771D02*
X173394108Y-70114485D01*
X173394108Y-70114485D02*
X173279822Y-70057342D01*
X173279822Y-70057342D02*
X173108394Y-70057342D01*
X173108394Y-70057342D02*
X172994108Y-70000200D01*
X172994108Y-70000200D02*
X172936965Y-69885914D01*
X172936965Y-69885914D02*
X172936965Y-69828771D01*
X172936965Y-69828771D02*
X172994108Y-69714485D01*
X172994108Y-69714485D02*
X173108394Y-69657342D01*
X173108394Y-69657342D02*
X173279822Y-69657342D01*
X173279822Y-69657342D02*
X173394108Y-69714485D01*
X179930588Y-79117819D02*
X179359160Y-79117819D01*
X179644874Y-79117819D02*
X179644874Y-78117819D01*
X179644874Y-78117819D02*
X179549636Y-78260676D01*
X179549636Y-78260676D02*
X179454398Y-78355914D01*
X179454398Y-78355914D02*
X179359160Y-78403533D01*
X180549636Y-78117819D02*
X180644874Y-78117819D01*
X180644874Y-78117819D02*
X180740112Y-78165438D01*
X180740112Y-78165438D02*
X180787731Y-78213057D01*
X180787731Y-78213057D02*
X180835350Y-78308295D01*
X180835350Y-78308295D02*
X180882969Y-78498771D01*
X180882969Y-78498771D02*
X180882969Y-78736866D01*
X180882969Y-78736866D02*
X180835350Y-78927342D01*
X180835350Y-78927342D02*
X180787731Y-79022580D01*
X180787731Y-79022580D02*
X180740112Y-79070200D01*
X180740112Y-79070200D02*
X180644874Y-79117819D01*
X180644874Y-79117819D02*
X180549636Y-79117819D01*
X180549636Y-79117819D02*
X180454398Y-79070200D01*
X180454398Y-79070200D02*
X180406779Y-79022580D01*
X180406779Y-79022580D02*
X180359160Y-78927342D01*
X180359160Y-78927342D02*
X180311541Y-78736866D01*
X180311541Y-78736866D02*
X180311541Y-78498771D01*
X180311541Y-78498771D02*
X180359160Y-78308295D01*
X180359160Y-78308295D02*
X180406779Y-78213057D01*
X180406779Y-78213057D02*
X180454398Y-78165438D01*
X180454398Y-78165438D02*
X180549636Y-78117819D01*
X181311541Y-79117819D02*
X181311541Y-78451152D01*
X181311541Y-78546390D02*
X181359160Y-78498771D01*
X181359160Y-78498771D02*
X181454398Y-78451152D01*
X181454398Y-78451152D02*
X181597255Y-78451152D01*
X181597255Y-78451152D02*
X181692493Y-78498771D01*
X181692493Y-78498771D02*
X181740112Y-78594009D01*
X181740112Y-78594009D02*
X181740112Y-79117819D01*
X181740112Y-78594009D02*
X181787731Y-78498771D01*
X181787731Y-78498771D02*
X181882969Y-78451152D01*
X181882969Y-78451152D02*
X182025826Y-78451152D01*
X182025826Y-78451152D02*
X182121065Y-78498771D01*
X182121065Y-78498771D02*
X182168684Y-78594009D01*
X182168684Y-78594009D02*
X182168684Y-79117819D01*
X182644874Y-79117819D02*
X182644874Y-78117819D01*
X183073445Y-79117819D02*
X183073445Y-78594009D01*
X183073445Y-78594009D02*
X183025826Y-78498771D01*
X183025826Y-78498771D02*
X182930588Y-78451152D01*
X182930588Y-78451152D02*
X182787731Y-78451152D01*
X182787731Y-78451152D02*
X182692493Y-78498771D01*
X182692493Y-78498771D02*
X182644874Y-78546390D01*
X183454398Y-78451152D02*
X183978207Y-78451152D01*
X183978207Y-78451152D02*
X183454398Y-79117819D01*
X183454398Y-79117819D02*
X183978207Y-79117819D01*
X101492255Y-107454819D02*
X101587493Y-107454819D01*
X101587493Y-107454819D02*
X101682731Y-107502438D01*
X101682731Y-107502438D02*
X101730350Y-107550057D01*
X101730350Y-107550057D02*
X101777969Y-107645295D01*
X101777969Y-107645295D02*
X101825588Y-107835771D01*
X101825588Y-107835771D02*
X101825588Y-108073866D01*
X101825588Y-108073866D02*
X101777969Y-108264342D01*
X101777969Y-108264342D02*
X101730350Y-108359580D01*
X101730350Y-108359580D02*
X101682731Y-108407200D01*
X101682731Y-108407200D02*
X101587493Y-108454819D01*
X101587493Y-108454819D02*
X101492255Y-108454819D01*
X101492255Y-108454819D02*
X101397017Y-108407200D01*
X101397017Y-108407200D02*
X101349398Y-108359580D01*
X101349398Y-108359580D02*
X101301779Y-108264342D01*
X101301779Y-108264342D02*
X101254160Y-108073866D01*
X101254160Y-108073866D02*
X101254160Y-107835771D01*
X101254160Y-107835771D02*
X101301779Y-107645295D01*
X101301779Y-107645295D02*
X101349398Y-107550057D01*
X101349398Y-107550057D02*
X101397017Y-107502438D01*
X101397017Y-107502438D02*
X101492255Y-107454819D01*
X102777969Y-108454819D02*
X102206541Y-108454819D01*
X102492255Y-108454819D02*
X102492255Y-107454819D01*
X102492255Y-107454819D02*
X102397017Y-107597676D01*
X102397017Y-107597676D02*
X102301779Y-107692914D01*
X102301779Y-107692914D02*
X102206541Y-107740533D01*
X103682731Y-107454819D02*
X103206541Y-107454819D01*
X103206541Y-107454819D02*
X103158922Y-107931009D01*
X103158922Y-107931009D02*
X103206541Y-107883390D01*
X103206541Y-107883390D02*
X103301779Y-107835771D01*
X103301779Y-107835771D02*
X103539874Y-107835771D01*
X103539874Y-107835771D02*
X103635112Y-107883390D01*
X103635112Y-107883390D02*
X103682731Y-107931009D01*
X103682731Y-107931009D02*
X103730350Y-108026247D01*
X103730350Y-108026247D02*
X103730350Y-108264342D01*
X103730350Y-108264342D02*
X103682731Y-108359580D01*
X103682731Y-108359580D02*
X103635112Y-108407200D01*
X103635112Y-108407200D02*
X103539874Y-108454819D01*
X103539874Y-108454819D02*
X103301779Y-108454819D01*
X103301779Y-108454819D02*
X103206541Y-108407200D01*
X103206541Y-108407200D02*
X103158922Y-108359580D01*
X104349398Y-107454819D02*
X104444636Y-107454819D01*
X104444636Y-107454819D02*
X104539874Y-107502438D01*
X104539874Y-107502438D02*
X104587493Y-107550057D01*
X104587493Y-107550057D02*
X104635112Y-107645295D01*
X104635112Y-107645295D02*
X104682731Y-107835771D01*
X104682731Y-107835771D02*
X104682731Y-108073866D01*
X104682731Y-108073866D02*
X104635112Y-108264342D01*
X104635112Y-108264342D02*
X104587493Y-108359580D01*
X104587493Y-108359580D02*
X104539874Y-108407200D01*
X104539874Y-108407200D02*
X104444636Y-108454819D01*
X104444636Y-108454819D02*
X104349398Y-108454819D01*
X104349398Y-108454819D02*
X104254160Y-108407200D01*
X104254160Y-108407200D02*
X104206541Y-108359580D01*
X104206541Y-108359580D02*
X104158922Y-108264342D01*
X104158922Y-108264342D02*
X104111303Y-108073866D01*
X104111303Y-108073866D02*
X104111303Y-107835771D01*
X104111303Y-107835771D02*
X104158922Y-107645295D01*
X104158922Y-107645295D02*
X104206541Y-107550057D01*
X104206541Y-107550057D02*
X104254160Y-107502438D01*
X104254160Y-107502438D02*
X104349398Y-107454819D01*
X105111303Y-108454819D02*
X105111303Y-107454819D01*
X105111303Y-107931009D02*
X105682731Y-107931009D01*
X105682731Y-108454819D02*
X105682731Y-107454819D01*
X117367255Y-107454819D02*
X117462493Y-107454819D01*
X117462493Y-107454819D02*
X117557731Y-107502438D01*
X117557731Y-107502438D02*
X117605350Y-107550057D01*
X117605350Y-107550057D02*
X117652969Y-107645295D01*
X117652969Y-107645295D02*
X117700588Y-107835771D01*
X117700588Y-107835771D02*
X117700588Y-108073866D01*
X117700588Y-108073866D02*
X117652969Y-108264342D01*
X117652969Y-108264342D02*
X117605350Y-108359580D01*
X117605350Y-108359580D02*
X117557731Y-108407200D01*
X117557731Y-108407200D02*
X117462493Y-108454819D01*
X117462493Y-108454819D02*
X117367255Y-108454819D01*
X117367255Y-108454819D02*
X117272017Y-108407200D01*
X117272017Y-108407200D02*
X117224398Y-108359580D01*
X117224398Y-108359580D02*
X117176779Y-108264342D01*
X117176779Y-108264342D02*
X117129160Y-108073866D01*
X117129160Y-108073866D02*
X117129160Y-107835771D01*
X117129160Y-107835771D02*
X117176779Y-107645295D01*
X117176779Y-107645295D02*
X117224398Y-107550057D01*
X117224398Y-107550057D02*
X117272017Y-107502438D01*
X117272017Y-107502438D02*
X117367255Y-107454819D01*
X118652969Y-108454819D02*
X118081541Y-108454819D01*
X118367255Y-108454819D02*
X118367255Y-107454819D01*
X118367255Y-107454819D02*
X118272017Y-107597676D01*
X118272017Y-107597676D02*
X118176779Y-107692914D01*
X118176779Y-107692914D02*
X118081541Y-107740533D01*
X118986303Y-107454819D02*
X119652969Y-107454819D01*
X119652969Y-107454819D02*
X119224398Y-108454819D01*
X120224398Y-107454819D02*
X120319636Y-107454819D01*
X120319636Y-107454819D02*
X120414874Y-107502438D01*
X120414874Y-107502438D02*
X120462493Y-107550057D01*
X120462493Y-107550057D02*
X120510112Y-107645295D01*
X120510112Y-107645295D02*
X120557731Y-107835771D01*
X120557731Y-107835771D02*
X120557731Y-108073866D01*
X120557731Y-108073866D02*
X120510112Y-108264342D01*
X120510112Y-108264342D02*
X120462493Y-108359580D01*
X120462493Y-108359580D02*
X120414874Y-108407200D01*
X120414874Y-108407200D02*
X120319636Y-108454819D01*
X120319636Y-108454819D02*
X120224398Y-108454819D01*
X120224398Y-108454819D02*
X120129160Y-108407200D01*
X120129160Y-108407200D02*
X120081541Y-108359580D01*
X120081541Y-108359580D02*
X120033922Y-108264342D01*
X120033922Y-108264342D02*
X119986303Y-108073866D01*
X119986303Y-108073866D02*
X119986303Y-107835771D01*
X119986303Y-107835771D02*
X120033922Y-107645295D01*
X120033922Y-107645295D02*
X120081541Y-107550057D01*
X120081541Y-107550057D02*
X120129160Y-107502438D01*
X120129160Y-107502438D02*
X120224398Y-107454819D01*
X120986303Y-108454819D02*
X120986303Y-107454819D01*
X120986303Y-107931009D02*
X121557731Y-107931009D01*
X121557731Y-108454819D02*
X121557731Y-107454819D01*
X168754588Y-86229819D02*
X168183160Y-86229819D01*
X168468874Y-86229819D02*
X168468874Y-85229819D01*
X168468874Y-85229819D02*
X168373636Y-85372676D01*
X168373636Y-85372676D02*
X168278398Y-85467914D01*
X168278398Y-85467914D02*
X168183160Y-85515533D01*
X169373636Y-85229819D02*
X169468874Y-85229819D01*
X169468874Y-85229819D02*
X169564112Y-85277438D01*
X169564112Y-85277438D02*
X169611731Y-85325057D01*
X169611731Y-85325057D02*
X169659350Y-85420295D01*
X169659350Y-85420295D02*
X169706969Y-85610771D01*
X169706969Y-85610771D02*
X169706969Y-85848866D01*
X169706969Y-85848866D02*
X169659350Y-86039342D01*
X169659350Y-86039342D02*
X169611731Y-86134580D01*
X169611731Y-86134580D02*
X169564112Y-86182200D01*
X169564112Y-86182200D02*
X169468874Y-86229819D01*
X169468874Y-86229819D02*
X169373636Y-86229819D01*
X169373636Y-86229819D02*
X169278398Y-86182200D01*
X169278398Y-86182200D02*
X169230779Y-86134580D01*
X169230779Y-86134580D02*
X169183160Y-86039342D01*
X169183160Y-86039342D02*
X169135541Y-85848866D01*
X169135541Y-85848866D02*
X169135541Y-85610771D01*
X169135541Y-85610771D02*
X169183160Y-85420295D01*
X169183160Y-85420295D02*
X169230779Y-85325057D01*
X169230779Y-85325057D02*
X169278398Y-85277438D01*
X169278398Y-85277438D02*
X169373636Y-85229819D01*
X170135541Y-86229819D02*
X170135541Y-85563152D01*
X170135541Y-85658390D02*
X170183160Y-85610771D01*
X170183160Y-85610771D02*
X170278398Y-85563152D01*
X170278398Y-85563152D02*
X170421255Y-85563152D01*
X170421255Y-85563152D02*
X170516493Y-85610771D01*
X170516493Y-85610771D02*
X170564112Y-85706009D01*
X170564112Y-85706009D02*
X170564112Y-86229819D01*
X170564112Y-85706009D02*
X170611731Y-85610771D01*
X170611731Y-85610771D02*
X170706969Y-85563152D01*
X170706969Y-85563152D02*
X170849826Y-85563152D01*
X170849826Y-85563152D02*
X170945065Y-85610771D01*
X170945065Y-85610771D02*
X170992684Y-85706009D01*
X170992684Y-85706009D02*
X170992684Y-86229819D01*
X171468874Y-86229819D02*
X171468874Y-85229819D01*
X171468874Y-85610771D02*
X171564112Y-85563152D01*
X171564112Y-85563152D02*
X171754588Y-85563152D01*
X171754588Y-85563152D02*
X171849826Y-85610771D01*
X171849826Y-85610771D02*
X171897445Y-85658390D01*
X171897445Y-85658390D02*
X171945064Y-85753628D01*
X171945064Y-85753628D02*
X171945064Y-86039342D01*
X171945064Y-86039342D02*
X171897445Y-86134580D01*
X171897445Y-86134580D02*
X171849826Y-86182200D01*
X171849826Y-86182200D02*
X171754588Y-86229819D01*
X171754588Y-86229819D02*
X171564112Y-86229819D01*
X171564112Y-86229819D02*
X171468874Y-86182200D01*
X121494779Y-104644866D02*
X122256684Y-104644866D01*
X121875731Y-105025819D02*
X121875731Y-104263914D01*
X153451160Y-108296104D02*
X153927350Y-108296104D01*
X153355922Y-108581819D02*
X153689255Y-107581819D01*
X153689255Y-107581819D02*
X154022588Y-108581819D01*
X154498779Y-108581819D02*
X154403541Y-108534200D01*
X154403541Y-108534200D02*
X154355922Y-108438961D01*
X154355922Y-108438961D02*
X154355922Y-107581819D01*
X155022589Y-108581819D02*
X154927351Y-108534200D01*
X154927351Y-108534200D02*
X154879732Y-108438961D01*
X154879732Y-108438961D02*
X154879732Y-107581819D01*
X156308304Y-108581819D02*
X156213066Y-108534200D01*
X156213066Y-108534200D02*
X156165447Y-108486580D01*
X156165447Y-108486580D02*
X156117828Y-108391342D01*
X156117828Y-108391342D02*
X156117828Y-108105628D01*
X156117828Y-108105628D02*
X156165447Y-108010390D01*
X156165447Y-108010390D02*
X156213066Y-107962771D01*
X156213066Y-107962771D02*
X156308304Y-107915152D01*
X156308304Y-107915152D02*
X156451161Y-107915152D01*
X156451161Y-107915152D02*
X156546399Y-107962771D01*
X156546399Y-107962771D02*
X156594018Y-108010390D01*
X156594018Y-108010390D02*
X156641637Y-108105628D01*
X156641637Y-108105628D02*
X156641637Y-108391342D01*
X156641637Y-108391342D02*
X156594018Y-108486580D01*
X156594018Y-108486580D02*
X156546399Y-108534200D01*
X156546399Y-108534200D02*
X156451161Y-108581819D01*
X156451161Y-108581819D02*
X156308304Y-108581819D01*
X156927352Y-107915152D02*
X157308304Y-107915152D01*
X157070209Y-107581819D02*
X157070209Y-108438961D01*
X157070209Y-108438961D02*
X157117828Y-108534200D01*
X157117828Y-108534200D02*
X157213066Y-108581819D01*
X157213066Y-108581819D02*
X157308304Y-108581819D01*
X157641638Y-108581819D02*
X157641638Y-107581819D01*
X158070209Y-108581819D02*
X158070209Y-108058009D01*
X158070209Y-108058009D02*
X158022590Y-107962771D01*
X158022590Y-107962771D02*
X157927352Y-107915152D01*
X157927352Y-107915152D02*
X157784495Y-107915152D01*
X157784495Y-107915152D02*
X157689257Y-107962771D01*
X157689257Y-107962771D02*
X157641638Y-108010390D01*
X158927352Y-108534200D02*
X158832114Y-108581819D01*
X158832114Y-108581819D02*
X158641638Y-108581819D01*
X158641638Y-108581819D02*
X158546400Y-108534200D01*
X158546400Y-108534200D02*
X158498781Y-108438961D01*
X158498781Y-108438961D02*
X158498781Y-108058009D01*
X158498781Y-108058009D02*
X158546400Y-107962771D01*
X158546400Y-107962771D02*
X158641638Y-107915152D01*
X158641638Y-107915152D02*
X158832114Y-107915152D01*
X158832114Y-107915152D02*
X158927352Y-107962771D01*
X158927352Y-107962771D02*
X158974971Y-108058009D01*
X158974971Y-108058009D02*
X158974971Y-108153247D01*
X158974971Y-108153247D02*
X158498781Y-108248485D01*
X159403543Y-108581819D02*
X159403543Y-107915152D01*
X159403543Y-108105628D02*
X159451162Y-108010390D01*
X159451162Y-108010390D02*
X159498781Y-107962771D01*
X159498781Y-107962771D02*
X159594019Y-107915152D01*
X159594019Y-107915152D02*
X159689257Y-107915152D01*
X159974972Y-108534200D02*
X160070210Y-108581819D01*
X160070210Y-108581819D02*
X160260686Y-108581819D01*
X160260686Y-108581819D02*
X160355924Y-108534200D01*
X160355924Y-108534200D02*
X160403543Y-108438961D01*
X160403543Y-108438961D02*
X160403543Y-108391342D01*
X160403543Y-108391342D02*
X160355924Y-108296104D01*
X160355924Y-108296104D02*
X160260686Y-108248485D01*
X160260686Y-108248485D02*
X160117829Y-108248485D01*
X160117829Y-108248485D02*
X160022591Y-108200866D01*
X160022591Y-108200866D02*
X159974972Y-108105628D01*
X159974972Y-108105628D02*
X159974972Y-108058009D01*
X159974972Y-108058009D02*
X160022591Y-107962771D01*
X160022591Y-107962771D02*
X160117829Y-107915152D01*
X160117829Y-107915152D02*
X160260686Y-107915152D01*
X160260686Y-107915152D02*
X160355924Y-107962771D01*
X162165448Y-108486580D02*
X162117829Y-108534200D01*
X162117829Y-108534200D02*
X161974972Y-108581819D01*
X161974972Y-108581819D02*
X161879734Y-108581819D01*
X161879734Y-108581819D02*
X161736877Y-108534200D01*
X161736877Y-108534200D02*
X161641639Y-108438961D01*
X161641639Y-108438961D02*
X161594020Y-108343723D01*
X161594020Y-108343723D02*
X161546401Y-108153247D01*
X161546401Y-108153247D02*
X161546401Y-108010390D01*
X161546401Y-108010390D02*
X161594020Y-107819914D01*
X161594020Y-107819914D02*
X161641639Y-107724676D01*
X161641639Y-107724676D02*
X161736877Y-107629438D01*
X161736877Y-107629438D02*
X161879734Y-107581819D01*
X161879734Y-107581819D02*
X161974972Y-107581819D01*
X161974972Y-107581819D02*
X162117829Y-107629438D01*
X162117829Y-107629438D02*
X162165448Y-107677057D01*
X163355925Y-108058009D02*
X164117830Y-108058009D01*
X164117830Y-108343723D02*
X163355925Y-108343723D01*
X165546401Y-107581819D02*
X165641639Y-107581819D01*
X165641639Y-107581819D02*
X165736877Y-107629438D01*
X165736877Y-107629438D02*
X165784496Y-107677057D01*
X165784496Y-107677057D02*
X165832115Y-107772295D01*
X165832115Y-107772295D02*
X165879734Y-107962771D01*
X165879734Y-107962771D02*
X165879734Y-108200866D01*
X165879734Y-108200866D02*
X165832115Y-108391342D01*
X165832115Y-108391342D02*
X165784496Y-108486580D01*
X165784496Y-108486580D02*
X165736877Y-108534200D01*
X165736877Y-108534200D02*
X165641639Y-108581819D01*
X165641639Y-108581819D02*
X165546401Y-108581819D01*
X165546401Y-108581819D02*
X165451163Y-108534200D01*
X165451163Y-108534200D02*
X165403544Y-108486580D01*
X165403544Y-108486580D02*
X165355925Y-108391342D01*
X165355925Y-108391342D02*
X165308306Y-108200866D01*
X165308306Y-108200866D02*
X165308306Y-107962771D01*
X165308306Y-107962771D02*
X165355925Y-107772295D01*
X165355925Y-107772295D02*
X165403544Y-107677057D01*
X165403544Y-107677057D02*
X165451163Y-107629438D01*
X165451163Y-107629438D02*
X165546401Y-107581819D01*
X166308306Y-108486580D02*
X166355925Y-108534200D01*
X166355925Y-108534200D02*
X166308306Y-108581819D01*
X166308306Y-108581819D02*
X166260687Y-108534200D01*
X166260687Y-108534200D02*
X166308306Y-108486580D01*
X166308306Y-108486580D02*
X166308306Y-108581819D01*
X167308305Y-108581819D02*
X166736877Y-108581819D01*
X167022591Y-108581819D02*
X167022591Y-107581819D01*
X167022591Y-107581819D02*
X166927353Y-107724676D01*
X166927353Y-107724676D02*
X166832115Y-107819914D01*
X166832115Y-107819914D02*
X166736877Y-107867533D01*
X167736877Y-107915152D02*
X167736877Y-108915152D01*
X168213067Y-108438961D02*
X168260686Y-108534200D01*
X168260686Y-108534200D02*
X168355924Y-108581819D01*
X167736877Y-108438961D02*
X167784496Y-108534200D01*
X167784496Y-108534200D02*
X167879734Y-108581819D01*
X167879734Y-108581819D02*
X168070210Y-108581819D01*
X168070210Y-108581819D02*
X168165448Y-108534200D01*
X168165448Y-108534200D02*
X168213067Y-108438961D01*
X168213067Y-108438961D02*
X168213067Y-107915152D01*
X169117829Y-108058009D02*
X168784496Y-108058009D01*
X168784496Y-108581819D02*
X168784496Y-107581819D01*
X168784496Y-107581819D02*
X169260686Y-107581819D01*
X176263541Y-114947819D02*
X176930207Y-114947819D01*
X176930207Y-114947819D02*
X176501636Y-115947819D01*
X177739731Y-115281152D02*
X177739731Y-115947819D01*
X177501636Y-114900200D02*
X177263541Y-115614485D01*
X177263541Y-115614485D02*
X177882588Y-115614485D01*
X178739731Y-115947819D02*
X178263541Y-115947819D01*
X178263541Y-115947819D02*
X178263541Y-114947819D01*
X179025446Y-115900200D02*
X179168303Y-115947819D01*
X179168303Y-115947819D02*
X179406398Y-115947819D01*
X179406398Y-115947819D02*
X179501636Y-115900200D01*
X179501636Y-115900200D02*
X179549255Y-115852580D01*
X179549255Y-115852580D02*
X179596874Y-115757342D01*
X179596874Y-115757342D02*
X179596874Y-115662104D01*
X179596874Y-115662104D02*
X179549255Y-115566866D01*
X179549255Y-115566866D02*
X179501636Y-115519247D01*
X179501636Y-115519247D02*
X179406398Y-115471628D01*
X179406398Y-115471628D02*
X179215922Y-115424009D01*
X179215922Y-115424009D02*
X179120684Y-115376390D01*
X179120684Y-115376390D02*
X179073065Y-115328771D01*
X179073065Y-115328771D02*
X179025446Y-115233533D01*
X179025446Y-115233533D02*
X179025446Y-115138295D01*
X179025446Y-115138295D02*
X179073065Y-115043057D01*
X179073065Y-115043057D02*
X179120684Y-114995438D01*
X179120684Y-114995438D02*
X179215922Y-114947819D01*
X179215922Y-114947819D02*
X179454017Y-114947819D01*
X179454017Y-114947819D02*
X179596874Y-114995438D01*
X179977827Y-115043057D02*
X180025446Y-114995438D01*
X180025446Y-114995438D02*
X180120684Y-114947819D01*
X180120684Y-114947819D02*
X180358779Y-114947819D01*
X180358779Y-114947819D02*
X180454017Y-114995438D01*
X180454017Y-114995438D02*
X180501636Y-115043057D01*
X180501636Y-115043057D02*
X180549255Y-115138295D01*
X180549255Y-115138295D02*
X180549255Y-115233533D01*
X180549255Y-115233533D02*
X180501636Y-115376390D01*
X180501636Y-115376390D02*
X179930208Y-115947819D01*
X179930208Y-115947819D02*
X180549255Y-115947819D01*
X181406398Y-115281152D02*
X181406398Y-115947819D01*
X181168303Y-114900200D02*
X180930208Y-115614485D01*
X180930208Y-115614485D02*
X181549255Y-115614485D01*
X182406398Y-114947819D02*
X181930208Y-114947819D01*
X181930208Y-114947819D02*
X181882589Y-115424009D01*
X181882589Y-115424009D02*
X181930208Y-115376390D01*
X181930208Y-115376390D02*
X182025446Y-115328771D01*
X182025446Y-115328771D02*
X182263541Y-115328771D01*
X182263541Y-115328771D02*
X182358779Y-115376390D01*
X182358779Y-115376390D02*
X182406398Y-115424009D01*
X182406398Y-115424009D02*
X182454017Y-115519247D01*
X182454017Y-115519247D02*
X182454017Y-115757342D01*
X182454017Y-115757342D02*
X182406398Y-115852580D01*
X182406398Y-115852580D02*
X182358779Y-115900200D01*
X182358779Y-115900200D02*
X182263541Y-115947819D01*
X182263541Y-115947819D02*
X182025446Y-115947819D01*
X182025446Y-115947819D02*
X181930208Y-115900200D01*
X181930208Y-115900200D02*
X181882589Y-115852580D01*
X150609541Y-114947819D02*
X151276207Y-114947819D01*
X151276207Y-114947819D02*
X150847636Y-115947819D01*
X152085731Y-115281152D02*
X152085731Y-115947819D01*
X151847636Y-114900200D02*
X151609541Y-115614485D01*
X151609541Y-115614485D02*
X152228588Y-115614485D01*
X153085731Y-115947819D02*
X152609541Y-115947819D01*
X152609541Y-115947819D02*
X152609541Y-114947819D01*
X153371446Y-115900200D02*
X153514303Y-115947819D01*
X153514303Y-115947819D02*
X153752398Y-115947819D01*
X153752398Y-115947819D02*
X153847636Y-115900200D01*
X153847636Y-115900200D02*
X153895255Y-115852580D01*
X153895255Y-115852580D02*
X153942874Y-115757342D01*
X153942874Y-115757342D02*
X153942874Y-115662104D01*
X153942874Y-115662104D02*
X153895255Y-115566866D01*
X153895255Y-115566866D02*
X153847636Y-115519247D01*
X153847636Y-115519247D02*
X153752398Y-115471628D01*
X153752398Y-115471628D02*
X153561922Y-115424009D01*
X153561922Y-115424009D02*
X153466684Y-115376390D01*
X153466684Y-115376390D02*
X153419065Y-115328771D01*
X153419065Y-115328771D02*
X153371446Y-115233533D01*
X153371446Y-115233533D02*
X153371446Y-115138295D01*
X153371446Y-115138295D02*
X153419065Y-115043057D01*
X153419065Y-115043057D02*
X153466684Y-114995438D01*
X153466684Y-114995438D02*
X153561922Y-114947819D01*
X153561922Y-114947819D02*
X153800017Y-114947819D01*
X153800017Y-114947819D02*
X153942874Y-114995438D01*
X154895255Y-115947819D02*
X154323827Y-115947819D01*
X154609541Y-115947819D02*
X154609541Y-114947819D01*
X154609541Y-114947819D02*
X154514303Y-115090676D01*
X154514303Y-115090676D02*
X154419065Y-115185914D01*
X154419065Y-115185914D02*
X154323827Y-115233533D01*
X155228589Y-114947819D02*
X155847636Y-114947819D01*
X155847636Y-114947819D02*
X155514303Y-115328771D01*
X155514303Y-115328771D02*
X155657160Y-115328771D01*
X155657160Y-115328771D02*
X155752398Y-115376390D01*
X155752398Y-115376390D02*
X155800017Y-115424009D01*
X155800017Y-115424009D02*
X155847636Y-115519247D01*
X155847636Y-115519247D02*
X155847636Y-115757342D01*
X155847636Y-115757342D02*
X155800017Y-115852580D01*
X155800017Y-115852580D02*
X155752398Y-115900200D01*
X155752398Y-115900200D02*
X155657160Y-115947819D01*
X155657160Y-115947819D02*
X155371446Y-115947819D01*
X155371446Y-115947819D02*
X155276208Y-115900200D01*
X155276208Y-115900200D02*
X155228589Y-115852580D01*
X156419065Y-115376390D02*
X156323827Y-115328771D01*
X156323827Y-115328771D02*
X156276208Y-115281152D01*
X156276208Y-115281152D02*
X156228589Y-115185914D01*
X156228589Y-115185914D02*
X156228589Y-115138295D01*
X156228589Y-115138295D02*
X156276208Y-115043057D01*
X156276208Y-115043057D02*
X156323827Y-114995438D01*
X156323827Y-114995438D02*
X156419065Y-114947819D01*
X156419065Y-114947819D02*
X156609541Y-114947819D01*
X156609541Y-114947819D02*
X156704779Y-114995438D01*
X156704779Y-114995438D02*
X156752398Y-115043057D01*
X156752398Y-115043057D02*
X156800017Y-115138295D01*
X156800017Y-115138295D02*
X156800017Y-115185914D01*
X156800017Y-115185914D02*
X156752398Y-115281152D01*
X156752398Y-115281152D02*
X156704779Y-115328771D01*
X156704779Y-115328771D02*
X156609541Y-115376390D01*
X156609541Y-115376390D02*
X156419065Y-115376390D01*
X156419065Y-115376390D02*
X156323827Y-115424009D01*
X156323827Y-115424009D02*
X156276208Y-115471628D01*
X156276208Y-115471628D02*
X156228589Y-115566866D01*
X156228589Y-115566866D02*
X156228589Y-115757342D01*
X156228589Y-115757342D02*
X156276208Y-115852580D01*
X156276208Y-115852580D02*
X156323827Y-115900200D01*
X156323827Y-115900200D02*
X156419065Y-115947819D01*
X156419065Y-115947819D02*
X156609541Y-115947819D01*
X156609541Y-115947819D02*
X156704779Y-115900200D01*
X156704779Y-115900200D02*
X156752398Y-115852580D01*
X156752398Y-115852580D02*
X156800017Y-115757342D01*
X156800017Y-115757342D02*
X156800017Y-115566866D01*
X156800017Y-115566866D02*
X156752398Y-115471628D01*
X156752398Y-115471628D02*
X156704779Y-115424009D01*
X156704779Y-115424009D02*
X156609541Y-115376390D01*
X109207541Y-114947819D02*
X109874207Y-114947819D01*
X109874207Y-114947819D02*
X109445636Y-115947819D01*
X110683731Y-115281152D02*
X110683731Y-115947819D01*
X110445636Y-114900200D02*
X110207541Y-115614485D01*
X110207541Y-115614485D02*
X110826588Y-115614485D01*
X111683731Y-115947819D02*
X111207541Y-115947819D01*
X111207541Y-115947819D02*
X111207541Y-114947819D01*
X111969446Y-115900200D02*
X112112303Y-115947819D01*
X112112303Y-115947819D02*
X112350398Y-115947819D01*
X112350398Y-115947819D02*
X112445636Y-115900200D01*
X112445636Y-115900200D02*
X112493255Y-115852580D01*
X112493255Y-115852580D02*
X112540874Y-115757342D01*
X112540874Y-115757342D02*
X112540874Y-115662104D01*
X112540874Y-115662104D02*
X112493255Y-115566866D01*
X112493255Y-115566866D02*
X112445636Y-115519247D01*
X112445636Y-115519247D02*
X112350398Y-115471628D01*
X112350398Y-115471628D02*
X112159922Y-115424009D01*
X112159922Y-115424009D02*
X112064684Y-115376390D01*
X112064684Y-115376390D02*
X112017065Y-115328771D01*
X112017065Y-115328771D02*
X111969446Y-115233533D01*
X111969446Y-115233533D02*
X111969446Y-115138295D01*
X111969446Y-115138295D02*
X112017065Y-115043057D01*
X112017065Y-115043057D02*
X112064684Y-114995438D01*
X112064684Y-114995438D02*
X112159922Y-114947819D01*
X112159922Y-114947819D02*
X112398017Y-114947819D01*
X112398017Y-114947819D02*
X112540874Y-114995438D01*
X113159922Y-114947819D02*
X113255160Y-114947819D01*
X113255160Y-114947819D02*
X113350398Y-114995438D01*
X113350398Y-114995438D02*
X113398017Y-115043057D01*
X113398017Y-115043057D02*
X113445636Y-115138295D01*
X113445636Y-115138295D02*
X113493255Y-115328771D01*
X113493255Y-115328771D02*
X113493255Y-115566866D01*
X113493255Y-115566866D02*
X113445636Y-115757342D01*
X113445636Y-115757342D02*
X113398017Y-115852580D01*
X113398017Y-115852580D02*
X113350398Y-115900200D01*
X113350398Y-115900200D02*
X113255160Y-115947819D01*
X113255160Y-115947819D02*
X113159922Y-115947819D01*
X113159922Y-115947819D02*
X113064684Y-115900200D01*
X113064684Y-115900200D02*
X113017065Y-115852580D01*
X113017065Y-115852580D02*
X112969446Y-115757342D01*
X112969446Y-115757342D02*
X112921827Y-115566866D01*
X112921827Y-115566866D02*
X112921827Y-115328771D01*
X112921827Y-115328771D02*
X112969446Y-115138295D01*
X112969446Y-115138295D02*
X113017065Y-115043057D01*
X113017065Y-115043057D02*
X113064684Y-114995438D01*
X113064684Y-114995438D02*
X113159922Y-114947819D01*
X114064684Y-115376390D02*
X113969446Y-115328771D01*
X113969446Y-115328771D02*
X113921827Y-115281152D01*
X113921827Y-115281152D02*
X113874208Y-115185914D01*
X113874208Y-115185914D02*
X113874208Y-115138295D01*
X113874208Y-115138295D02*
X113921827Y-115043057D01*
X113921827Y-115043057D02*
X113969446Y-114995438D01*
X113969446Y-114995438D02*
X114064684Y-114947819D01*
X114064684Y-114947819D02*
X114255160Y-114947819D01*
X114255160Y-114947819D02*
X114350398Y-114995438D01*
X114350398Y-114995438D02*
X114398017Y-115043057D01*
X114398017Y-115043057D02*
X114445636Y-115138295D01*
X114445636Y-115138295D02*
X114445636Y-115185914D01*
X114445636Y-115185914D02*
X114398017Y-115281152D01*
X114398017Y-115281152D02*
X114350398Y-115328771D01*
X114350398Y-115328771D02*
X114255160Y-115376390D01*
X114255160Y-115376390D02*
X114064684Y-115376390D01*
X114064684Y-115376390D02*
X113969446Y-115424009D01*
X113969446Y-115424009D02*
X113921827Y-115471628D01*
X113921827Y-115471628D02*
X113874208Y-115566866D01*
X113874208Y-115566866D02*
X113874208Y-115757342D01*
X113874208Y-115757342D02*
X113921827Y-115852580D01*
X113921827Y-115852580D02*
X113969446Y-115900200D01*
X113969446Y-115900200D02*
X114064684Y-115947819D01*
X114064684Y-115947819D02*
X114255160Y-115947819D01*
X114255160Y-115947819D02*
X114350398Y-115900200D01*
X114350398Y-115900200D02*
X114398017Y-115852580D01*
X114398017Y-115852580D02*
X114445636Y-115757342D01*
X114445636Y-115757342D02*
X114445636Y-115566866D01*
X114445636Y-115566866D02*
X114398017Y-115471628D01*
X114398017Y-115471628D02*
X114350398Y-115424009D01*
X114350398Y-115424009D02*
X114255160Y-115376390D01*
X173967819Y-79133411D02*
X173967819Y-79704839D01*
X173967819Y-79419125D02*
X172967819Y-79419125D01*
X172967819Y-79419125D02*
X173110676Y-79514363D01*
X173110676Y-79514363D02*
X173205914Y-79609601D01*
X173205914Y-79609601D02*
X173253533Y-79704839D01*
X173967819Y-78704839D02*
X172967819Y-78704839D01*
X173967819Y-78133411D02*
X173396390Y-78561982D01*
X172967819Y-78133411D02*
X173539247Y-78704839D01*
X148164779Y-97405819D02*
X148164779Y-96405819D01*
X148640969Y-97405819D02*
X148640969Y-96405819D01*
X148640969Y-96405819D02*
X148974302Y-97120104D01*
X148974302Y-97120104D02*
X149307635Y-96405819D01*
X149307635Y-96405819D02*
X149307635Y-97405819D01*
X149736207Y-97358200D02*
X149879064Y-97405819D01*
X149879064Y-97405819D02*
X150117159Y-97405819D01*
X150117159Y-97405819D02*
X150212397Y-97358200D01*
X150212397Y-97358200D02*
X150260016Y-97310580D01*
X150260016Y-97310580D02*
X150307635Y-97215342D01*
X150307635Y-97215342D02*
X150307635Y-97120104D01*
X150307635Y-97120104D02*
X150260016Y-97024866D01*
X150260016Y-97024866D02*
X150212397Y-96977247D01*
X150212397Y-96977247D02*
X150117159Y-96929628D01*
X150117159Y-96929628D02*
X149926683Y-96882009D01*
X149926683Y-96882009D02*
X149831445Y-96834390D01*
X149831445Y-96834390D02*
X149783826Y-96786771D01*
X149783826Y-96786771D02*
X149736207Y-96691533D01*
X149736207Y-96691533D02*
X149736207Y-96596295D01*
X149736207Y-96596295D02*
X149783826Y-96501057D01*
X149783826Y-96501057D02*
X149831445Y-96453438D01*
X149831445Y-96453438D02*
X149926683Y-96405819D01*
X149926683Y-96405819D02*
X150164778Y-96405819D01*
X150164778Y-96405819D02*
X150307635Y-96453438D01*
X151307635Y-97310580D02*
X151260016Y-97358200D01*
X151260016Y-97358200D02*
X151117159Y-97405819D01*
X151117159Y-97405819D02*
X151021921Y-97405819D01*
X151021921Y-97405819D02*
X150879064Y-97358200D01*
X150879064Y-97358200D02*
X150783826Y-97262961D01*
X150783826Y-97262961D02*
X150736207Y-97167723D01*
X150736207Y-97167723D02*
X150688588Y-96977247D01*
X150688588Y-96977247D02*
X150688588Y-96834390D01*
X150688588Y-96834390D02*
X150736207Y-96643914D01*
X150736207Y-96643914D02*
X150783826Y-96548676D01*
X150783826Y-96548676D02*
X150879064Y-96453438D01*
X150879064Y-96453438D02*
X151021921Y-96405819D01*
X151021921Y-96405819D02*
X151117159Y-96405819D01*
X151117159Y-96405819D02*
X151260016Y-96453438D01*
X151260016Y-96453438D02*
X151307635Y-96501057D01*
X151926683Y-96405819D02*
X152021921Y-96405819D01*
X152021921Y-96405819D02*
X152117159Y-96453438D01*
X152117159Y-96453438D02*
X152164778Y-96501057D01*
X152164778Y-96501057D02*
X152212397Y-96596295D01*
X152212397Y-96596295D02*
X152260016Y-96786771D01*
X152260016Y-96786771D02*
X152260016Y-97024866D01*
X152260016Y-97024866D02*
X152212397Y-97215342D01*
X152212397Y-97215342D02*
X152164778Y-97310580D01*
X152164778Y-97310580D02*
X152117159Y-97358200D01*
X152117159Y-97358200D02*
X152021921Y-97405819D01*
X152021921Y-97405819D02*
X151926683Y-97405819D01*
X151926683Y-97405819D02*
X151831445Y-97358200D01*
X151831445Y-97358200D02*
X151783826Y-97310580D01*
X151783826Y-97310580D02*
X151736207Y-97215342D01*
X151736207Y-97215342D02*
X151688588Y-97024866D01*
X151688588Y-97024866D02*
X151688588Y-96786771D01*
X151688588Y-96786771D02*
X151736207Y-96596295D01*
X151736207Y-96596295D02*
X151783826Y-96501057D01*
X151783826Y-96501057D02*
X151831445Y-96453438D01*
X151831445Y-96453438D02*
X151926683Y-96405819D01*
X153212397Y-97405819D02*
X152640969Y-97405819D01*
X152926683Y-97405819D02*
X152926683Y-96405819D01*
X152926683Y-96405819D02*
X152831445Y-96548676D01*
X152831445Y-96548676D02*
X152736207Y-96643914D01*
X152736207Y-96643914D02*
X152640969Y-96691533D01*
X154164778Y-97405819D02*
X153593350Y-97405819D01*
X153879064Y-97405819D02*
X153879064Y-96405819D01*
X153879064Y-96405819D02*
X153783826Y-96548676D01*
X153783826Y-96548676D02*
X153688588Y-96643914D01*
X153688588Y-96643914D02*
X153593350Y-96691533D01*
X190485819Y-79133411D02*
X190485819Y-79704839D01*
X190485819Y-79419125D02*
X189485819Y-79419125D01*
X189485819Y-79419125D02*
X189628676Y-79514363D01*
X189628676Y-79514363D02*
X189723914Y-79609601D01*
X189723914Y-79609601D02*
X189771533Y-79704839D01*
X190485819Y-78704839D02*
X189485819Y-78704839D01*
X190485819Y-78133411D02*
X189914390Y-78561982D01*
X189485819Y-78133411D02*
X190057247Y-78704839D01*
X154721160Y-86341057D02*
X154768779Y-86293438D01*
X154768779Y-86293438D02*
X154864017Y-86245819D01*
X154864017Y-86245819D02*
X155102112Y-86245819D01*
X155102112Y-86245819D02*
X155197350Y-86293438D01*
X155197350Y-86293438D02*
X155244969Y-86341057D01*
X155244969Y-86341057D02*
X155292588Y-86436295D01*
X155292588Y-86436295D02*
X155292588Y-86531533D01*
X155292588Y-86531533D02*
X155244969Y-86674390D01*
X155244969Y-86674390D02*
X154673541Y-87245819D01*
X154673541Y-87245819D02*
X155292588Y-87245819D01*
X155911636Y-86245819D02*
X156006874Y-86245819D01*
X156006874Y-86245819D02*
X156102112Y-86293438D01*
X156102112Y-86293438D02*
X156149731Y-86341057D01*
X156149731Y-86341057D02*
X156197350Y-86436295D01*
X156197350Y-86436295D02*
X156244969Y-86626771D01*
X156244969Y-86626771D02*
X156244969Y-86864866D01*
X156244969Y-86864866D02*
X156197350Y-87055342D01*
X156197350Y-87055342D02*
X156149731Y-87150580D01*
X156149731Y-87150580D02*
X156102112Y-87198200D01*
X156102112Y-87198200D02*
X156006874Y-87245819D01*
X156006874Y-87245819D02*
X155911636Y-87245819D01*
X155911636Y-87245819D02*
X155816398Y-87198200D01*
X155816398Y-87198200D02*
X155768779Y-87150580D01*
X155768779Y-87150580D02*
X155721160Y-87055342D01*
X155721160Y-87055342D02*
X155673541Y-86864866D01*
X155673541Y-86864866D02*
X155673541Y-86626771D01*
X155673541Y-86626771D02*
X155721160Y-86436295D01*
X155721160Y-86436295D02*
X155768779Y-86341057D01*
X155768779Y-86341057D02*
X155816398Y-86293438D01*
X155816398Y-86293438D02*
X155911636Y-86245819D01*
X188330819Y-79160666D02*
X187854628Y-79493999D01*
X188330819Y-79732094D02*
X187330819Y-79732094D01*
X187330819Y-79732094D02*
X187330819Y-79351142D01*
X187330819Y-79351142D02*
X187378438Y-79255904D01*
X187378438Y-79255904D02*
X187426057Y-79208285D01*
X187426057Y-79208285D02*
X187521295Y-79160666D01*
X187521295Y-79160666D02*
X187664152Y-79160666D01*
X187664152Y-79160666D02*
X187759390Y-79208285D01*
X187759390Y-79208285D02*
X187807009Y-79255904D01*
X187807009Y-79255904D02*
X187854628Y-79351142D01*
X187854628Y-79351142D02*
X187854628Y-79732094D01*
X187426057Y-78779713D02*
X187378438Y-78732094D01*
X187378438Y-78732094D02*
X187330819Y-78636856D01*
X187330819Y-78636856D02*
X187330819Y-78398761D01*
X187330819Y-78398761D02*
X187378438Y-78303523D01*
X187378438Y-78303523D02*
X187426057Y-78255904D01*
X187426057Y-78255904D02*
X187521295Y-78208285D01*
X187521295Y-78208285D02*
X187616533Y-78208285D01*
X187616533Y-78208285D02*
X187759390Y-78255904D01*
X187759390Y-78255904D02*
X188330819Y-78827332D01*
X188330819Y-78827332D02*
X188330819Y-78208285D01*
X181697333Y-80963580D02*
X181649714Y-81011200D01*
X181649714Y-81011200D02*
X181506857Y-81058819D01*
X181506857Y-81058819D02*
X181411619Y-81058819D01*
X181411619Y-81058819D02*
X181268762Y-81011200D01*
X181268762Y-81011200D02*
X181173524Y-80915961D01*
X181173524Y-80915961D02*
X181125905Y-80820723D01*
X181125905Y-80820723D02*
X181078286Y-80630247D01*
X181078286Y-80630247D02*
X181078286Y-80487390D01*
X181078286Y-80487390D02*
X181125905Y-80296914D01*
X181125905Y-80296914D02*
X181173524Y-80201676D01*
X181173524Y-80201676D02*
X181268762Y-80106438D01*
X181268762Y-80106438D02*
X181411619Y-80058819D01*
X181411619Y-80058819D02*
X181506857Y-80058819D01*
X181506857Y-80058819D02*
X181649714Y-80106438D01*
X181649714Y-80106438D02*
X181697333Y-80154057D01*
X182649714Y-81058819D02*
X182078286Y-81058819D01*
X182364000Y-81058819D02*
X182364000Y-80058819D01*
X182364000Y-80058819D02*
X182268762Y-80201676D01*
X182268762Y-80201676D02*
X182173524Y-80296914D01*
X182173524Y-80296914D02*
X182078286Y-80344533D01*
X141904819Y-116326904D02*
X142714342Y-116326904D01*
X142714342Y-116326904D02*
X142809580Y-116279285D01*
X142809580Y-116279285D02*
X142857200Y-116231666D01*
X142857200Y-116231666D02*
X142904819Y-116136428D01*
X142904819Y-116136428D02*
X142904819Y-115945952D01*
X142904819Y-115945952D02*
X142857200Y-115850714D01*
X142857200Y-115850714D02*
X142809580Y-115803095D01*
X142809580Y-115803095D02*
X142714342Y-115755476D01*
X142714342Y-115755476D02*
X141904819Y-115755476D01*
X141904819Y-115374523D02*
X141904819Y-114755476D01*
X141904819Y-114755476D02*
X142285771Y-115088809D01*
X142285771Y-115088809D02*
X142285771Y-114945952D01*
X142285771Y-114945952D02*
X142333390Y-114850714D01*
X142333390Y-114850714D02*
X142381009Y-114803095D01*
X142381009Y-114803095D02*
X142476247Y-114755476D01*
X142476247Y-114755476D02*
X142714342Y-114755476D01*
X142714342Y-114755476D02*
X142809580Y-114803095D01*
X142809580Y-114803095D02*
X142857200Y-114850714D01*
X142857200Y-114850714D02*
X142904819Y-114945952D01*
X142904819Y-114945952D02*
X142904819Y-115231666D01*
X142904819Y-115231666D02*
X142857200Y-115326904D01*
X142857200Y-115326904D02*
X142809580Y-115374523D01*
X146558095Y-52294819D02*
X146558095Y-53104342D01*
X146558095Y-53104342D02*
X146605714Y-53199580D01*
X146605714Y-53199580D02*
X146653333Y-53247200D01*
X146653333Y-53247200D02*
X146748571Y-53294819D01*
X146748571Y-53294819D02*
X146939047Y-53294819D01*
X146939047Y-53294819D02*
X147034285Y-53247200D01*
X147034285Y-53247200D02*
X147081904Y-53199580D01*
X147081904Y-53199580D02*
X147129523Y-53104342D01*
X147129523Y-53104342D02*
X147129523Y-52294819D01*
X147748571Y-52723390D02*
X147653333Y-52675771D01*
X147653333Y-52675771D02*
X147605714Y-52628152D01*
X147605714Y-52628152D02*
X147558095Y-52532914D01*
X147558095Y-52532914D02*
X147558095Y-52485295D01*
X147558095Y-52485295D02*
X147605714Y-52390057D01*
X147605714Y-52390057D02*
X147653333Y-52342438D01*
X147653333Y-52342438D02*
X147748571Y-52294819D01*
X147748571Y-52294819D02*
X147939047Y-52294819D01*
X147939047Y-52294819D02*
X148034285Y-52342438D01*
X148034285Y-52342438D02*
X148081904Y-52390057D01*
X148081904Y-52390057D02*
X148129523Y-52485295D01*
X148129523Y-52485295D02*
X148129523Y-52532914D01*
X148129523Y-52532914D02*
X148081904Y-52628152D01*
X148081904Y-52628152D02*
X148034285Y-52675771D01*
X148034285Y-52675771D02*
X147939047Y-52723390D01*
X147939047Y-52723390D02*
X147748571Y-52723390D01*
X147748571Y-52723390D02*
X147653333Y-52771009D01*
X147653333Y-52771009D02*
X147605714Y-52818628D01*
X147605714Y-52818628D02*
X147558095Y-52913866D01*
X147558095Y-52913866D02*
X147558095Y-53104342D01*
X147558095Y-53104342D02*
X147605714Y-53199580D01*
X147605714Y-53199580D02*
X147653333Y-53247200D01*
X147653333Y-53247200D02*
X147748571Y-53294819D01*
X147748571Y-53294819D02*
X147939047Y-53294819D01*
X147939047Y-53294819D02*
X148034285Y-53247200D01*
X148034285Y-53247200D02*
X148081904Y-53199580D01*
X148081904Y-53199580D02*
X148129523Y-53104342D01*
X148129523Y-53104342D02*
X148129523Y-52913866D01*
X148129523Y-52913866D02*
X148081904Y-52818628D01*
X148081904Y-52818628D02*
X148034285Y-52771009D01*
X148034285Y-52771009D02*
X147939047Y-52723390D01*
X102206588Y-46351819D02*
X101635160Y-46351819D01*
X101920874Y-46351819D02*
X101920874Y-45351819D01*
X101920874Y-45351819D02*
X101825636Y-45494676D01*
X101825636Y-45494676D02*
X101730398Y-45589914D01*
X101730398Y-45589914D02*
X101635160Y-45637533D01*
X190344588Y-46097819D02*
X189773160Y-46097819D01*
X190058874Y-46097819D02*
X190058874Y-45097819D01*
X190058874Y-45097819D02*
X189963636Y-45240676D01*
X189963636Y-45240676D02*
X189868398Y-45335914D01*
X189868398Y-45335914D02*
X189773160Y-45383533D01*
X191201731Y-45097819D02*
X191011255Y-45097819D01*
X191011255Y-45097819D02*
X190916017Y-45145438D01*
X190916017Y-45145438D02*
X190868398Y-45193057D01*
X190868398Y-45193057D02*
X190773160Y-45335914D01*
X190773160Y-45335914D02*
X190725541Y-45526390D01*
X190725541Y-45526390D02*
X190725541Y-45907342D01*
X190725541Y-45907342D02*
X190773160Y-46002580D01*
X190773160Y-46002580D02*
X190820779Y-46050200D01*
X190820779Y-46050200D02*
X190916017Y-46097819D01*
X190916017Y-46097819D02*
X191106493Y-46097819D01*
X191106493Y-46097819D02*
X191201731Y-46050200D01*
X191201731Y-46050200D02*
X191249350Y-46002580D01*
X191249350Y-46002580D02*
X191296969Y-45907342D01*
X191296969Y-45907342D02*
X191296969Y-45669247D01*
X191296969Y-45669247D02*
X191249350Y-45574009D01*
X191249350Y-45574009D02*
X191201731Y-45526390D01*
X191201731Y-45526390D02*
X191106493Y-45478771D01*
X191106493Y-45478771D02*
X190916017Y-45478771D01*
X190916017Y-45478771D02*
X190820779Y-45526390D01*
X190820779Y-45526390D02*
X190773160Y-45574009D01*
X190773160Y-45574009D02*
X190725541Y-45669247D01*
X190376398Y-63877819D02*
X190566874Y-63877819D01*
X190566874Y-63877819D02*
X190662112Y-63830200D01*
X190662112Y-63830200D02*
X190709731Y-63782580D01*
X190709731Y-63782580D02*
X190804969Y-63639723D01*
X190804969Y-63639723D02*
X190852588Y-63449247D01*
X190852588Y-63449247D02*
X190852588Y-63068295D01*
X190852588Y-63068295D02*
X190804969Y-62973057D01*
X190804969Y-62973057D02*
X190757350Y-62925438D01*
X190757350Y-62925438D02*
X190662112Y-62877819D01*
X190662112Y-62877819D02*
X190471636Y-62877819D01*
X190471636Y-62877819D02*
X190376398Y-62925438D01*
X190376398Y-62925438D02*
X190328779Y-62973057D01*
X190328779Y-62973057D02*
X190281160Y-63068295D01*
X190281160Y-63068295D02*
X190281160Y-63306390D01*
X190281160Y-63306390D02*
X190328779Y-63401628D01*
X190328779Y-63401628D02*
X190376398Y-63449247D01*
X190376398Y-63449247D02*
X190471636Y-63496866D01*
X190471636Y-63496866D02*
X190662112Y-63496866D01*
X190662112Y-63496866D02*
X190757350Y-63449247D01*
X190757350Y-63449247D02*
X190804969Y-63401628D01*
X190804969Y-63401628D02*
X190852588Y-63306390D01*
X101825636Y-63306390D02*
X101730398Y-63258771D01*
X101730398Y-63258771D02*
X101682779Y-63211152D01*
X101682779Y-63211152D02*
X101635160Y-63115914D01*
X101635160Y-63115914D02*
X101635160Y-63068295D01*
X101635160Y-63068295D02*
X101682779Y-62973057D01*
X101682779Y-62973057D02*
X101730398Y-62925438D01*
X101730398Y-62925438D02*
X101825636Y-62877819D01*
X101825636Y-62877819D02*
X102016112Y-62877819D01*
X102016112Y-62877819D02*
X102111350Y-62925438D01*
X102111350Y-62925438D02*
X102158969Y-62973057D01*
X102158969Y-62973057D02*
X102206588Y-63068295D01*
X102206588Y-63068295D02*
X102206588Y-63115914D01*
X102206588Y-63115914D02*
X102158969Y-63211152D01*
X102158969Y-63211152D02*
X102111350Y-63258771D01*
X102111350Y-63258771D02*
X102016112Y-63306390D01*
X102016112Y-63306390D02*
X101825636Y-63306390D01*
X101825636Y-63306390D02*
X101730398Y-63354009D01*
X101730398Y-63354009D02*
X101682779Y-63401628D01*
X101682779Y-63401628D02*
X101635160Y-63496866D01*
X101635160Y-63496866D02*
X101635160Y-63687342D01*
X101635160Y-63687342D02*
X101682779Y-63782580D01*
X101682779Y-63782580D02*
X101730398Y-63830200D01*
X101730398Y-63830200D02*
X101825636Y-63877819D01*
X101825636Y-63877819D02*
X102016112Y-63877819D01*
X102016112Y-63877819D02*
X102111350Y-63830200D01*
X102111350Y-63830200D02*
X102158969Y-63782580D01*
X102158969Y-63782580D02*
X102206588Y-63687342D01*
X102206588Y-63687342D02*
X102206588Y-63496866D01*
X102206588Y-63496866D02*
X102158969Y-63401628D01*
X102158969Y-63401628D02*
X102111350Y-63354009D01*
X102111350Y-63354009D02*
X102016112Y-63306390D01*
X106294819Y-108783333D02*
X107009104Y-108783333D01*
X107009104Y-108783333D02*
X107151961Y-108830952D01*
X107151961Y-108830952D02*
X107247200Y-108926190D01*
X107247200Y-108926190D02*
X107294819Y-109069047D01*
X107294819Y-109069047D02*
X107294819Y-109164285D01*
X107294819Y-108307142D02*
X106294819Y-108307142D01*
X106294819Y-108307142D02*
X106294819Y-107926190D01*
X106294819Y-107926190D02*
X106342438Y-107830952D01*
X106342438Y-107830952D02*
X106390057Y-107783333D01*
X106390057Y-107783333D02*
X106485295Y-107735714D01*
X106485295Y-107735714D02*
X106628152Y-107735714D01*
X106628152Y-107735714D02*
X106723390Y-107783333D01*
X106723390Y-107783333D02*
X106771009Y-107830952D01*
X106771009Y-107830952D02*
X106818628Y-107926190D01*
X106818628Y-107926190D02*
X106818628Y-108307142D01*
X106390057Y-107354761D02*
X106342438Y-107307142D01*
X106342438Y-107307142D02*
X106294819Y-107211904D01*
X106294819Y-107211904D02*
X106294819Y-106973809D01*
X106294819Y-106973809D02*
X106342438Y-106878571D01*
X106342438Y-106878571D02*
X106390057Y-106830952D01*
X106390057Y-106830952D02*
X106485295Y-106783333D01*
X106485295Y-106783333D02*
X106580533Y-106783333D01*
X106580533Y-106783333D02*
X106723390Y-106830952D01*
X106723390Y-106830952D02*
X107294819Y-107402380D01*
X107294819Y-107402380D02*
X107294819Y-106783333D01*
X169844819Y-103372904D02*
X170654342Y-103372904D01*
X170654342Y-103372904D02*
X170749580Y-103325285D01*
X170749580Y-103325285D02*
X170797200Y-103277666D01*
X170797200Y-103277666D02*
X170844819Y-103182428D01*
X170844819Y-103182428D02*
X170844819Y-102991952D01*
X170844819Y-102991952D02*
X170797200Y-102896714D01*
X170797200Y-102896714D02*
X170749580Y-102849095D01*
X170749580Y-102849095D02*
X170654342Y-102801476D01*
X170654342Y-102801476D02*
X169844819Y-102801476D01*
X169844819Y-101896714D02*
X169844819Y-102087190D01*
X169844819Y-102087190D02*
X169892438Y-102182428D01*
X169892438Y-102182428D02*
X169940057Y-102230047D01*
X169940057Y-102230047D02*
X170082914Y-102325285D01*
X170082914Y-102325285D02*
X170273390Y-102372904D01*
X170273390Y-102372904D02*
X170654342Y-102372904D01*
X170654342Y-102372904D02*
X170749580Y-102325285D01*
X170749580Y-102325285D02*
X170797200Y-102277666D01*
X170797200Y-102277666D02*
X170844819Y-102182428D01*
X170844819Y-102182428D02*
X170844819Y-101991952D01*
X170844819Y-101991952D02*
X170797200Y-101896714D01*
X170797200Y-101896714D02*
X170749580Y-101849095D01*
X170749580Y-101849095D02*
X170654342Y-101801476D01*
X170654342Y-101801476D02*
X170416247Y-101801476D01*
X170416247Y-101801476D02*
X170321009Y-101849095D01*
X170321009Y-101849095D02*
X170273390Y-101896714D01*
X170273390Y-101896714D02*
X170225771Y-101991952D01*
X170225771Y-101991952D02*
X170225771Y-102182428D01*
X170225771Y-102182428D02*
X170273390Y-102277666D01*
X170273390Y-102277666D02*
X170321009Y-102325285D01*
X170321009Y-102325285D02*
X170416247Y-102372904D01*
X112384819Y-59602666D02*
X111908628Y-59935999D01*
X112384819Y-60174094D02*
X111384819Y-60174094D01*
X111384819Y-60174094D02*
X111384819Y-59793142D01*
X111384819Y-59793142D02*
X111432438Y-59697904D01*
X111432438Y-59697904D02*
X111480057Y-59650285D01*
X111480057Y-59650285D02*
X111575295Y-59602666D01*
X111575295Y-59602666D02*
X111718152Y-59602666D01*
X111718152Y-59602666D02*
X111813390Y-59650285D01*
X111813390Y-59650285D02*
X111861009Y-59697904D01*
X111861009Y-59697904D02*
X111908628Y-59793142D01*
X111908628Y-59793142D02*
X111908628Y-60174094D01*
X111384819Y-59269332D02*
X111384819Y-58650285D01*
X111384819Y-58650285D02*
X111765771Y-58983618D01*
X111765771Y-58983618D02*
X111765771Y-58840761D01*
X111765771Y-58840761D02*
X111813390Y-58745523D01*
X111813390Y-58745523D02*
X111861009Y-58697904D01*
X111861009Y-58697904D02*
X111956247Y-58650285D01*
X111956247Y-58650285D02*
X112194342Y-58650285D01*
X112194342Y-58650285D02*
X112289580Y-58697904D01*
X112289580Y-58697904D02*
X112337200Y-58745523D01*
X112337200Y-58745523D02*
X112384819Y-58840761D01*
X112384819Y-58840761D02*
X112384819Y-59126475D01*
X112384819Y-59126475D02*
X112337200Y-59221713D01*
X112337200Y-59221713D02*
X112289580Y-59269332D01*
X101264819Y-78708094D02*
X102074342Y-78708094D01*
X102074342Y-78708094D02*
X102169580Y-78660475D01*
X102169580Y-78660475D02*
X102217200Y-78612856D01*
X102217200Y-78612856D02*
X102264819Y-78517618D01*
X102264819Y-78517618D02*
X102264819Y-78327142D01*
X102264819Y-78327142D02*
X102217200Y-78231904D01*
X102217200Y-78231904D02*
X102169580Y-78184285D01*
X102169580Y-78184285D02*
X102074342Y-78136666D01*
X102074342Y-78136666D02*
X101264819Y-78136666D01*
X102264819Y-77136666D02*
X102264819Y-77708094D01*
X102264819Y-77422380D02*
X101264819Y-77422380D01*
X101264819Y-77422380D02*
X101407676Y-77517618D01*
X101407676Y-77517618D02*
X101502914Y-77612856D01*
X101502914Y-77612856D02*
X101550533Y-77708094D01*
X101264819Y-76517618D02*
X101264819Y-76422380D01*
X101264819Y-76422380D02*
X101312438Y-76327142D01*
X101312438Y-76327142D02*
X101360057Y-76279523D01*
X101360057Y-76279523D02*
X101455295Y-76231904D01*
X101455295Y-76231904D02*
X101645771Y-76184285D01*
X101645771Y-76184285D02*
X101883866Y-76184285D01*
X101883866Y-76184285D02*
X102074342Y-76231904D01*
X102074342Y-76231904D02*
X102169580Y-76279523D01*
X102169580Y-76279523D02*
X102217200Y-76327142D01*
X102217200Y-76327142D02*
X102264819Y-76422380D01*
X102264819Y-76422380D02*
X102264819Y-76517618D01*
X102264819Y-76517618D02*
X102217200Y-76612856D01*
X102217200Y-76612856D02*
X102169580Y-76660475D01*
X102169580Y-76660475D02*
X102074342Y-76708094D01*
X102074342Y-76708094D02*
X101883866Y-76755713D01*
X101883866Y-76755713D02*
X101645771Y-76755713D01*
X101645771Y-76755713D02*
X101455295Y-76708094D01*
X101455295Y-76708094D02*
X101360057Y-76660475D01*
X101360057Y-76660475D02*
X101312438Y-76612856D01*
X101312438Y-76612856D02*
X101264819Y-76517618D01*
X176052819Y-79160666D02*
X175576628Y-79493999D01*
X176052819Y-79732094D02*
X175052819Y-79732094D01*
X175052819Y-79732094D02*
X175052819Y-79351142D01*
X175052819Y-79351142D02*
X175100438Y-79255904D01*
X175100438Y-79255904D02*
X175148057Y-79208285D01*
X175148057Y-79208285D02*
X175243295Y-79160666D01*
X175243295Y-79160666D02*
X175386152Y-79160666D01*
X175386152Y-79160666D02*
X175481390Y-79208285D01*
X175481390Y-79208285D02*
X175529009Y-79255904D01*
X175529009Y-79255904D02*
X175576628Y-79351142D01*
X175576628Y-79351142D02*
X175576628Y-79732094D01*
X176052819Y-78208285D02*
X176052819Y-78779713D01*
X176052819Y-78493999D02*
X175052819Y-78493999D01*
X175052819Y-78493999D02*
X175195676Y-78589237D01*
X175195676Y-78589237D02*
X175290914Y-78684475D01*
X175290914Y-78684475D02*
X175338533Y-78779713D01*
X157094819Y-86685333D02*
X157809104Y-86685333D01*
X157809104Y-86685333D02*
X157951961Y-86732952D01*
X157951961Y-86732952D02*
X158047200Y-86828190D01*
X158047200Y-86828190D02*
X158094819Y-86971047D01*
X158094819Y-86971047D02*
X158094819Y-87066285D01*
X158094819Y-86209142D02*
X157094819Y-86209142D01*
X157094819Y-86209142D02*
X157094819Y-85828190D01*
X157094819Y-85828190D02*
X157142438Y-85732952D01*
X157142438Y-85732952D02*
X157190057Y-85685333D01*
X157190057Y-85685333D02*
X157285295Y-85637714D01*
X157285295Y-85637714D02*
X157428152Y-85637714D01*
X157428152Y-85637714D02*
X157523390Y-85685333D01*
X157523390Y-85685333D02*
X157571009Y-85732952D01*
X157571009Y-85732952D02*
X157618628Y-85828190D01*
X157618628Y-85828190D02*
X157618628Y-86209142D01*
X158094819Y-84685333D02*
X158094819Y-85256761D01*
X158094819Y-84971047D02*
X157094819Y-84971047D01*
X157094819Y-84971047D02*
X157237676Y-85066285D01*
X157237676Y-85066285D02*
X157332914Y-85161523D01*
X157332914Y-85161523D02*
X157380533Y-85256761D01*
X101264819Y-116326904D02*
X102074342Y-116326904D01*
X102074342Y-116326904D02*
X102169580Y-116279285D01*
X102169580Y-116279285D02*
X102217200Y-116231666D01*
X102217200Y-116231666D02*
X102264819Y-116136428D01*
X102264819Y-116136428D02*
X102264819Y-115945952D01*
X102264819Y-115945952D02*
X102217200Y-115850714D01*
X102217200Y-115850714D02*
X102169580Y-115803095D01*
X102169580Y-115803095D02*
X102074342Y-115755476D01*
X102074342Y-115755476D02*
X101264819Y-115755476D01*
X101360057Y-115326904D02*
X101312438Y-115279285D01*
X101312438Y-115279285D02*
X101264819Y-115184047D01*
X101264819Y-115184047D02*
X101264819Y-114945952D01*
X101264819Y-114945952D02*
X101312438Y-114850714D01*
X101312438Y-114850714D02*
X101360057Y-114803095D01*
X101360057Y-114803095D02*
X101455295Y-114755476D01*
X101455295Y-114755476D02*
X101550533Y-114755476D01*
X101550533Y-114755476D02*
X101693390Y-114803095D01*
X101693390Y-114803095D02*
X102264819Y-115374523D01*
X102264819Y-115374523D02*
X102264819Y-114755476D01*
X169709580Y-88050666D02*
X169757200Y-88098285D01*
X169757200Y-88098285D02*
X169804819Y-88241142D01*
X169804819Y-88241142D02*
X169804819Y-88336380D01*
X169804819Y-88336380D02*
X169757200Y-88479237D01*
X169757200Y-88479237D02*
X169661961Y-88574475D01*
X169661961Y-88574475D02*
X169566723Y-88622094D01*
X169566723Y-88622094D02*
X169376247Y-88669713D01*
X169376247Y-88669713D02*
X169233390Y-88669713D01*
X169233390Y-88669713D02*
X169042914Y-88622094D01*
X169042914Y-88622094D02*
X168947676Y-88574475D01*
X168947676Y-88574475D02*
X168852438Y-88479237D01*
X168852438Y-88479237D02*
X168804819Y-88336380D01*
X168804819Y-88336380D02*
X168804819Y-88241142D01*
X168804819Y-88241142D02*
X168852438Y-88098285D01*
X168852438Y-88098285D02*
X168900057Y-88050666D01*
X168804819Y-87145904D02*
X168804819Y-87622094D01*
X168804819Y-87622094D02*
X169281009Y-87669713D01*
X169281009Y-87669713D02*
X169233390Y-87622094D01*
X169233390Y-87622094D02*
X169185771Y-87526856D01*
X169185771Y-87526856D02*
X169185771Y-87288761D01*
X169185771Y-87288761D02*
X169233390Y-87193523D01*
X169233390Y-87193523D02*
X169281009Y-87145904D01*
X169281009Y-87145904D02*
X169376247Y-87098285D01*
X169376247Y-87098285D02*
X169614342Y-87098285D01*
X169614342Y-87098285D02*
X169709580Y-87145904D01*
X169709580Y-87145904D02*
X169757200Y-87193523D01*
X169757200Y-87193523D02*
X169804819Y-87288761D01*
X169804819Y-87288761D02*
X169804819Y-87526856D01*
X169804819Y-87526856D02*
X169757200Y-87622094D01*
X169757200Y-87622094D02*
X169709580Y-87669713D01*
X125543333Y-101507580D02*
X125495714Y-101555200D01*
X125495714Y-101555200D02*
X125352857Y-101602819D01*
X125352857Y-101602819D02*
X125257619Y-101602819D01*
X125257619Y-101602819D02*
X125114762Y-101555200D01*
X125114762Y-101555200D02*
X125019524Y-101459961D01*
X125019524Y-101459961D02*
X124971905Y-101364723D01*
X124971905Y-101364723D02*
X124924286Y-101174247D01*
X124924286Y-101174247D02*
X124924286Y-101031390D01*
X124924286Y-101031390D02*
X124971905Y-100840914D01*
X124971905Y-100840914D02*
X125019524Y-100745676D01*
X125019524Y-100745676D02*
X125114762Y-100650438D01*
X125114762Y-100650438D02*
X125257619Y-100602819D01*
X125257619Y-100602819D02*
X125352857Y-100602819D01*
X125352857Y-100602819D02*
X125495714Y-100650438D01*
X125495714Y-100650438D02*
X125543333Y-100698057D01*
X126400476Y-100602819D02*
X126210000Y-100602819D01*
X126210000Y-100602819D02*
X126114762Y-100650438D01*
X126114762Y-100650438D02*
X126067143Y-100698057D01*
X126067143Y-100698057D02*
X125971905Y-100840914D01*
X125971905Y-100840914D02*
X125924286Y-101031390D01*
X125924286Y-101031390D02*
X125924286Y-101412342D01*
X125924286Y-101412342D02*
X125971905Y-101507580D01*
X125971905Y-101507580D02*
X126019524Y-101555200D01*
X126019524Y-101555200D02*
X126114762Y-101602819D01*
X126114762Y-101602819D02*
X126305238Y-101602819D01*
X126305238Y-101602819D02*
X126400476Y-101555200D01*
X126400476Y-101555200D02*
X126448095Y-101507580D01*
X126448095Y-101507580D02*
X126495714Y-101412342D01*
X126495714Y-101412342D02*
X126495714Y-101174247D01*
X126495714Y-101174247D02*
X126448095Y-101079009D01*
X126448095Y-101079009D02*
X126400476Y-101031390D01*
X126400476Y-101031390D02*
X126305238Y-100983771D01*
X126305238Y-100983771D02*
X126114762Y-100983771D01*
X126114762Y-100983771D02*
X126019524Y-101031390D01*
X126019524Y-101031390D02*
X125971905Y-101079009D01*
X125971905Y-101079009D02*
X125924286Y-101174247D01*
X149733333Y-83757580D02*
X149685714Y-83805200D01*
X149685714Y-83805200D02*
X149542857Y-83852819D01*
X149542857Y-83852819D02*
X149447619Y-83852819D01*
X149447619Y-83852819D02*
X149304762Y-83805200D01*
X149304762Y-83805200D02*
X149209524Y-83709961D01*
X149209524Y-83709961D02*
X149161905Y-83614723D01*
X149161905Y-83614723D02*
X149114286Y-83424247D01*
X149114286Y-83424247D02*
X149114286Y-83281390D01*
X149114286Y-83281390D02*
X149161905Y-83090914D01*
X149161905Y-83090914D02*
X149209524Y-82995676D01*
X149209524Y-82995676D02*
X149304762Y-82900438D01*
X149304762Y-82900438D02*
X149447619Y-82852819D01*
X149447619Y-82852819D02*
X149542857Y-82852819D01*
X149542857Y-82852819D02*
X149685714Y-82900438D01*
X149685714Y-82900438D02*
X149733333Y-82948057D01*
X150590476Y-83186152D02*
X150590476Y-83852819D01*
X150352381Y-82805200D02*
X150114286Y-83519485D01*
X150114286Y-83519485D02*
X150733333Y-83519485D01*
X172384819Y-90677904D02*
X173194342Y-90677904D01*
X173194342Y-90677904D02*
X173289580Y-90630285D01*
X173289580Y-90630285D02*
X173337200Y-90582666D01*
X173337200Y-90582666D02*
X173384819Y-90487428D01*
X173384819Y-90487428D02*
X173384819Y-90296952D01*
X173384819Y-90296952D02*
X173337200Y-90201714D01*
X173337200Y-90201714D02*
X173289580Y-90154095D01*
X173289580Y-90154095D02*
X173194342Y-90106476D01*
X173194342Y-90106476D02*
X172384819Y-90106476D01*
X172384819Y-89154095D02*
X172384819Y-89630285D01*
X172384819Y-89630285D02*
X172861009Y-89677904D01*
X172861009Y-89677904D02*
X172813390Y-89630285D01*
X172813390Y-89630285D02*
X172765771Y-89535047D01*
X172765771Y-89535047D02*
X172765771Y-89296952D01*
X172765771Y-89296952D02*
X172813390Y-89201714D01*
X172813390Y-89201714D02*
X172861009Y-89154095D01*
X172861009Y-89154095D02*
X172956247Y-89106476D01*
X172956247Y-89106476D02*
X173194342Y-89106476D01*
X173194342Y-89106476D02*
X173289580Y-89154095D01*
X173289580Y-89154095D02*
X173337200Y-89201714D01*
X173337200Y-89201714D02*
X173384819Y-89296952D01*
X173384819Y-89296952D02*
X173384819Y-89535047D01*
X173384819Y-89535047D02*
X173337200Y-89630285D01*
X173337200Y-89630285D02*
X173289580Y-89677904D01*
X134493333Y-83757580D02*
X134445714Y-83805200D01*
X134445714Y-83805200D02*
X134302857Y-83852819D01*
X134302857Y-83852819D02*
X134207619Y-83852819D01*
X134207619Y-83852819D02*
X134064762Y-83805200D01*
X134064762Y-83805200D02*
X133969524Y-83709961D01*
X133969524Y-83709961D02*
X133921905Y-83614723D01*
X133921905Y-83614723D02*
X133874286Y-83424247D01*
X133874286Y-83424247D02*
X133874286Y-83281390D01*
X133874286Y-83281390D02*
X133921905Y-83090914D01*
X133921905Y-83090914D02*
X133969524Y-82995676D01*
X133969524Y-82995676D02*
X134064762Y-82900438D01*
X134064762Y-82900438D02*
X134207619Y-82852819D01*
X134207619Y-82852819D02*
X134302857Y-82852819D01*
X134302857Y-82852819D02*
X134445714Y-82900438D01*
X134445714Y-82900438D02*
X134493333Y-82948057D01*
X134874286Y-82948057D02*
X134921905Y-82900438D01*
X134921905Y-82900438D02*
X135017143Y-82852819D01*
X135017143Y-82852819D02*
X135255238Y-82852819D01*
X135255238Y-82852819D02*
X135350476Y-82900438D01*
X135350476Y-82900438D02*
X135398095Y-82948057D01*
X135398095Y-82948057D02*
X135445714Y-83043295D01*
X135445714Y-83043295D02*
X135445714Y-83138533D01*
X135445714Y-83138533D02*
X135398095Y-83281390D01*
X135398095Y-83281390D02*
X134826667Y-83852819D01*
X134826667Y-83852819D02*
X135445714Y-83852819D01*
X175376819Y-59602666D02*
X174900628Y-59935999D01*
X175376819Y-60174094D02*
X174376819Y-60174094D01*
X174376819Y-60174094D02*
X174376819Y-59793142D01*
X174376819Y-59793142D02*
X174424438Y-59697904D01*
X174424438Y-59697904D02*
X174472057Y-59650285D01*
X174472057Y-59650285D02*
X174567295Y-59602666D01*
X174567295Y-59602666D02*
X174710152Y-59602666D01*
X174710152Y-59602666D02*
X174805390Y-59650285D01*
X174805390Y-59650285D02*
X174853009Y-59697904D01*
X174853009Y-59697904D02*
X174900628Y-59793142D01*
X174900628Y-59793142D02*
X174900628Y-60174094D01*
X174376819Y-58745523D02*
X174376819Y-58935999D01*
X174376819Y-58935999D02*
X174424438Y-59031237D01*
X174424438Y-59031237D02*
X174472057Y-59078856D01*
X174472057Y-59078856D02*
X174614914Y-59174094D01*
X174614914Y-59174094D02*
X174805390Y-59221713D01*
X174805390Y-59221713D02*
X175186342Y-59221713D01*
X175186342Y-59221713D02*
X175281580Y-59174094D01*
X175281580Y-59174094D02*
X175329200Y-59126475D01*
X175329200Y-59126475D02*
X175376819Y-59031237D01*
X175376819Y-59031237D02*
X175376819Y-58840761D01*
X175376819Y-58840761D02*
X175329200Y-58745523D01*
X175329200Y-58745523D02*
X175281580Y-58697904D01*
X175281580Y-58697904D02*
X175186342Y-58650285D01*
X175186342Y-58650285D02*
X174948247Y-58650285D01*
X174948247Y-58650285D02*
X174853009Y-58697904D01*
X174853009Y-58697904D02*
X174805390Y-58745523D01*
X174805390Y-58745523D02*
X174757771Y-58840761D01*
X174757771Y-58840761D02*
X174757771Y-59031237D01*
X174757771Y-59031237D02*
X174805390Y-59126475D01*
X174805390Y-59126475D02*
X174853009Y-59174094D01*
X174853009Y-59174094D02*
X174948247Y-59221713D01*
X164764819Y-116331904D02*
X165574342Y-116331904D01*
X165574342Y-116331904D02*
X165669580Y-116284285D01*
X165669580Y-116284285D02*
X165717200Y-116236666D01*
X165717200Y-116236666D02*
X165764819Y-116141428D01*
X165764819Y-116141428D02*
X165764819Y-115950952D01*
X165764819Y-115950952D02*
X165717200Y-115855714D01*
X165717200Y-115855714D02*
X165669580Y-115808095D01*
X165669580Y-115808095D02*
X165574342Y-115760476D01*
X165574342Y-115760476D02*
X164764819Y-115760476D01*
X165764819Y-114760476D02*
X165764819Y-115331904D01*
X165764819Y-115046190D02*
X164764819Y-115046190D01*
X164764819Y-115046190D02*
X164907676Y-115141428D01*
X164907676Y-115141428D02*
X165002914Y-115236666D01*
X165002914Y-115236666D02*
X165050533Y-115331904D01*
X107812819Y-59602666D02*
X107336628Y-59935999D01*
X107812819Y-60174094D02*
X106812819Y-60174094D01*
X106812819Y-60174094D02*
X106812819Y-59793142D01*
X106812819Y-59793142D02*
X106860438Y-59697904D01*
X106860438Y-59697904D02*
X106908057Y-59650285D01*
X106908057Y-59650285D02*
X107003295Y-59602666D01*
X107003295Y-59602666D02*
X107146152Y-59602666D01*
X107146152Y-59602666D02*
X107241390Y-59650285D01*
X107241390Y-59650285D02*
X107289009Y-59697904D01*
X107289009Y-59697904D02*
X107336628Y-59793142D01*
X107336628Y-59793142D02*
X107336628Y-60174094D01*
X107146152Y-58745523D02*
X107812819Y-58745523D01*
X106765200Y-58983618D02*
X107479485Y-59221713D01*
X107479485Y-59221713D02*
X107479485Y-58602666D01*
X121584819Y-116326904D02*
X122394342Y-116326904D01*
X122394342Y-116326904D02*
X122489580Y-116279285D01*
X122489580Y-116279285D02*
X122537200Y-116231666D01*
X122537200Y-116231666D02*
X122584819Y-116136428D01*
X122584819Y-116136428D02*
X122584819Y-115945952D01*
X122584819Y-115945952D02*
X122537200Y-115850714D01*
X122537200Y-115850714D02*
X122489580Y-115803095D01*
X122489580Y-115803095D02*
X122394342Y-115755476D01*
X122394342Y-115755476D02*
X121584819Y-115755476D01*
X121918152Y-114850714D02*
X122584819Y-114850714D01*
X121537200Y-115088809D02*
X122251485Y-115326904D01*
X122251485Y-115326904D02*
X122251485Y-114707857D01*
X181233809Y-71637628D02*
X181233809Y-72113819D01*
X180900476Y-71113819D02*
X181233809Y-71637628D01*
X181233809Y-71637628D02*
X181567142Y-71113819D01*
X182424285Y-72113819D02*
X181852857Y-72113819D01*
X182138571Y-72113819D02*
X182138571Y-71113819D01*
X182138571Y-71113819D02*
X182043333Y-71256676D01*
X182043333Y-71256676D02*
X181948095Y-71351914D01*
X181948095Y-71351914D02*
X181852857Y-71399533D01*
X184434819Y-59602666D02*
X183958628Y-59935999D01*
X184434819Y-60174094D02*
X183434819Y-60174094D01*
X183434819Y-60174094D02*
X183434819Y-59793142D01*
X183434819Y-59793142D02*
X183482438Y-59697904D01*
X183482438Y-59697904D02*
X183530057Y-59650285D01*
X183530057Y-59650285D02*
X183625295Y-59602666D01*
X183625295Y-59602666D02*
X183768152Y-59602666D01*
X183768152Y-59602666D02*
X183863390Y-59650285D01*
X183863390Y-59650285D02*
X183911009Y-59697904D01*
X183911009Y-59697904D02*
X183958628Y-59793142D01*
X183958628Y-59793142D02*
X183958628Y-60174094D01*
X183434819Y-58697904D02*
X183434819Y-59174094D01*
X183434819Y-59174094D02*
X183911009Y-59221713D01*
X183911009Y-59221713D02*
X183863390Y-59174094D01*
X183863390Y-59174094D02*
X183815771Y-59078856D01*
X183815771Y-59078856D02*
X183815771Y-58840761D01*
X183815771Y-58840761D02*
X183863390Y-58745523D01*
X183863390Y-58745523D02*
X183911009Y-58697904D01*
X183911009Y-58697904D02*
X184006247Y-58650285D01*
X184006247Y-58650285D02*
X184244342Y-58650285D01*
X184244342Y-58650285D02*
X184339580Y-58697904D01*
X184339580Y-58697904D02*
X184387200Y-58745523D01*
X184387200Y-58745523D02*
X184434819Y-58840761D01*
X184434819Y-58840761D02*
X184434819Y-59078856D01*
X184434819Y-59078856D02*
X184387200Y-59174094D01*
X184387200Y-59174094D02*
X184339580Y-59221713D01*
X149524819Y-78231904D02*
X150334342Y-78231904D01*
X150334342Y-78231904D02*
X150429580Y-78184285D01*
X150429580Y-78184285D02*
X150477200Y-78136666D01*
X150477200Y-78136666D02*
X150524819Y-78041428D01*
X150524819Y-78041428D02*
X150524819Y-77850952D01*
X150524819Y-77850952D02*
X150477200Y-77755714D01*
X150477200Y-77755714D02*
X150429580Y-77708095D01*
X150429580Y-77708095D02*
X150334342Y-77660476D01*
X150334342Y-77660476D02*
X149524819Y-77660476D01*
X150524819Y-77136666D02*
X150524819Y-76946190D01*
X150524819Y-76946190D02*
X150477200Y-76850952D01*
X150477200Y-76850952D02*
X150429580Y-76803333D01*
X150429580Y-76803333D02*
X150286723Y-76708095D01*
X150286723Y-76708095D02*
X150096247Y-76660476D01*
X150096247Y-76660476D02*
X149715295Y-76660476D01*
X149715295Y-76660476D02*
X149620057Y-76708095D01*
X149620057Y-76708095D02*
X149572438Y-76755714D01*
X149572438Y-76755714D02*
X149524819Y-76850952D01*
X149524819Y-76850952D02*
X149524819Y-77041428D01*
X149524819Y-77041428D02*
X149572438Y-77136666D01*
X149572438Y-77136666D02*
X149620057Y-77184285D01*
X149620057Y-77184285D02*
X149715295Y-77231904D01*
X149715295Y-77231904D02*
X149953390Y-77231904D01*
X149953390Y-77231904D02*
X150048628Y-77184285D01*
X150048628Y-77184285D02*
X150096247Y-77136666D01*
X150096247Y-77136666D02*
X150143866Y-77041428D01*
X150143866Y-77041428D02*
X150143866Y-76850952D01*
X150143866Y-76850952D02*
X150096247Y-76755714D01*
X150096247Y-76755714D02*
X150048628Y-76708095D01*
X150048628Y-76708095D02*
X149953390Y-76660476D01*
X131744819Y-98266094D02*
X132554342Y-98266094D01*
X132554342Y-98266094D02*
X132649580Y-98218475D01*
X132649580Y-98218475D02*
X132697200Y-98170856D01*
X132697200Y-98170856D02*
X132744819Y-98075618D01*
X132744819Y-98075618D02*
X132744819Y-97885142D01*
X132744819Y-97885142D02*
X132697200Y-97789904D01*
X132697200Y-97789904D02*
X132649580Y-97742285D01*
X132649580Y-97742285D02*
X132554342Y-97694666D01*
X132554342Y-97694666D02*
X131744819Y-97694666D01*
X132744819Y-96694666D02*
X132744819Y-97266094D01*
X132744819Y-96980380D02*
X131744819Y-96980380D01*
X131744819Y-96980380D02*
X131887676Y-97075618D01*
X131887676Y-97075618D02*
X131982914Y-97170856D01*
X131982914Y-97170856D02*
X132030533Y-97266094D01*
X132744819Y-95742285D02*
X132744819Y-96313713D01*
X132744819Y-96027999D02*
X131744819Y-96027999D01*
X131744819Y-96027999D02*
X131887676Y-96123237D01*
X131887676Y-96123237D02*
X131982914Y-96218475D01*
X131982914Y-96218475D02*
X132030533Y-96313713D01*
X129204819Y-78231904D02*
X130014342Y-78231904D01*
X130014342Y-78231904D02*
X130109580Y-78184285D01*
X130109580Y-78184285D02*
X130157200Y-78136666D01*
X130157200Y-78136666D02*
X130204819Y-78041428D01*
X130204819Y-78041428D02*
X130204819Y-77850952D01*
X130204819Y-77850952D02*
X130157200Y-77755714D01*
X130157200Y-77755714D02*
X130109580Y-77708095D01*
X130109580Y-77708095D02*
X130014342Y-77660476D01*
X130014342Y-77660476D02*
X129204819Y-77660476D01*
X129204819Y-77279523D02*
X129204819Y-76612857D01*
X129204819Y-76612857D02*
X130204819Y-77041428D01*
X142113333Y-83757580D02*
X142065714Y-83805200D01*
X142065714Y-83805200D02*
X141922857Y-83852819D01*
X141922857Y-83852819D02*
X141827619Y-83852819D01*
X141827619Y-83852819D02*
X141684762Y-83805200D01*
X141684762Y-83805200D02*
X141589524Y-83709961D01*
X141589524Y-83709961D02*
X141541905Y-83614723D01*
X141541905Y-83614723D02*
X141494286Y-83424247D01*
X141494286Y-83424247D02*
X141494286Y-83281390D01*
X141494286Y-83281390D02*
X141541905Y-83090914D01*
X141541905Y-83090914D02*
X141589524Y-82995676D01*
X141589524Y-82995676D02*
X141684762Y-82900438D01*
X141684762Y-82900438D02*
X141827619Y-82852819D01*
X141827619Y-82852819D02*
X141922857Y-82852819D01*
X141922857Y-82852819D02*
X142065714Y-82900438D01*
X142065714Y-82900438D02*
X142113333Y-82948057D01*
X142446667Y-82852819D02*
X143065714Y-82852819D01*
X143065714Y-82852819D02*
X142732381Y-83233771D01*
X142732381Y-83233771D02*
X142875238Y-83233771D01*
X142875238Y-83233771D02*
X142970476Y-83281390D01*
X142970476Y-83281390D02*
X143018095Y-83329009D01*
X143018095Y-83329009D02*
X143065714Y-83424247D01*
X143065714Y-83424247D02*
X143065714Y-83662342D01*
X143065714Y-83662342D02*
X143018095Y-83757580D01*
X143018095Y-83757580D02*
X142970476Y-83805200D01*
X142970476Y-83805200D02*
X142875238Y-83852819D01*
X142875238Y-83852819D02*
X142589524Y-83852819D01*
X142589524Y-83852819D02*
X142494286Y-83805200D01*
X142494286Y-83805200D02*
X142446667Y-83757580D01*
D11*
%TO.C,R2*%
X188876000Y-75724000D02*
X189206000Y-75724000D01*
X188876000Y-82264000D02*
X188876000Y-75724000D01*
X189206000Y-82264000D02*
X188876000Y-82264000D01*
X191286000Y-82264000D02*
X191616000Y-82264000D01*
X191616000Y-75724000D02*
X191286000Y-75724000D01*
X191616000Y-82264000D02*
X191616000Y-75724000D01*
%TO.C,C1*%
X179594000Y-81734000D02*
X184134000Y-81734000D01*
X179594000Y-83818000D02*
X179594000Y-83874000D01*
X179594000Y-83874000D02*
X184134000Y-83874000D01*
X184134000Y-83818000D02*
X184134000Y-83874000D01*
%TO.C,U3*%
X143450000Y-112915000D02*
X143450000Y-114565000D01*
X143450000Y-116565000D02*
X143450000Y-118215000D01*
X143450000Y-118215000D02*
X163890000Y-118215000D01*
X163890000Y-112915000D02*
X143450000Y-112915000D01*
X163890000Y-118215000D02*
X163890000Y-112915000D01*
X143450000Y-114565000D02*
G75*
G02*
X143450000Y-116565000I0J-1000000D01*
G01*
D12*
%TO.C,U8*%
X100330000Y-41910000D02*
X191770000Y-41910000D01*
X100330000Y-67310000D02*
X100330000Y-41910000D01*
X101600000Y-41910000D02*
X100330000Y-43180000D01*
X102870000Y-41910000D02*
X100330000Y-44450000D01*
X104140000Y-41910000D02*
X100330000Y-45720000D01*
X191770000Y-41910000D02*
X191770000Y-67310000D01*
X191770000Y-67310000D02*
X100330000Y-67310000D01*
D11*
%TO.C,JP2*%
X107840000Y-109330000D02*
X107840000Y-107950000D01*
X109220000Y-109330000D02*
X107840000Y-109330000D01*
X110490000Y-106570000D02*
X115680000Y-106570000D01*
X110490000Y-109330000D02*
X110490000Y-106570000D01*
X110490000Y-109330000D02*
X115680000Y-109330000D01*
X115680000Y-109330000D02*
X115680000Y-106570000D01*
%TO.C,U6*%
X171390000Y-99961000D02*
X171390000Y-101611000D01*
X171390000Y-103611000D02*
X171390000Y-105261000D01*
X171390000Y-105261000D02*
X191830000Y-105261000D01*
X191830000Y-99961000D02*
X171390000Y-99961000D01*
X191830000Y-105261000D02*
X191830000Y-99961000D01*
X171390000Y-101611000D02*
G75*
G02*
X171390000Y-103611000I0J-1000000D01*
G01*
%TO.C,R3*%
X112930000Y-56166000D02*
X113260000Y-56166000D01*
X112930000Y-62706000D02*
X112930000Y-56166000D01*
X113260000Y-62706000D02*
X112930000Y-62706000D01*
X115340000Y-62706000D02*
X115670000Y-62706000D01*
X115670000Y-56166000D02*
X115340000Y-56166000D01*
X115670000Y-62706000D02*
X115670000Y-56166000D01*
%TO.C,U10*%
X102810000Y-74820000D02*
X102810000Y-76470000D01*
X102810000Y-78470000D02*
X102810000Y-80120000D01*
X102810000Y-80120000D02*
X128330000Y-80120000D01*
X128330000Y-74820000D02*
X102810000Y-74820000D01*
X128330000Y-80120000D02*
X128330000Y-74820000D01*
X102810000Y-76470000D02*
G75*
G02*
X102810000Y-78470000I0J-1000000D01*
G01*
%TO.C,R1*%
X171858000Y-75724000D02*
X171858000Y-82264000D01*
X171858000Y-82264000D02*
X172188000Y-82264000D01*
X172188000Y-75724000D02*
X171858000Y-75724000D01*
X174268000Y-75724000D02*
X174598000Y-75724000D01*
X174598000Y-75724000D02*
X174598000Y-82264000D01*
X174598000Y-82264000D02*
X174268000Y-82264000D01*
%TO.C,JP1*%
X158640000Y-87232000D02*
X158640000Y-85852000D01*
X160020000Y-87232000D02*
X158640000Y-87232000D01*
X161290000Y-84472000D02*
X166480000Y-84472000D01*
X161290000Y-87232000D02*
X161290000Y-84472000D01*
X161290000Y-87232000D02*
X166480000Y-87232000D01*
X166480000Y-87232000D02*
X166480000Y-84472000D01*
%TO.C,U2*%
X102810000Y-112915000D02*
X102810000Y-114565000D01*
X102810000Y-116565000D02*
X102810000Y-118215000D01*
X102810000Y-118215000D02*
X120710000Y-118215000D01*
X120710000Y-112915000D02*
X102810000Y-112915000D01*
X120710000Y-118215000D02*
X120710000Y-112915000D01*
X102810000Y-114565000D02*
G75*
G02*
X102810000Y-116565000I0J-1000000D01*
G01*
%TO.C,C5*%
X170080000Y-92186000D02*
X170080000Y-87646000D01*
X172164000Y-87646000D02*
X172220000Y-87646000D01*
X172164000Y-92186000D02*
X172220000Y-92186000D01*
X172220000Y-92186000D02*
X172220000Y-87646000D01*
%TO.C,C6*%
X123172712Y-103313000D02*
X123622712Y-103313000D01*
X123397712Y-103088000D02*
X123397712Y-103538000D01*
X123590259Y-103588000D02*
G75*
G02*
X123590259Y-105708000I2119741J-1060000D01*
G01*
%TO.C,C4*%
X147630000Y-84528000D02*
X152170000Y-84528000D01*
X147630000Y-86612000D02*
X147630000Y-86668000D01*
X147630000Y-86668000D02*
X152170000Y-86668000D01*
X152170000Y-86612000D02*
X152170000Y-86668000D01*
%TO.C,U5*%
X173930000Y-87266000D02*
X173930000Y-88916000D01*
X173930000Y-90916000D02*
X173930000Y-92566000D01*
X173930000Y-92566000D02*
X191830000Y-92566000D01*
X191830000Y-87266000D02*
X173930000Y-87266000D01*
X191830000Y-92566000D02*
X191830000Y-87266000D01*
X173930000Y-88916000D02*
G75*
G02*
X173930000Y-90916000I0J-1000000D01*
G01*
%TO.C,C2*%
X132390000Y-84528000D02*
X136930000Y-84528000D01*
X132390000Y-86612000D02*
X132390000Y-86668000D01*
X132390000Y-86668000D02*
X136930000Y-86668000D01*
X136930000Y-86612000D02*
X136930000Y-86668000D01*
%TO.C,R6*%
X175922000Y-56166000D02*
X176252000Y-56166000D01*
X175922000Y-62706000D02*
X175922000Y-56166000D01*
X176252000Y-62706000D02*
X175922000Y-62706000D01*
X178332000Y-62706000D02*
X178662000Y-62706000D01*
X178662000Y-56166000D02*
X178332000Y-56166000D01*
X178662000Y-62706000D02*
X178662000Y-56166000D01*
%TO.C,U1*%
X166310000Y-112920000D02*
X166310000Y-114570000D01*
X166310000Y-116570000D02*
X166310000Y-118220000D01*
X166310000Y-118220000D02*
X191830000Y-118220000D01*
X191830000Y-112920000D02*
X166310000Y-112920000D01*
X191830000Y-118220000D02*
X191830000Y-112920000D01*
X166310000Y-114570000D02*
G75*
G02*
X166310000Y-116570000I0J-1000000D01*
G01*
%TO.C,R4*%
X108358000Y-56166000D02*
X108688000Y-56166000D01*
X108358000Y-62706000D02*
X108358000Y-56166000D01*
X108688000Y-62706000D02*
X108358000Y-62706000D01*
X110768000Y-62706000D02*
X111098000Y-62706000D01*
X111098000Y-56166000D02*
X110768000Y-56166000D01*
X111098000Y-62706000D02*
X111098000Y-56166000D01*
%TO.C,U4*%
X123130000Y-112915000D02*
X123130000Y-114565000D01*
X123130000Y-116565000D02*
X123130000Y-118215000D01*
X123130000Y-118215000D02*
X141030000Y-118215000D01*
X141030000Y-112915000D02*
X123130000Y-112915000D01*
X141030000Y-118215000D02*
X141030000Y-112915000D01*
X123130000Y-114565000D02*
G75*
G02*
X123130000Y-116565000I0J-1000000D01*
G01*
%TO.C,Y1*%
X178585000Y-72659000D02*
X184835000Y-72659000D01*
X178585000Y-77709000D02*
X184835000Y-77709000D01*
X178585000Y-77709000D02*
G75*
G02*
X178585000Y-72659000I0J2525000D01*
G01*
X184835000Y-72659000D02*
G75*
G02*
X184835000Y-77709000I0J-2525000D01*
G01*
%TO.C,R5*%
X180240000Y-56166000D02*
X180240000Y-62706000D01*
X180240000Y-62706000D02*
X180570000Y-62706000D01*
X180570000Y-56166000D02*
X180240000Y-56166000D01*
X182650000Y-56166000D02*
X182980000Y-56166000D01*
X182980000Y-56166000D02*
X182980000Y-62706000D01*
X182980000Y-62706000D02*
X182650000Y-62706000D01*
%TO.C,U9*%
X151070000Y-74820000D02*
X151070000Y-76470000D01*
X151070000Y-78470000D02*
X151070000Y-80120000D01*
X151070000Y-80120000D02*
X168970000Y-80120000D01*
X168970000Y-74820000D02*
X151070000Y-74820000D01*
X168970000Y-80120000D02*
X168970000Y-74820000D01*
X151070000Y-76470000D02*
G75*
G02*
X151070000Y-78470000I0J-1000000D01*
G01*
%TO.C,U11*%
X133290000Y-90568000D02*
X133290000Y-96028000D01*
X133290000Y-98028000D02*
X133290000Y-103488000D01*
X133290000Y-103488000D02*
X168970000Y-103488000D01*
X168970000Y-90568000D02*
X133290000Y-90568000D01*
X168970000Y-103488000D02*
X168970000Y-90568000D01*
X133290000Y-96028000D02*
G75*
G02*
X133290000Y-98028000I0J-1000000D01*
G01*
%TO.C,U7*%
X130750000Y-74820000D02*
X130750000Y-76470000D01*
X130750000Y-78470000D02*
X130750000Y-80120000D01*
X130750000Y-80120000D02*
X148650000Y-80120000D01*
X148650000Y-74820000D02*
X130750000Y-74820000D01*
X148650000Y-80120000D02*
X148650000Y-74820000D01*
X130750000Y-76470000D02*
G75*
G02*
X130750000Y-78470000I0J-1000000D01*
G01*
%TO.C,C3*%
X140010000Y-84528000D02*
X144550000Y-84528000D01*
X140010000Y-86612000D02*
X140010000Y-86668000D01*
X140010000Y-86668000D02*
X144550000Y-86668000D01*
X144550000Y-86612000D02*
X144550000Y-86668000D01*
%TD*%
M02*
